<svg width="24" height="24" viewBox="0 0 24 24" fill="none" xmlns="http://www.w3.org/2000/svg">
<path d="M12.0016 19.8375L11.7016 19.575C4.87656 14.025 3.03906 12.075 3.03906 8.88748C3.03906 6.26248 5.17656 4.16248 7.76406 4.16248C9.93906 4.16248 11.1766 5.39998 12.0016 6.33748C12.8266 5.39998 14.0641 4.16248 16.2391 4.16248C18.8641 4.16248 20.9641 6.29998 20.9641 8.88748C20.9641 12.075 19.1266 14.025 12.3016 19.575L12.0016 19.8375ZM6.00159 14C3.93909 14 4.01406 6.82498 4.01406 8.88748C4.01406 11.625 5.73906 13.425 12.0016 18.5625C18.2641 13.425 19.9891 11.625 19.9891 8.88748C19.9891 6.82498 20.5016 8.49998 19.9891 10.5C19.7328 11.5 20.7766 11.1 19.9891 12L12.0016 18.5625L8.943 16C8.1555 15.1 7.76406 15.6471 6.00159 14Z" fill="white"/>
<path d="M12.0016 18.5625C5.73906 13.425 4.01406 11.625 4.01406 8.88748C4.01406 6.82498 3.93909 14 6.00159 14C7.76406 15.6471 8.1555 15.1 8.943 16L12.0016 18.5625ZM12.0016 18.5625C18.2641 13.425 19.9891 11.625 19.9891 8.88748C19.9891 6.82498 20.5016 8.49998 19.9891 10.5C19.7328 11.5 20.7766 11.1 19.9891 12L12.0016 18.5625ZM12.0016 19.8375L11.7016 19.575C4.87656 14.025 3.03906 12.075 3.03906 8.88748C3.03906 6.26248 5.17656 4.16248 7.76406 4.16248C9.93906 4.16248 11.1766 5.39998 12.0016 6.33748C12.8266 5.39998 14.0641 4.16248 16.2391 4.16248C18.8641 4.16248 20.9641 6.29998 20.9641 8.88748C20.9641 12.075 19.1266 14.025 12.3016 19.575L12.0016 19.8375Z" stroke="white" stroke-width="0.4"/>
</svg>
