<svg width="25" height="24" viewBox="0 0 25 24" fill="none" xmlns="http://www.w3.org/2000/svg">
<g id="trace (5) 1" clip-path="url(#clip0_1411_68)">
<path id="Vector" fill-rule="evenodd" clip-rule="evenodd" d="M4.50021 2.1415C4.50021 2.90675 4.38121 3.75525 4.23571 4.02725C4.08996 4.29925 3.92846 5.61375 3.87671 6.9485C3.75521 10.0815 2.99346 13.9592 2.16871 15.6447C0.760211 18.5233 0.661461 18.9698 1.31221 19.52C2.28821 20.3455 5.06196 21.8705 6.75021 22.5098C8.22221 23.067 8.73996 23.125 12.2502 23.125C16.2962 23.125 17.1995 22.9417 19.9895 21.5548C21.9027 20.6033 24.2502 18.831 24.2502 18.3377C24.2502 17.9665 23.1785 15.2115 22.718 14.3995C22.5697 14.1377 22.288 12.9002 22.0917 11.6495C21.8957 10.3985 21.6465 8.84275 21.5382 8.192C21.4297 7.5415 21.4212 6.92275 21.5192 6.817C21.6175 6.7115 21.584 5.95 21.445 5.125C21.306 4.3 21.2117 2.978 21.2357 2.1875C21.2697 1.05425 21.1992 0.75 20.9022 0.75C20.2337 0.75 19.225 2.4 18.9235 3.98675C18.6305 5.5285 18.2502 6.02 18.2502 4.857C18.2502 4.16575 17.0977 2 16.73 2C16.323 2 15.1785 3.997 15.1517 4.75375C15.1195 5.6605 14.315 5.83575 14.309 4.9375C14.3045 4.26075 13.2442 2.2 12.8317 2.06625C12.37 1.9165 11.2502 3.76925 11.2502 4.683C11.2502 5.33325 11.1482 5.5 10.7502 5.5C10.4142 5.5 10.2502 5.33325 10.2502 4.992C10.2502 4.39325 9.68746 3.07575 9.13871 2.39C8.75521 1.91075 8.74521 1.911 8.28421 2.40575C7.56971 3.17275 7.25296 3.88625 7.22246 4.796C7.19771 5.53825 7.16271 5.49375 6.88721 4.37025C6.44321 2.55875 5.35371 0.75 4.70671 0.75C4.59321 0.75 4.50021 1.37625 4.50021 2.1415ZM8.50021 4.75C8.50021 5.21675 8.56696 5.28325 8.80021 5.05C9.03346 4.81675 9.03346 4.68325 8.80021 4.45C8.56696 4.21675 8.50021 4.28325 8.50021 4.75ZM12.5002 4.75C12.5002 5.025 12.6127 5.25 12.7502 5.25C12.8877 5.25 13.0002 5.025 13.0002 4.75C13.0002 4.475 12.8877 4.25 12.7502 4.25C12.6127 4.25 12.5002 4.475 12.5002 4.75ZM16.5002 4.75C16.5002 5.025 16.6127 5.25 16.7502 5.25C16.8877 5.25 17.0002 5.025 17.0002 4.75C17.0002 4.475 16.8877 4.25 16.7502 4.25C16.6127 4.25 16.5002 4.475 16.5002 4.75ZM5.25021 4.98525C5.25021 5.26825 5.36271 5.5 5.50021 5.5C5.63771 5.5 5.75021 5.338 5.75021 5.13975C5.75021 4.9415 5.63771 4.71 5.50021 4.625C5.36271 4.54 5.25021 4.70225 5.25021 4.98525ZM20.0397 5C20.0397 5.34375 20.0965 5.4845 20.1657 5.3125C20.2352 5.14075 20.2352 4.8595 20.1657 4.6875C20.0965 4.51575 20.0397 4.65625 20.0397 5ZM5.37821 7.28925C5.29946 7.6115 5.07646 8.775 4.88296 9.875C4.68921 10.975 4.45446 12.1842 4.36121 12.5625L4.19196 13.25H7.06346H9.93471L10.0897 12.3125C10.175 11.797 10.246 11.0655 10.2475 10.6875C10.2517 9.603 11.0465 8.997 12.4377 9.0175C13.0907 9.02725 13.8397 9.11925 14.102 9.222C14.5945 9.41525 15.218 11.2467 15.2392 12.5625L15.2502 13.25H18.1452H21.04L20.8642 11.5625C20.7675 10.6345 20.5897 9.6855 20.4692 9.454C20.3487 9.22225 20.2485 8.716 20.2465 8.329C20.2442 7.94175 20.16 7.4995 20.059 7.34575C19.9355 7.1585 17.5185 7.007 12.6982 6.885L5.52146 6.7035L5.37821 7.28925ZM11.797 10.3188C11.6515 10.494 11.4545 11.2253 11.359 11.9438L11.1857 13.25H12.593C14 13.25 14.0002 13.2498 14.0002 12.4753C14.0002 11.2692 13.2962 10 12.6275 10C12.3162 10 11.9425 10.1435 11.797 10.3188ZM3.65896 15.3092C3.45671 15.758 3.05246 16.6838 2.76096 17.3665L2.23046 18.608L2.80296 19.0625C3.66871 19.75 5.20596 20.5483 6.87521 21.1768C8.69346 21.8615 9.24971 21.8932 9.25221 21.3125C9.25321 21.0718 9.36271 19.929 9.49571 18.773C9.82446 15.9128 10.2105 15.5 12.5552 15.5C15.044 15.5 15.3902 15.9042 15.629 19.0912C15.7287 20.4202 15.8917 21.558 15.9915 21.6195C16.219 21.7603 18.5507 20.9093 19.8752 20.202C21.2375 19.4745 22.7505 18.2712 22.749 17.9165C22.7485 17.7563 22.473 16.95 22.137 16.125L21.526 14.625L12.7765 14.5592L4.02671 14.4937L3.65896 15.3092ZM11.0485 17.1755C10.9207 17.4228 10.7392 18.6095 10.6452 19.8125L10.4742 22H12.5815H14.6887L14.5662 20.8125C14.499 20.1595 14.3722 19.0063 14.2845 18.25L14.125 16.875L12.703 16.8005C11.5392 16.7395 11.2385 16.8078 11.0485 17.1755Z" fill="#8F3630" stroke="#F3DDDC" stroke-width="0.3"/>
</g>
<defs>
<clipPath id="clip0_1411_68">
<rect width="24" height="24" fill="white" transform="translate(0.5)"/>
</clipPath>
</defs>
</svg>
