<svg width="25" height="24" viewBox="0 0 25 24" fill="none" xmlns="http://www.w3.org/2000/svg">
<g clip-path="url(#clip0_1411_1388)">
<path fill-rule="evenodd" clip-rule="evenodd" d="M3.49729 3.40539C3.03647 3.86622 3.00771 4.27454 3.00771 10.3483C3.00771 15.1398 3.08822 16.9004 3.32026 17.1849C3.50754 17.4147 4.48496 17.698 5.75817 17.8916C8.31834 18.2809 10.2464 18.959 11.2896 19.8366C11.9222 20.369 12.1367 20.4327 12.4733 20.1887C14.4136 18.7812 15.4753 18.3851 18.6758 17.8748C19.7938 17.6965 20.7699 17.399 20.9482 17.1819C21.1802 16.8994 21.2607 15.1413 21.2607 10.3483C21.2607 4.30129 21.2302 3.86447 20.7769 3.41114C19.6265 2.2607 14.6496 3.81671 13.0286 5.83405L12.2275 6.83096L10.9305 5.5505C9.48979 4.12776 7.56422 3.27012 5.31009 3.04683C4.21841 2.93882 3.90111 3.00158 3.49729 3.40539ZM4.18241 4.05375C4.08639 4.14977 4.00788 7.0225 4.00788 10.4378V16.6471L4.69549 16.6488C5.77817 16.6516 9.41728 17.5903 10.5137 18.1498L11.5091 18.6577V17.6523C11.5091 17.0994 11.3951 16.6471 11.2556 16.6471C10.8203 16.6471 9.265 15.5372 9.26175 15.2241C9.25575 14.646 9.77784 14.6178 10.6385 15.1496L11.5091 15.6877L11.5086 14.6048C11.5081 13.6006 11.4264 13.4668 10.3889 12.7715C9.238 12.0001 8.88669 11.1462 9.72008 11.1462C9.97387 11.1462 10.3852 11.3712 10.634 11.6463C11.3316 12.4169 11.5091 12.2564 11.5091 10.8544C11.5091 10.144 11.4374 9.63443 11.3493 9.72219C11.2616 9.81021 10.859 9.60393 10.455 9.26387C10.0511 8.92381 9.61656 8.64577 9.48954 8.64577C9.36252 8.64577 9.25875 8.42073 9.25875 8.14568C9.25875 7.50908 9.61206 7.51408 10.667 8.16619C11.5806 8.73078 11.7202 8.525 11.1563 7.44557C10.6097 6.39939 9.51379 5.48149 8.00854 4.80938C6.57005 4.16702 4.48171 3.7547 4.18241 4.05375ZM18.2602 4.12451C15.4625 4.70261 12.7593 6.85872 12.7593 8.51199C12.7593 8.8223 12.9624 8.76854 13.745 8.25045C14.6997 7.61884 15.263 7.60859 15.2567 8.22294C15.253 8.58225 13.6692 9.64593 13.1379 9.64593C12.8453 9.64593 12.7593 9.96073 12.7593 11.0299C12.7593 12.2944 12.7988 12.3929 13.2174 12.1689C13.4695 12.0338 13.8208 11.7488 13.9983 11.535C14.4016 11.0489 15.2597 11.0254 15.2597 11.5002C15.2597 11.9641 13.3432 13.4778 13.0139 13.2743C12.8528 13.1748 12.7593 13.6291 12.7593 14.5105V15.904L13.745 15.2516C14.6994 14.6203 15.271 14.6098 15.2492 15.2241C15.2367 15.5762 13.6322 16.6471 13.1171 16.6471C12.8661 16.6471 12.7593 16.9471 12.7593 17.6523V18.6577L13.697 18.1829C14.7912 17.629 18.5385 16.6471 19.558 16.6471C20.2266 16.6471 20.2606 16.5913 20.2606 15.4932V14.3392L18.8854 14.511C17.6174 14.6693 17.5101 14.6435 17.5101 14.1799C17.5101 13.7771 17.7299 13.6443 18.6176 13.5111C19.2267 13.4198 19.8455 13.4196 19.9928 13.5106C20.1703 13.6203 20.2606 13.2285 20.2608 12.3486L20.2613 11.0212L18.8626 11.1082C17.6134 11.1859 17.4734 11.1459 17.5519 10.7331C17.6216 10.3661 17.9092 10.2555 18.9501 10.1955L20.2606 10.1198L20.2608 8.82029L20.2613 7.52058L18.8856 7.60634C17.7972 7.6741 17.5101 7.61434 17.5101 7.32055C17.5101 6.84697 18.0427 6.64543 19.2939 6.64543H20.2868L20.2111 5.33271C20.1276 3.87997 19.9565 3.77395 18.2602 4.12451ZM0.807345 6.19536C0.451786 6.55092 0.377773 20.3062 0.728582 20.8598C1.00163 21.2909 1.59373 21.3021 4.50796 20.9321C6.18574 20.7193 7.39194 20.7028 8.61539 20.8766C10.4352 21.1351 10.759 21.0828 10.759 20.5305C10.759 20.3065 10.1486 20.0884 8.9462 19.8829C7.31018 19.6031 4.92153 19.7206 1.88427 20.2304C1.72175 20.2577 1.60898 17.8981 1.56597 13.5793L1.49921 6.88622L2.14357 6.64118C2.49788 6.50666 2.71816 6.28362 2.6329 6.14585C2.41786 5.79779 1.17116 5.83155 0.807345 6.19536ZM21.7608 6.27037C21.7608 6.47865 21.9831 6.64543 22.2609 6.64543C22.7485 6.64543 22.761 6.81221 22.761 13.3548C22.761 17.0452 22.7072 20.1179 22.6417 20.1837C22.576 20.2492 21.4255 20.1367 20.0848 19.9336C16.6167 19.4081 12.7533 19.9917 13.665 20.9033C13.8388 21.0771 14.5006 21.0763 15.7381 20.9008C17.0488 20.715 18.1945 20.7258 19.8458 20.9393C22.5875 21.2939 23.2196 21.2891 23.5986 20.9106C23.7974 20.7123 23.9092 18.5314 23.9602 13.8584C24.024 8.04767 23.979 7.00874 23.6419 6.49416C23.1858 5.79804 21.7608 5.62826 21.7608 6.27037ZM4.30443 7.08301C4.4157 7.6681 7.00838 7.88614 7.00838 7.31029C7.00838 6.84622 6.46829 6.64543 5.21933 6.64543C4.40369 6.64543 4.23642 6.72545 4.30443 7.08301ZM4.30168 10.5698C4.36944 10.9254 4.66999 11.0374 5.71891 11.0974C6.88911 11.1644 7.03988 11.1192 6.96462 10.7224C6.89686 10.3668 6.59631 10.2548 5.54738 10.1948C4.37719 10.1278 4.22641 10.173 4.30168 10.5698ZM4.34418 13.7824C4.14715 14.2957 4.17816 14.3127 5.69566 14.517C6.89461 14.6783 7.00838 14.651 7.00838 14.2014C7.00838 13.4301 4.62323 13.055 4.34418 13.7824Z" fill="#8F3B30"/>
</g>
<defs>
<clipPath id="clip0_1411_1388">
<rect width="24" height="24" fill="white" transform="translate(0.5)"/>
</clipPath>
</defs>
</svg>
