<svg width="16" height="16" viewBox="0 0 16 16" fill="none" xmlns="http://www.w3.org/2000/svg">
<path d="M11.5585 14.6146C11.378 14.6146 11.1965 14.571 11.0294 14.4833L8.01364 12.8971L4.96757 14.4827C4.78016 14.5824 4.56844 14.6271 4.35675 14.6118C4.14505 14.5965 3.94198 14.5217 3.77088 14.3961C3.59865 14.2722 3.46488 14.1022 3.38495 13.9056C3.30502 13.709 3.28217 13.4939 3.31902 13.285L3.89502 9.92716L1.44591 7.51999C1.29322 7.37248 1.18525 7.18489 1.1344 6.97876C1.08355 6.77264 1.09189 6.55635 1.15846 6.35475C1.22343 6.15283 1.34395 5.97329 1.50622 5.83669C1.66848 5.70008 1.86594 5.61193 2.07598 5.58234L5.44702 5.09241L6.97971 2.0193C7.17281 1.62868 7.56288 1.38647 7.99874 1.38647C8.4346 1.38647 8.82467 1.62868 9.01777 2.0193L10.5256 5.0742L13.9215 5.58234C14.1315 5.61193 14.329 5.70008 14.4913 5.83669C14.6535 5.97329 14.774 6.15283 14.839 6.35475C14.9053 6.55638 14.9135 6.7726 14.8627 6.97867C14.8119 7.18474 14.704 7.37233 14.5516 7.51999L12.1118 9.89792L12.6785 13.2855C12.715 13.4945 12.692 13.7095 12.6121 13.906C12.5322 14.1025 12.3986 14.2725 12.2266 14.3967C12.0323 14.5377 11.7985 14.614 11.5585 14.6146ZM2.21557 6.72992L4.65474 9.10785C4.92233 9.36937 5.04481 9.74454 4.98191 10.1131L4.40646 13.4714L4.71101 13.9945L4.45391 13.5062L7.46908 11.9205C7.63217 11.8349 7.81362 11.7901 7.99784 11.79C8.18207 11.7899 8.36356 11.8345 8.52674 11.92L11.5425 13.5062L11.5899 13.4714L11.0139 10.1136C10.983 9.93208 10.9965 9.74572 11.0534 9.57054C11.1103 9.39536 11.2088 9.23659 11.3405 9.10785L13.7803 6.72992L13.7621 6.6731L10.391 6.18316C10.2087 6.15648 10.0356 6.08596 9.88658 5.97765C9.73753 5.86935 9.61699 5.72651 9.53529 5.56137L8.02743 2.50647C8.02302 2.49765 8.01805 2.48882 7.99764 2.48882L6.45998 5.56137C6.37854 5.72648 6.25821 5.86934 6.10934 5.97765C5.96047 6.08596 5.78752 6.15649 5.60536 6.18316L2.23322 6.6731L1.82991 7.12441L2.21557 6.72992Z" fill="#8F3630"/>
</svg>
