<svg width="20" height="20" viewBox="0 0 20 20" fill="none" xmlns="http://www.w3.org/2000/svg">
<path d="M7.157 18.7707V15.7047C7.157 14.9247 7.793 14.2907 8.581 14.2847H11.467C12.259 14.2847 12.9 14.9207 12.9 15.7047V18.7807C12.9 19.4427 13.434 19.9847 14.103 19.9997H16.027C17.945 19.9997 19.5 18.4597 19.5 16.5617V7.8377C19.4944 7.46804 19.405 7.10447 19.2383 6.77445C19.0717 6.44443 18.8322 6.1566 18.538 5.9327L11.958 0.684701C11.3964 0.240616 10.7014 -0.000976562 9.9855 -0.000976562C9.26956 -0.000976563 8.57457 0.240616 8.013 0.684701L1.462 5.9427C1.16683 6.16547 0.926649 6.45292 0.759886 6.78298C0.593122 7.11304 0.504218 7.47693 0.5 7.8467V16.5617C0.5 18.4597 2.055 19.9997 3.973 19.9997H5.897C6.582 19.9997 7.138 19.4497 7.138 18.7707" fill="white"/>
</svg>
