<svg width="16" height="16" viewBox="0 0 16 16" fill="none" xmlns="http://www.w3.org/2000/svg">
    <g id="alphabetic-ascending 1">
        <path id="Vector"
            d="M6.14314 11.645L4.99814 12.795V2C4.99814 1.86739 4.94546 1.74021 4.85169 1.64645C4.75792 1.55268 4.63075 1.5 4.49814 1.5C4.36553 1.5 4.23835 1.55268 4.14459 1.64645C4.05082 1.74021 3.99814 1.86739 3.99814 2V12.795L2.85314 11.645C2.75899 11.5508 2.63129 11.498 2.49814 11.498C2.36499 11.498 2.23729 11.5508 2.14314 11.645C2.04899 11.7392 1.99609 11.8668 1.99609 12C1.99609 12.1332 2.04899 12.2608 2.14314 12.355L4.14314 14.355C4.18962 14.4019 4.24492 14.4391 4.30585 14.4644C4.36678 14.4898 4.43213 14.5029 4.49814 14.5029C4.56415 14.5029 4.6295 14.4898 4.69043 14.4644C4.75136 14.4391 4.80666 14.4019 4.85314 14.355L6.85314 12.355C6.89976 12.3084 6.93674 12.253 6.96197 12.1921C6.9872 12.1312 7.00019 12.0659 7.00019 12C7.00019 11.9341 6.9872 11.8688 6.96197 11.8079C6.93674 11.747 6.89976 11.6916 6.85314 11.645C6.80652 11.5984 6.75118 11.5614 6.69026 11.5362C6.62935 11.5109 6.56407 11.498 6.49814 11.498C6.43221 11.498 6.36693 11.5109 6.30602 11.5362C6.2451 11.5614 6.18976 11.5984 6.14314 11.645ZM11.4981 1.5C10.9677 1.5 10.459 1.71071 10.0839 2.08579C9.70885 2.46086 9.49814 2.96957 9.49814 3.5V7C9.49814 7.13261 9.55082 7.25979 9.64459 7.35355C9.73835 7.44732 9.86553 7.5 9.99814 7.5C10.1307 7.5 10.2579 7.44732 10.3517 7.35355C10.4455 7.25979 10.4981 7.13261 10.4981 7V5.5H12.4981V7C12.4981 7.13261 12.5508 7.25979 12.6446 7.35355C12.7384 7.44732 12.8655 7.5 12.9981 7.5C13.1307 7.5 13.2579 7.44732 13.3517 7.35355C13.4455 7.25979 13.4981 7.13261 13.4981 7V3.5C13.4981 2.96957 13.2874 2.46086 12.9124 2.08579C12.5373 1.71071 12.0286 1.5 11.4981 1.5ZM10.4981 4.5V3.5C10.4981 3.23478 10.6035 2.98043 10.791 2.79289C10.9786 2.60536 11.2329 2.5 11.4981 2.5C11.7634 2.5 12.0177 2.60536 12.2052 2.79289C12.3928 2.98043 12.4981 3.23478 12.4981 3.5V4.5H10.4981ZM13.4331 8.755C13.3897 8.67777 13.3266 8.61346 13.2501 8.56865C13.1737 8.52384 13.0867 8.50015 12.9981 8.5H9.99814C9.86553 8.5 9.73835 8.55268 9.64459 8.64645C9.55082 8.74021 9.49814 8.86739 9.49814 9C9.49814 9.13261 9.55082 9.25979 9.64459 9.35355C9.73835 9.44732 9.86553 9.5 9.99814 9.5H12.1131L9.56814 13.745C9.52313 13.8209 9.49902 13.9074 9.49825 13.9956C9.49747 14.0839 9.52008 14.1708 9.56375 14.2474C9.60743 14.3241 9.67062 14.3879 9.74692 14.4323C9.82321 14.4766 9.90989 14.5 9.99814 14.5H12.9981C13.1307 14.5 13.2579 14.4473 13.3517 14.3536C13.4455 14.2598 13.4981 14.1326 13.4981 14C13.4981 13.8674 13.4455 13.7402 13.3517 13.6464C13.2579 13.5527 13.1307 13.5 12.9981 13.5H10.8831L13.4281 9.255C13.4728 9.17943 13.4968 9.09344 13.4976 9.00567C13.4985 8.9179 13.4763 8.83145 13.4331 8.755Z"
            fill="#FF9D9D" />
    </g>
</svg>