<svg width="24" height="24" viewBox="0 0 24 24" fill="none" xmlns="http://www.w3.org/2000/svg">
    <path
        d="M3 11.2538C3.00151 11.448 3.07842 11.6341 3.2145 11.7728L3.219 11.7818L7.719 16.2818C7.86045 16.4184 8.0499 16.494 8.24655 16.4923C8.4432 16.4906 8.63131 16.4117 8.77036 16.2726C8.90942 16.1336 8.9883 15.9455 8.99001 15.7488C8.99171 15.5522 8.91612 15.3627 8.7795 15.2213L5.5605 12.0008H20.25C20.4489 12.0008 20.6397 11.9218 20.7803 11.7811C20.921 11.6405 21 11.4497 21 11.2508C21 11.0519 20.921 10.8611 20.7803 10.7204C20.6397 10.5798 20.4489 10.5008 20.25 10.5008H5.5605L8.7795 7.28178C8.91612 7.14032 8.99171 6.95087 8.99001 6.75423C8.9883 6.55758 8.90942 6.36947 8.77036 6.23041C8.63131 6.09136 8.4432 6.01248 8.24655 6.01077C8.0499 6.00906 7.86045 6.08466 7.719 6.22128L3.219 10.7213L3.2145 10.7288C3.14773 10.7964 3.09475 10.8764 3.0585 10.9643C3.01989 11.0549 2.99999 11.1523 3 11.2508V11.2538Z"
        fill="#222222" />
</svg>