<svg width="16" height="16" viewBox="0 0 16 16" fill="none" xmlns="http://www.w3.org/2000/svg">
<path d="M12.4688 3.19995H3.53015C2.75842 3.19995 2.13281 3.82556 2.13281 4.59728V12.4693C2.13281 13.241 2.75842 13.8666 3.53015 13.8666H12.4688C13.2405 13.8666 13.8661 13.241 13.8661 12.4693V4.59728C13.8661 3.82556 13.2405 3.19995 12.4688 3.19995Z" stroke="#8F3630" stroke-linecap="round" stroke-linejoin="round"/>
<path d="M4.79896 10.1333C5.09351 10.1333 5.33229 9.89454 5.33229 9.59998C5.33229 9.30543 5.09351 9.06665 4.79896 9.06665C4.50441 9.06665 4.26562 9.30543 4.26562 9.59998C4.26562 9.89454 4.50441 10.1333 4.79896 10.1333Z" fill="#8F3630"/>
<path d="M6.93177 10.1333C7.22632 10.1333 7.4651 9.89454 7.4651 9.59998C7.4651 9.30543 7.22632 9.06665 6.93177 9.06665C6.63722 9.06665 6.39844 9.30543 6.39844 9.59998C6.39844 9.89454 6.63722 10.1333 6.93177 10.1333Z" fill="#8F3630"/>
<path d="M9.06458 10.1333C9.35914 10.1333 9.59792 9.89454 9.59792 9.59998C9.59792 9.30543 9.35914 9.06665 9.06458 9.06665C8.77003 9.06665 8.53125 9.30543 8.53125 9.59998C8.53125 9.89454 8.77003 10.1333 9.06458 10.1333Z" fill="#8F3630"/>
<path d="M11.1974 10.1333C11.4919 10.1333 11.7307 9.89454 11.7307 9.59998C11.7307 9.30543 11.4919 9.06665 11.1974 9.06665C10.9028 9.06665 10.6641 9.30543 10.6641 9.59998C10.6641 9.89454 10.9028 10.1333 11.1974 10.1333Z" fill="#8F3630"/>
<path d="M9.06458 8.00002C9.35914 8.00002 9.59792 7.76123 9.59792 7.46668C9.59792 7.17213 9.35914 6.93335 9.06458 6.93335C8.77003 6.93335 8.53125 7.17213 8.53125 7.46668C8.53125 7.76123 8.77003 8.00002 9.06458 8.00002Z" fill="#8F3630"/>
<path d="M11.1974 8.00002C11.4919 8.00002 11.7307 7.76123 11.7307 7.46668C11.7307 7.17213 11.4919 6.93335 11.1974 6.93335C10.9028 6.93335 10.6641 7.17213 10.6641 7.46668C10.6641 7.76123 10.9028 8.00002 11.1974 8.00002Z" fill="#8F3630"/>
<path d="M4.79896 12.2666C5.09351 12.2666 5.33229 12.0278 5.33229 11.7333C5.33229 11.4387 5.09351 11.2 4.79896 11.2C4.50441 11.2 4.26562 11.4387 4.26562 11.7333C4.26562 12.0278 4.50441 12.2666 4.79896 12.2666Z" fill="#8F3630"/>
<path d="M6.93177 12.2666C7.22632 12.2666 7.4651 12.0278 7.4651 11.7333C7.4651 11.4387 7.22632 11.2 6.93177 11.2C6.63722 11.2 6.39844 11.4387 6.39844 11.7333C6.39844 12.0278 6.63722 12.2666 6.93177 12.2666Z" fill="#8F3630"/>
<path d="M9.06458 12.2666C9.35914 12.2666 9.59792 12.0278 9.59792 11.7333C9.59792 11.4387 9.35914 11.2 9.06458 11.2C8.77003 11.2 8.53125 11.4387 8.53125 11.7333C8.53125 12.0278 8.77003 12.2666 9.06458 12.2666Z" fill="#8F3630"/>
<path d="M5.33594 2.1333V4.79997M10.6693 2.1333V4.79997" stroke="#8F3630" stroke-linecap="round" stroke-linejoin="round"/>
</svg>
