<svg width="24" height="24" viewBox="0 0 24 24" fill="none" xmlns="http://www.w3.org/2000/svg">
    <mask id="mask0_109_1276" style="mask-type:luminance" maskUnits="userSpaceOnUse" x="0" y="0"
        width="24" height="24">
        <path d="M0 0H24V24H0V0Z" fill="white" />
    </mask>
    <g mask="url(#mask0_109_1276)">
        <path fill-rule="evenodd" clip-rule="evenodd"
            d="M9.17217 10.586C9.36077 10.7681 9.61337 10.8689 9.87557 10.8667C10.1378 10.8644 10.3886 10.7592 10.574 10.5738C10.7594 10.3884 10.8646 10.1376 10.8668 9.87539C10.8691 9.61319 10.7683 9.36059 10.5862 9.17198L6.63617 5.22199H8.46517C8.73038 5.22199 8.98474 5.11663 9.17227 4.92909C9.35981 4.74156 9.46517 4.4872 9.46517 4.22199C9.46517 3.95677 9.35981 3.70241 9.17227 3.51488C8.98474 3.32734 8.73038 3.22198 8.46517 3.22198H4.22217C3.95695 3.22198 3.7026 3.32734 3.51506 3.51488C3.32753 3.70241 3.22217 3.95677 3.22217 4.22199V8.46398C3.22217 8.7292 3.32753 8.98355 3.51506 9.17109C3.7026 9.35863 3.95695 9.46398 4.22217 9.46398C4.48738 9.46398 4.74174 9.35863 4.92927 9.17109C5.11681 8.98355 5.22217 8.7292 5.22217 8.46398V6.63599L9.17217 10.586ZM13.4152 13.414C13.2277 13.6015 13.1224 13.8558 13.1224 14.121C13.1224 14.3861 13.2277 14.6405 13.4152 14.828L17.3652 18.778H15.5362C15.271 18.778 15.0166 18.8833 14.8291 19.0709C14.6415 19.2584 14.5362 19.5128 14.5362 19.778C14.5362 20.0432 14.6415 20.2976 14.8291 20.4851C15.0166 20.6726 15.271 20.778 15.5362 20.778H19.7792C20.0444 20.778 20.2987 20.6726 20.4863 20.4851C20.6738 20.2976 20.7792 20.0432 20.7792 19.778V15.536C20.7792 15.2708 20.6738 15.0164 20.4863 14.8289C20.2987 14.6413 20.0444 14.536 19.7792 14.536C19.514 14.536 19.2596 14.6413 19.0721 14.8289C18.8845 15.0164 18.7792 15.2708 18.7792 15.536V17.364L14.8292 13.414C14.6416 13.2265 14.3873 13.1212 14.1222 13.1212C13.857 13.1212 13.6027 13.2265 13.4152 13.414ZM10.5862 13.414C10.7736 13.6015 10.879 13.8558 10.879 14.121C10.879 14.3861 10.7736 14.6405 10.5862 14.828L6.63617 18.778H8.46517C8.73038 18.778 8.98474 18.8833 9.17227 19.0709C9.35981 19.2584 9.46517 19.5128 9.46517 19.778C9.46517 20.0432 9.35981 20.2976 9.17227 20.4851C8.98474 20.6726 8.73038 20.778 8.46517 20.778H4.22217C3.95695 20.778 3.7026 20.6726 3.51506 20.4851C3.32753 20.2976 3.22217 20.0432 3.22217 19.778V15.536C3.22217 15.2708 3.32753 15.0164 3.51506 14.8289C3.7026 14.6413 3.95695 14.536 4.22217 14.536C4.48738 14.536 4.74174 14.6413 4.92927 14.8289C5.11681 15.0164 5.22217 15.2708 5.22217 15.536V17.364L9.17217 13.414C9.3597 13.2265 9.614 13.1212 9.87917 13.1212C10.1443 13.1212 10.3986 13.2265 10.5862 13.414ZM13.4152 9.17198C13.3197 9.26423 13.2435 9.37458 13.1911 9.49658C13.1387 9.61858 13.1111 9.7498 13.1099 9.88258C13.1088 10.0154 13.1341 10.147 13.1843 10.2699C13.2346 10.3928 13.3089 10.5045 13.4028 10.5984C13.4967 10.6923 13.6083 10.7665 13.7312 10.8168C13.8541 10.8671 13.9858 10.8924 14.1186 10.8912C14.2513 10.8901 14.3826 10.8625 14.5046 10.8101C14.6266 10.7577 14.7369 10.6815 14.8292 10.586L18.7792 6.63599V8.46398C18.7792 8.7292 18.8845 8.98355 19.0721 9.17109C19.2596 9.35863 19.514 9.46398 19.7792 9.46398C20.0444 9.46398 20.2987 9.35863 20.4863 9.17109C20.6738 8.98355 20.7792 8.7292 20.7792 8.46398V4.22199C20.7792 3.95677 20.6738 3.70241 20.4863 3.51488C20.2987 3.32734 20.0444 3.22198 19.7792 3.22198H15.5362C15.271 3.22198 15.0166 3.32734 14.8291 3.51488C14.6415 3.70241 14.5362 3.95677 14.5362 4.22199C14.5362 4.4872 14.6415 4.74156 14.8291 4.92909C15.0166 5.11663 15.271 5.22199 15.5362 5.22199H17.3652L13.4152 9.17198Z"
            fill="#222222" stroke="white" stroke-width="0.4" />
    </g>
</svg>