<svg width="49" height="26" viewBox="0 0 49 26" fill="none" xmlns="http://www.w3.org/2000/svg">
<g filter="url(#filter0_i_1159_7452)">
<rect y="-0.000244141" width="49" height="26.0004" rx="13.0002" fill="#3A3A3A"/>
<path d="M5.55 12.97C5.55 12.23 5.68333 11.59 5.95 11.05C6.22333 10.51 6.61333 10.0933 7.12 9.8C7.62667 9.5 8.23 9.35 8.93 9.35C9.62333 9.35 10.2233 9.5 10.73 9.8C11.2367 10.0933 11.6267 10.51 11.9 11.05C12.18 11.59 12.32 12.2267 12.32 12.96C12.32 13.7 12.18 14.3433 11.9 14.89C11.6267 15.43 11.2367 15.85 10.73 16.15C10.2233 16.45 9.62333 16.6 8.93 16.6C8.23 16.6 7.62667 16.45 7.12 16.15C6.62 15.85 6.23333 15.43 5.96 14.89C5.68667 14.3433 5.55 13.7033 5.55 12.97ZM6.9 12.97C6.9 13.7633 7.07 14.3833 7.41 14.83C7.75 15.2767 8.25667 15.5 8.93 15.5C9.58333 15.5 10.0867 15.2767 10.44 14.83C10.7933 14.3833 10.97 13.7633 10.97 12.97C10.97 12.17 10.7933 11.55 10.44 11.11C10.0933 10.67 9.59 10.45 8.93 10.45C8.25667 10.45 7.75 10.67 7.41 11.11C7.07 11.55 6.9 12.17 6.9 12.97ZM13.6511 16.5V9.45H14.6211L18.7111 14.74H18.4511V9.45H19.6511V16.5H18.6811L14.6011 11.21H14.8511V16.5H13.6511Z" fill="white"/>
<g filter="url(#filter1_d_1159_7452)">
<circle cx="33" cy="12.9998" r="8" fill="white"/>
</g>
<path d="M33 7C31.8133 7 30.6533 7.35189 29.6666 8.01118C28.6799 8.67047 27.9109 9.60754 27.4567 10.7039C27.0026 11.8003 26.8838 13.0067 27.1153 14.1705C27.3468 15.3344 27.9182 16.4035 28.7574 17.2426C29.5965 18.0818 30.6656 18.6532 31.8295 18.8847C32.9933 19.1162 34.1997 18.9974 35.2961 18.5433C36.3925 18.0892 37.3295 17.3201 37.9888 16.3334C38.6481 15.3467 39 14.1867 39 13C39 11.4087 38.3679 9.88258 37.2426 8.75736C36.1174 7.63214 34.5913 7 33 7ZM33.5 18V8.025C34.7618 8.11439 35.9427 8.67868 36.805 9.60418C37.6672 10.5297 38.1467 11.7476 38.1467 13.0125C38.1467 14.2774 37.6672 15.4953 36.805 16.4208C35.9427 17.3463 34.7618 17.9106 33.5 18Z" fill="#777777"/>
</g>
<defs>
<filter id="filter0_i_1159_7452" x="0" y="-0.000244141" width="49" height="26.0002" filterUnits="userSpaceOnUse" color-interpolation-filters="sRGB">
<feFlood flood-opacity="0" result="BackgroundImageFix"/>
<feBlend mode="normal" in="SourceGraphic" in2="BackgroundImageFix" result="shape"/>
<feColorMatrix in="SourceAlpha" type="matrix" values="0 0 0 0 0 0 0 0 0 0 0 0 0 0 0 0 0 0 127 0" result="hardAlpha"/>
<feMorphology radius="1" operator="erode" in="SourceAlpha" result="effect1_innerShadow_1159_7452"/>
<feOffset/>
<feGaussianBlur stdDeviation="2"/>
<feComposite in2="hardAlpha" operator="arithmetic" k2="-1" k3="1"/>
<feColorMatrix type="matrix" values="0 0 0 0 0 0 0 0 0 0 0 0 0 0 0 0 0 0 0.12 0"/>
<feBlend mode="normal" in2="shape" result="effect1_innerShadow_1159_7452"/>
</filter>
<filter id="filter1_d_1159_7452" x="23" y="3.99976" width="20" height="20" filterUnits="userSpaceOnUse" color-interpolation-filters="sRGB">
<feFlood flood-opacity="0" result="BackgroundImageFix"/>
<feColorMatrix in="SourceAlpha" type="matrix" values="0 0 0 0 0 0 0 0 0 0 0 0 0 0 0 0 0 0 127 0" result="hardAlpha"/>
<feOffset dy="1"/>
<feGaussianBlur stdDeviation="1"/>
<feComposite in2="hardAlpha" operator="out"/>
<feColorMatrix type="matrix" values="0 0 0 0 0 0 0 0 0 0 0 0 0 0 0 0 0 0 0.25 0"/>
<feBlend mode="normal" in2="BackgroundImageFix" result="effect1_dropShadow_1159_7452"/>
<feBlend mode="normal" in="SourceGraphic" in2="effect1_dropShadow_1159_7452" result="shape"/>
</filter>
</defs>
</svg>
