<svg width="32" height="32" viewBox="0 0 32 32" fill="none" xmlns="http://www.w3.org/2000/svg">
<path d="M15.5614 18.4346C15.6247 18.4346 15.6866 18.4158 15.7393 18.3806C15.7919 18.3455 15.8329 18.2955 15.8572 18.237C15.8814 18.1785 15.8877 18.1141 15.8754 18.052C15.863 17.9899 15.8325 17.9328 15.7877 17.8881C15.743 17.8433 15.6859 17.8128 15.6238 17.8005C15.5617 17.7881 15.4973 17.7945 15.4388 17.8187C15.3804 17.843 15.3304 17.884 15.2952 17.9367C15.26 17.9893 15.2413 18.0512 15.2413 18.1145C15.2414 18.1994 15.2751 18.2808 15.3352 18.3408C15.3952 18.4008 15.4765 18.4345 15.5614 18.4346ZM17.4511 11.125C17.5159 11.125 17.579 11.1048 17.6317 11.0672C17.6626 11.0453 20.7672 8.88158 24.6317 9.60583C24.672 9.61339 24.7135 9.61293 24.7536 9.60448C24.7938 9.59603 24.8319 9.57975 24.8658 9.55657C24.8996 9.5334 24.9286 9.50378 24.951 9.4694C24.9734 9.43503 24.9889 9.39658 24.9964 9.35624C25.004 9.3159 25.0035 9.27447 24.9951 9.23432C24.9866 9.19416 24.9703 9.15606 24.9472 9.12219C24.924 9.08832 24.8944 9.05935 24.86 9.03693C24.8256 9.01451 24.7872 8.99908 24.7468 8.99152C20.624 8.21921 17.4048 10.4617 17.2698 10.5576C17.2157 10.596 17.1752 10.6506 17.1542 10.7135C17.1332 10.7764 17.1327 10.8444 17.1529 10.9076C17.1731 10.9707 17.2129 11.0259 17.2665 11.0649C17.3201 11.104 17.3847 11.1251 17.451 11.125H17.4511ZM24.7628 10.9778C21.2737 10.1363 17.8634 12.2159 17.72 12.3048C17.6851 12.3265 17.6548 12.3547 17.6308 12.3881C17.6069 12.4214 17.5897 12.4591 17.5804 12.4991C17.571 12.539 17.5696 12.5805 17.5762 12.621C17.5829 12.6615 17.5974 12.7003 17.619 12.7351C17.6407 12.77 17.6689 12.8003 17.7023 12.8243C17.7356 12.8482 17.7733 12.8654 17.8133 12.8747C17.8532 12.8841 17.8946 12.8855 17.9352 12.8789C17.9757 12.8723 18.0145 12.8577 18.0493 12.8361C18.0823 12.8156 21.3783 10.8044 24.6163 11.5855C24.6968 11.6049 24.7818 11.5916 24.8526 11.5483C24.9233 11.5051 24.9739 11.4355 24.9933 11.355C25.0128 11.2744 24.9994 11.1894 24.9561 11.1187C24.9129 11.048 24.8434 10.9973 24.7628 10.9779V10.9778ZM7.26184 9.60583C11.1126 8.88427 14.2248 11.041 14.2622 11.0673C14.3298 11.1141 14.4132 11.1324 14.4942 11.1181C14.5752 11.1039 14.6473 11.0582 14.6949 10.9912C14.7425 10.9241 14.7617 10.8409 14.7484 10.7598C14.7351 10.6786 14.6903 10.6059 14.6238 10.5576C14.4888 10.4617 11.2692 8.21915 7.14677 8.99152C7.10631 8.99894 7.06771 9.01428 7.03318 9.03665C6.99866 9.05902 6.96889 9.08799 6.94559 9.12189C6.92229 9.15579 6.90591 9.19397 6.89739 9.23421C6.88888 9.27446 6.88839 9.316 6.89597 9.35643C6.90354 9.39687 6.91902 9.43541 6.94153 9.46985C6.96403 9.50429 6.99312 9.53394 7.02711 9.55711C7.0611 9.58028 7.09933 9.59652 7.13961 9.60488C7.1799 9.61324 7.22143 9.61356 7.26184 9.60583ZM14.1736 12.3048C14.0298 12.2159 10.6203 10.1361 7.13084 10.9778C7.05026 10.9973 6.9807 11.0479 6.93745 11.1186C6.89421 11.1893 6.88082 11.2743 6.90024 11.3549C6.91966 11.4354 6.97029 11.505 7.041 11.5482C7.11171 11.5915 7.1967 11.6049 7.27727 11.5855C10.509 10.8061 13.8114 12.8158 13.8445 12.8361C13.9149 12.8784 13.9991 12.8913 14.0789 12.872C14.1587 12.8526 14.2277 12.8026 14.271 12.7328C14.3142 12.663 14.3283 12.579 14.31 12.4989C14.2918 12.4188 14.2428 12.3491 14.1736 12.3048Z" fill="#222222"/>
<path d="M30.5638 11.0261L28.6009 11.7975L28.1296 8.4938C28.1266 8.47352 28.1218 8.45358 28.115 8.43423C28.0414 8.22313 27.9058 8.03915 27.7259 7.90638C27.5461 7.77362 27.3303 7.69824 27.1069 7.69011L26.1381 7.65105C26.0617 7.54726 25.9648 7.46034 25.8533 7.39571C25.7418 7.33108 25.6182 7.29013 25.4901 7.27542C24.1267 7.14036 22.7516 7.18168 21.3988 7.39836C19.2129 7.7478 17.375 8.52036 15.9291 9.6938C14.4832 8.52023 12.6452 7.74767 10.4591 7.39805C9.10627 7.1814 7.73118 7.14008 6.36782 7.27511C6.23977 7.2898 6.11612 7.33074 6.00461 7.39537C5.89309 7.46 5.7961 7.54693 5.71969 7.65073L4.75132 7.6898C4.52791 7.69793 4.31215 7.7733 4.13228 7.90606C3.95241 8.03881 3.8168 8.22277 3.74319 8.43386C3.73639 8.45321 3.73149 8.47318 3.72857 8.49348L3.24588 11.8778L1.43613 11.1679C1.35316 11.135 1.26342 11.123 1.17473 11.1328C1.08605 11.1426 1.0011 11.1739 0.92729 11.2241C0.853481 11.2742 0.793048 11.3416 0.751255 11.4204C0.709462 11.4993 0.687576 11.5871 0.687503 11.6764V12.8959C0.687114 13.0056 0.719936 13.1129 0.781657 13.2036C0.843378 13.2944 0.931108 13.3643 1.03332 13.4042L5.54444 15.1948L2.92838 16.2051C2.77767 16.2631 2.64313 16.3566 2.53613 16.4775C2.42912 16.5985 2.35279 16.7434 2.31357 16.9L0.863566 22.511C0.843788 22.5871 0.842097 22.6667 0.858628 22.7435L1.02325 24.2974C1.02503 24.3137 1.02806 24.3299 1.03232 24.3459C1.05428 24.4267 1.09302 24.5019 1.14603 24.5668C1.19904 24.6316 1.26511 24.6845 1.33995 24.7221C1.41479 24.7597 1.4967 24.781 1.58035 24.7848C1.66401 24.7886 1.74752 24.7747 1.82544 24.744L15.8138 19.2276L29.8663 24.7642C29.9377 24.7924 30.0142 24.8051 30.0909 24.8017C30.1676 24.7983 30.2427 24.7787 30.3113 24.7443C30.38 24.7098 30.4405 24.6613 30.4891 24.6019C30.5377 24.5424 30.5732 24.4734 30.5933 24.3993L30.8879 23.308C30.9115 23.2206 30.9128 23.1287 30.8918 23.0406L29.7764 16.7125C29.7565 16.6 29.7096 16.4941 29.6397 16.4037C29.5698 16.3133 29.479 16.2413 29.3751 16.1938L26.651 14.9537L30.7123 13.3522C30.7843 13.3238 30.8496 13.2804 30.9037 13.225C30.9577 13.1695 30.9994 13.1032 31.026 13.0304C31.0317 13.0149 31.0361 12.9989 31.0393 12.9827L31.2884 11.6931C31.3182 11.5947 31.3197 11.4898 31.2926 11.3906C31.2656 11.2913 31.2111 11.2017 31.1355 11.1321C31.0598 11.0624 30.966 11.0154 30.8649 10.9966C30.7638 10.9778 30.6594 10.9879 30.5638 11.0257V11.0261ZM27.0816 8.31442C27.1753 8.31774 27.266 8.34794 27.343 8.40143C27.42 8.45491 27.4799 8.52942 27.5157 8.61605L28.0032 12.0325L26.4526 12.642C26.5514 12.5638 26.6238 12.4572 26.6602 12.3366C26.6965 12.216 26.695 12.0871 26.6559 11.9674L26.3021 8.28298L27.0816 8.31442ZM26.0843 12.7867L17.4041 16.1983L16.9573 15.578C19.7538 13.8991 23.2253 13.2943 25.1193 12.9644C25.5116 12.896 25.8329 12.84 26.0843 12.7867ZM25.4202 7.89623C25.4674 7.90163 25.5128 7.91778 25.5528 7.94343C25.5929 7.96909 25.6265 8.00357 25.6511 8.04423L26.0374 12.0677C26.0402 12.0968 26.0471 12.1254 26.0579 12.1526C25.8092 12.2098 25.4568 12.2714 25.0121 12.3487C23.0673 12.6874 19.4952 13.3099 16.5908 15.0692L16.5516 15.0149C16.5023 14.9293 16.4319 14.8579 16.347 14.8075L16.2495 10.2387C19.7336 7.3493 24.8427 7.8313 25.4202 7.89623ZM16.0549 15.3945L16.8038 16.4342L15.8318 16.8163L15.298 16.6069L16.0549 15.3945ZM5.81944 12.0784C5.81994 12.0749 5.82038 12.0712 5.82075 12.0677L6.20707 8.04417C6.23175 8.00349 6.26543 7.969 6.30552 7.94335C6.3456 7.91771 6.39103 7.90159 6.43832 7.89623C7.01625 7.83073 12.1403 7.3478 15.6249 10.2519L15.7225 14.8264C15.6361 14.8859 15.5675 14.9679 15.5243 15.0635C12.4606 13.263 8.868 12.673 6.91175 12.352C6.44732 12.2758 6.07713 12.215 5.818 12.1565C5.81524 12.1305 5.81573 12.1043 5.81944 12.0784ZM4.34244 8.61592C4.37822 8.52928 4.43818 8.45476 4.51516 8.40127C4.59214 8.34777 4.68288 8.31756 4.77657 8.31423L5.55625 8.28298L5.19907 12.0029C5.15069 12.3879 5.32694 12.6842 5.64907 12.7592C5.92882 12.8242 6.31782 12.888 6.80994 12.9687C8.72244 13.2825 12.2328 13.8589 15.1933 15.5941L14.7058 16.3747L3.84375 12.1125L4.34244 8.61592ZM1.3125 12.8426V11.7907L14.9769 17.1522L13.5667 17.7063L1.3125 12.8426ZM6.175 15.6212L6.4 15.5344L12.7154 18.0411L5.11669 21.0277L6.175 15.6212ZM5.48619 15.8875L4.42669 21.2989L3.7215 21.576L4.92832 16.1027L5.48619 15.8875ZM2.9195 17.0533C2.93432 16.9935 2.96333 16.9382 3.00406 16.8921C3.0448 16.8459 3.09606 16.8103 3.1535 16.7881L4.2285 16.3729L3.02082 21.8515L1.52825 22.4381L2.9195 17.0533ZM30.0133 24.1505L16.6663 18.8917L17.9883 18.3704L30.2661 23.2146L30.0133 24.1505ZM29.1155 16.7625C29.1272 16.7679 29.1375 16.7761 29.1454 16.7863C29.1533 16.7965 29.1587 16.8085 29.1609 16.8212L30.1625 22.5018L28.6488 21.9045L28.0079 16.2585L29.1155 16.7625ZM27.3446 15.9563L27.9903 21.6444L27.4756 21.4414L26.9306 15.7679L27.3446 15.9563ZM26.8229 21.1839L18.84 18.0345L25.8426 15.273L26.2739 15.4693L26.8229 21.1839ZM30.4404 12.7876L1.63619 24.1472L1.52625 23.1103L1.53719 23.1061L30.6582 11.6605L30.4404 12.7876Z" fill="#222222"/>
</svg>
