<svg width="24" height="24" viewBox="0 0 24 24" fill="none" xmlns="http://www.w3.org/2000/svg">
    <g id="download">
        <path id="Vector"
            d="M12 1C5.93241 1 1 5.9324 1 12C1 18.0628 5.93241 23 12 23C18.0632 23 23 18.0628 23 12C23 5.9324 18.0632 1 12 1ZM9.25352 12.8976C9.32482 12.7392 9.4819 12.6371 9.65568 12.6371H10.3403V6.29716C10.3403 6.05384 10.537 5.85716 10.7803 5.85716H13.2175C13.4608 5.85716 13.6575 6.05384 13.6575 6.29716V12.6371H14.3421C14.5155 12.6371 14.673 12.7392 14.7439 12.8972C14.8147 13.0556 14.7861 13.2408 14.6704 13.3702L12.3274 15.9952C12.2438 16.0889 12.1245 16.1422 11.9991 16.1422C11.8737 16.1422 11.7541 16.0889 11.6709 15.9952L9.32702 13.3702C9.21173 13.2408 9.1827 13.0556 9.25352 12.8976ZM16.7049 18.1402H7.29245C7.04957 18.1402 6.85245 17.9435 6.85245 17.7002C6.85245 17.4569 7.04957 17.2602 7.29245 17.2602H16.7049C16.9483 17.2602 17.1449 17.4569 17.1449 17.7002C17.1449 17.9435 16.9483 18.1402 16.7049 18.1402Z"
            fill="#389F56" />
    </g>
</svg>