<svg width="32" height="32" viewBox="0 0 32 32" fill="none" xmlns="http://www.w3.org/2000/svg">
<mask id="path-1-inside-1_2330_4319" fill="white">
<path fill-rule="evenodd" clip-rule="evenodd" d="M9.3165 1.18654C9.251 1.35779 9.24 1.94504 9.292 2.49154L9.38675 3.48504L6.506 3.55504L3.625 3.62504L3.555 6.52654L3.48475 9.42779L2.87075 9.31054C2.53325 9.24579 1.86175 9.26729 1.3785 9.35779L0.5 9.52279V15.8715C0.5 21.6563 0.63525 23.0425 1.1225 22.254C1.20875 22.1143 1.6385 22.0148 2.07725 22.033L2.875 22.0658L2 22.265C1.1795 22.4518 1.199 22.4615 2.3125 22.4178L3.5 22.3715V25.4065C3.5 28.97 3.2645 28.7413 6.9375 28.7465L9.25 28.75V29.95C9.25 30.61 9.385 31.285 9.55 31.45C9.76775 31.6678 11.6073 31.75 16.2572 31.75H22.6645L22.7195 30.3868L22.7747 29.0235L21.0748 28.9358C20.14 28.8875 21.3495 28.826 23.7625 28.799C26.783 28.7653 28.2435 28.6565 28.45 28.45C28.6473 28.2528 28.75 27.2 28.75 25.375C28.75 23.55 28.8527 22.4973 29.05 22.3C29.215 22.135 29.8055 22.017 30.3625 22.0375L31.375 22.075L30.25 22.258L29.125 22.4413L30.375 22.408L31.625 22.375L31.692 16.156C31.742 11.4985 31.6812 9.84329 31.4495 9.56429C31.2202 9.28804 30.8145 9.22529 29.8825 9.32179L28.625 9.45229L28.707 7.30729C28.7523 6.12779 28.719 4.78854 28.6332 4.33129L28.4772 3.50004H25.6138H22.75V2.25804V1.01604L16.093 0.945542C10.9565 0.891042 9.40875 0.946292 9.3165 1.18654ZM10.0197 2.14579C10.0317 2.43704 10.091 2.49629 10.1707 2.29704C10.243 2.11654 10.234 1.90079 10.151 1.81779C10.068 1.73479 10.009 1.88229 10.0197 2.14579ZM10.5 2.12504C10.5 2.41979 10.8472 2.50004 12.125 2.50004H13.75V3.62504V4.75004H9.25H4.75V9.26379V13.7775L3.5625 13.7013L2.375 13.625L2.3005 12.0625C2.25975 11.2033 2.119 10.5 1.988 10.5C1.84475 10.5 1.75 12.638 1.75 15.875C1.75 19.112 1.84475 21.25 1.988 21.25C2.119 21.25 2.25975 20.547 2.3005 19.6875L2.375 18.125H3.56025C4.278 18.125 4.7925 18.0018 4.86475 17.8125C4.9305 17.6408 4.86225 17.5 4.713 17.5C4.377 17.5 4.53925 14.296 4.888 14.0455C5.01825 13.9518 5.15675 13.4865 5.19525 13.0118C5.2725 12.0655 6.20775 10 6.559 10C6.68025 10 6.71475 9.89529 6.6355 9.76704C6.5565 9.63904 6.7435 9.35779 7.0515 9.14204C7.35925 8.92654 7.53475 8.75004 7.44125 8.75004C7.125 8.75004 9.6185 6.59554 10.5588 6.05654C11.7305 5.38479 13.345 4.94129 14.5625 4.95679C15.0782 4.96329 15.5 4.86329 15.5 4.73429C15.5 4.41504 16.4313 4.43629 16.6313 4.76029C16.7197 4.90329 17.002 4.95379 17.2588 4.87229C17.9588 4.65004 19.8047 5.20729 19.5845 5.57429C19.4472 5.80304 19.494 5.80229 19.781 5.57029C20.0855 5.32379 20.385 5.38629 21.342 5.89579C22.658 6.59629 23.0103 6.87429 24.6355 8.49554C25.2535 9.11179 25.7043 9.75879 25.6373 9.93304C25.5705 10.1073 25.6248 10.25 25.7577 10.25C25.891 10.25 26 10.4255 26 10.6398C26 10.854 26.102 10.9665 26.2267 10.8895C26.3512 10.8125 26.648 11.3683 26.8857 12.1248C27.1238 12.881 27.3593 13.5 27.4093 13.5C27.4592 13.5 27.5 11.5313 27.5 9.12504V4.75004H23.1555C18.337 4.75004 18.0642 4.66504 18.3727 3.26029C18.5378 2.50954 18.5597 2.50004 20.1448 2.50004C21.405 2.50004 21.75 2.41954 21.75 2.12504C21.75 1.80279 20.9583 1.75004 16.125 1.75004C11.2917 1.75004 10.5 1.80279 10.5 2.12504ZM27.8528 9.00004C27.8528 11.4063 27.8903 12.3908 27.9363 11.1875C27.982 9.98429 27.982 8.01554 27.9363 6.81254C27.8903 5.60929 27.8528 6.59379 27.8528 9.00004ZM13.5 6.08504C13.0188 6.25729 12.5125 6.42804 12.375 6.46454C12.2375 6.50104 11.5813 6.84479 10.9165 7.22854L9.708 7.92629L10.889 8.08829C12.7662 8.34554 13.2032 8.29104 13.3658 7.77904C13.448 7.52029 13.8503 6.95779 14.2598 6.52904C15.059 5.69279 14.8833 5.59004 13.5 6.08504ZM17.6917 6.12554C18.0033 6.35029 18.1828 6.65654 18.0905 6.80579C17.992 6.96529 18.0387 7.00554 18.204 6.90354C18.3738 6.79854 18.5478 6.97779 18.6425 7.35579C18.8435 8.15704 19.4148 8.32779 21.1623 8.10954C22.3188 7.96504 22.4853 7.88779 22.0972 7.67579C21.8375 7.53379 21.5688 7.34654 21.5 7.25954C21.2878 6.99079 18.6672 5.96179 17.875 5.83579L17.125 5.71654L17.6917 6.12554ZM15.1637 7.20729C14.5538 7.88104 14.6363 7.95154 15.873 7.81204C16.5503 7.73579 17.1367 7.80229 17.3507 7.97979C17.6235 8.20629 17.7485 8.20479 17.8913 7.97354C18.0093 7.78279 17.9715 7.73804 17.7887 7.85129C17.63 7.94929 17.5 7.91854 17.5 7.78254C17.5 7.33929 16.7272 6.75004 16.146 6.75004C15.8333 6.75004 15.3912 6.95579 15.1637 7.20729ZM13.5185 9.41604C10.559 10.6543 8.8565 13.1648 8.8965 16.2315C8.9175 17.8493 9.20875 18.721 10.3717 20.647C10.628 21.0718 11.037 21.5218 11.2808 21.647C11.5243 21.7725 12.2638 22.208 12.9242 22.615C13.972 23.2605 14.3638 23.3553 16 23.3593C18.2297 23.3645 19.6445 22.7968 21.1483 21.293C22.6898 19.7513 23.3055 18.2865 23.3055 16.1608C23.3055 13.1513 21.764 10.7885 19 9.56154C16.936 8.64529 15.4553 8.60579 13.5185 9.41604ZM9.47725 9.58654C8.9705 10.0335 8.874 10.2773 9.034 10.7095C9.233 11.2478 9.2625 11.2378 10.1952 10.3185C10.7877 9.73454 11.052 9.30504 10.8888 9.19129C10.4648 8.89604 10.166 8.97979 9.47725 9.58654ZM20.5627 9.35129C20.4858 9.47554 20.5568 9.49454 20.7205 9.39329C20.8998 9.28254 21.4235 9.61479 22.0385 10.2298C22.5998 10.7908 23.1017 11.25 23.1545 11.25C23.4977 11.25 23.15 9.99404 22.6875 9.56354C22.1215 9.03654 20.8372 8.90829 20.5627 9.35129ZM15.8068 9.81254C15.3445 10.38 14.7502 12.0483 14.9152 12.3153C15.0042 12.4593 14.9603 12.505 14.817 12.4165C14.674 12.328 14.5017 12.4665 14.4342 12.7243C14.3237 13.147 14.1838 13.1698 13.0035 12.9553C12.284 12.8245 11.5463 12.7748 11.364 12.8448C11.1815 12.9148 10.9827 12.8375 10.9225 12.6735C10.8385 12.4455 10.7343 12.4488 10.4812 12.6875C10.2242 12.93 10.2205 13 10.4648 13C10.6378 13 10.7107 13.111 10.627 13.2468C10.473 13.496 10.7592 13.94 11.5625 14.6983C11.803 14.9253 12 15.2585 12 15.4385C12 15.6185 12.1657 15.8293 12.3685 15.9073C12.6892 16.0303 12.6863 16.0995 12.3465 16.4393C12.1318 16.654 11.689 17.2525 11.363 17.769C11.037 18.2855 10.6532 18.7803 10.5103 18.8688C10.367 18.9573 10.25 19.1875 10.25 19.3803C10.25 19.662 10.5828 19.7008 11.9375 19.5775C12.8655 19.493 13.6625 19.3285 13.7083 19.2118C13.7542 19.0953 13.9698 19 14.1875 19C14.4052 19 14.5113 19.072 14.4233 19.16C14.3352 19.248 14.4302 19.6138 14.6345 19.9725C14.839 20.3315 15.1565 21.075 15.3405 21.625C15.7975 22.9918 16.311 23.0163 16.8752 21.6978C17.1278 21.1078 17.3435 20.5125 17.3547 20.375C17.4247 19.5115 19.16 19.166 21.1887 19.6115C22.0555 19.802 22.256 19.5238 21.6278 19.0023C21.423 18.8323 21.3172 18.5935 21.3925 18.4718C21.4678 18.3498 21.4075 18.25 21.2585 18.25C21.1095 18.25 20.879 17.9968 20.7463 17.6875C20.6135 17.3783 20.3385 16.8975 20.1348 16.6193C19.7935 16.1533 19.8412 16.0118 20.743 14.8203C22.0783 13.0563 22.1338 12.6 21 12.7095C20.5187 12.7563 20.0942 12.877 20.0565 12.978C20.0187 13.079 19.6405 13.1108 19.2162 13.0483C18.7907 12.986 18.3663 13.0618 18.27 13.2175C18.1728 13.375 17.7213 12.6148 17.25 11.5C16.785 10.4 16.3272 9.50004 16.233 9.50004C16.1385 9.50004 15.9468 9.64079 15.8068 9.81254ZM3.0775 11.125C3.07875 11.95 3.1255 12.2573 3.18125 11.808C3.23675 11.3588 3.23575 10.6838 3.17875 10.308C3.1215 9.93229 3.076 10.3 3.0775 11.125ZM7.3125 10.6815C7.003 11.1508 6.75 11.6393 6.75 11.7673C6.75 11.8953 6.63075 12 6.48525 12C6.33975 12 6.28275 12.1005 6.3585 12.2235C6.4345 12.3463 6.32875 12.849 6.12325 13.3405C5.918 13.8318 5.75 14.4235 5.75 14.6553C5.75 15.0228 5.80575 15.0135 6.1875 14.583C6.428 14.3115 6.9905 13.8763 7.4375 13.6158C8.3045 13.1103 8.36875 12.8183 8.044 10.8518L7.875 9.82829L7.3125 10.6815ZM1.83325 10.1668C1.925 10.2583 2.075 10.2583 2.16675 10.1668C2.25825 10.075 2.18325 10 2 10C1.81675 10 1.74175 10.075 1.83325 10.1668ZM24.0455 11.3193C24.03 12.9563 24.1822 13.5 24.6565 13.5C24.8843 13.5 24.9595 13.6218 24.8498 13.8125C24.7507 13.9845 24.7633 14.0403 24.8775 13.9365C24.9918 13.833 25.3472 13.92 25.6675 14.13C26.2257 14.4955 26.25 14.4845 26.25 13.8653C26.25 12.9965 25.0742 10.5575 24.51 10.2555C24.101 10.0365 24.0565 10.1383 24.0455 11.3193ZM29.9533 10.1708C30.1335 10.243 30.3492 10.234 30.4322 10.151C30.5152 10.068 30.3678 10.009 30.1042 10.0198C29.813 10.0318 29.7538 10.091 29.9533 10.1708ZM29.75 12.125V13.75H28.6378H27.5255L27.558 15.5625C27.5758 16.5593 27.5417 17.5308 27.4827 17.7213C27.4028 17.9785 27.6647 18.075 28.5 18.0963L29.625 18.125L29.6995 19.6875C29.755 20.8528 29.8662 21.25 30.137 21.25C30.443 21.25 30.5 20.4075 30.5 15.875C30.5 11.264 30.4468 10.5 30.125 10.5C29.8302 10.5 29.75 10.8473 29.75 12.125ZM30.8565 15.875C30.8568 18.9 30.8927 20.1033 30.9368 18.5488C30.9808 16.9943 30.9805 14.5193 30.9365 13.0488C30.8923 11.5783 30.8563 12.85 30.8565 15.875ZM15.9 11.8498C15.9737 12.042 15.912 12.2748 15.763 12.367C15.6137 12.4593 15.5565 12.6393 15.6357 12.7673C15.7148 12.8953 15.6415 13 15.473 13C15.3045 13 15.242 13.0753 15.334 13.1673C15.4257 13.2593 15.3327 13.5203 15.1272 13.7475C14.8305 14.0753 14.492 14.1273 13.4897 13.9988C12.748 13.9035 12.1635 13.938 12.0745 14.082C11.991 14.2168 12.047 14.2505 12.1987 14.1568C12.3512 14.0625 12.6103 14.2388 12.777 14.5503C12.943 14.8608 13.23 15.2658 13.4145 15.4503C13.8927 15.9285 13.8348 16.2878 13.125 17.25C12.7812 17.716 12.5 18.1605 12.5 18.2378C12.5 18.3153 13.009 18.3383 13.631 18.2888C14.7457 18.2 15.6342 18.5805 15.3575 19.0283C15.2823 19.1503 15.3585 19.25 15.527 19.25C15.6955 19.25 15.7622 19.321 15.6755 19.4078C15.5887 19.4948 15.6303 19.7765 15.7683 20.034C15.9713 20.4135 16.083 20.4428 16.3582 20.1885C16.5448 20.016 16.6485 19.7938 16.5882 19.6945C16.5282 19.5953 16.6717 19.2205 16.907 18.8615C17.2927 18.2728 17.4635 18.2168 18.6467 18.2918C19.5747 18.3508 19.8923 18.295 19.7315 18.102C19.6065 17.9518 19.5878 17.737 19.6898 17.6245C19.7915 17.512 19.7425 17.4958 19.5805 17.5885C19.4088 17.687 19.2192 17.5473 19.1262 17.2538C19.0382 16.9768 18.8615 16.75 18.7332 16.75C18.4345 16.75 18.4275 15.8243 18.7248 15.6405C18.8485 15.5643 19.169 15.1298 19.437 14.6755L19.9245 13.8493L18.7558 13.9993C17.4293 14.1695 17.1368 13.9723 16.4498 12.4453C16.053 11.5633 15.603 11.076 15.9 11.8498ZM24.4638 15.321C24.2443 17.309 24.7555 18.0703 25.4212 16.746C25.7272 16.1378 25.5437 15.508 24.8617 14.8263C24.6162 14.5805 24.5345 14.6825 24.4638 15.321ZM7.18525 15.1835C6.605 15.8248 6.6245 16.9153 7.222 17.235C7.61825 17.4473 7.71325 17.3873 7.81375 16.861C7.87975 16.5163 7.86325 15.8898 7.777 15.4685C7.62425 14.7213 7.60975 14.7143 7.18525 15.1835ZM24.0198 15.3958C24.0317 15.687 24.091 15.7463 24.1707 15.547C24.243 15.3665 24.234 15.1508 24.151 15.0678C24.068 14.9848 24.009 15.1323 24.0198 15.3958ZM26.7987 16.125C26.8037 16.5375 26.8598 16.676 26.9233 16.4328C26.9867 16.1895 26.9825 15.852 26.914 15.6828C26.8455 15.5135 26.7938 15.7125 26.7987 16.125ZM24.0198 16.8958C24.0317 17.187 24.091 17.2463 24.1707 17.047C24.243 16.8665 24.234 16.6508 24.151 16.5678C24.068 16.4848 24.009 16.6323 24.0198 16.8958ZM5.812 18.1153C5.8465 18.6013 5.966 18.9993 6.07725 18.9995C6.1885 18.9998 6.21 19.1125 6.125 19.25C6.04 19.3875 6.07175 19.5 6.19575 19.5C6.3195 19.5 6.55025 19.9318 6.70825 20.4593C6.86625 20.9868 7.2065 21.6615 7.464 21.9585L7.93225 22.4985L8.09125 21.3393C8.3535 19.4258 8.296 19.0483 7.714 18.8635C7.419 18.77 6.85625 18.3645 6.46325 17.9625L5.74875 17.2315L5.812 18.1153ZM25.6735 18.133C25.2878 18.4723 24.8173 18.75 24.628 18.75C24.4385 18.75 24.2273 18.9468 24.1585 19.1875C23.9585 19.8853 24.0375 22.25 24.2607 22.25C24.564 22.25 25.5 20.986 25.5 20.5765C25.5 20.3808 25.5885 20.275 25.6965 20.342C25.8045 20.4088 25.9095 20.2748 25.93 20.0443C25.9505 19.8135 26.072 19.147 26.2 18.5625C26.328 17.978 26.4198 17.5035 26.404 17.508C26.388 17.5123 26.0592 17.7935 25.6735 18.133ZM4.75825 22.9375L4.75 27.5L9.0625 27.483C12.3625 27.4703 13.2282 27.4033 12.75 27.1985C8.5825 25.4128 6.4735 23.3368 5.2685 19.8335L4.76675 18.375L4.75825 22.9375ZM27.8538 23C27.8538 25.5438 27.891 26.5843 27.9363 25.3125C27.9818 24.0405 27.9818 21.9593 27.9363 20.6875C27.891 19.4155 27.8538 20.4563 27.8538 23ZM26.98 19.9375C26.8102 20.4533 26.492 21.024 26.2733 21.206C26.0543 21.388 26.0157 21.4658 26.188 21.3785C26.36 21.2913 26.2703 21.6108 25.9885 22.0883C25.3618 23.1508 23.4818 25.315 23.3232 25.1568C23.26 25.0935 22.9928 25.2573 22.7292 25.5208C22.4657 25.7843 22.0812 26 21.875 26C21.6688 26 21.5 26.1193 21.5 26.2648C21.5 26.4103 21.397 26.466 21.2712 26.3883C21.1455 26.3105 21.0033 26.365 20.9552 26.5093C20.9072 26.6535 20.5557 26.8048 20.1742 26.8455C19.7927 26.8863 19.35 27.05 19.1903 27.2098C18.97 27.43 19.9355 27.5 23.2 27.5H27.5V23.25C27.5 20.9125 27.4525 19 27.3945 19C27.3363 19 27.1497 19.422 26.98 19.9375ZM3.075 20.5C3.075 21.2563 3.12175 21.5658 3.179 21.1875C3.23625 20.8093 3.23625 20.1908 3.179 19.8125C3.12175 19.4343 3.075 19.7438 3.075 20.5ZM9.11125 21.3905C9.05 21.5883 8.94775 21.9175 8.884 22.122C8.82025 22.3265 8.84825 22.4673 8.9465 22.4345C9.04475 22.4018 9.36975 22.6198 9.669 22.919C10.0195 23.2695 10.3972 23.4148 10.7315 23.3273C11.0167 23.2528 11.25 23.1618 11.25 23.1253C11.25 23.0888 10.7937 22.6025 10.2362 22.045C9.5145 21.3235 9.19025 21.1348 9.11125 21.3905ZM21.9375 22.0803C21.422 22.6143 21 23.0958 21 23.1505C21 23.2053 21.2812 23.25 21.625 23.25C22.369 23.25 23.25 22.4448 23.25 21.7648C23.25 20.9753 22.9307 21.052 21.9375 22.0803ZM19.308 24.228C18.996 24.584 18.4525 25.2398 18.1 25.6853L17.4592 26.4958L18.292 26.3303C19.2812 26.1338 21.6473 25.1188 21.8388 24.8088C21.9128 24.689 21.5575 24.442 21.0492 24.2603C20.541 24.0783 20.0688 23.8513 20 23.7555C19.9312 23.6595 19.6198 23.8723 19.308 24.228ZM9 24C9 24.1833 9.075 24.2583 9.16675 24.1668C9.25825 24.075 9.25825 23.925 9.16675 23.8333C9.075 23.7418 9 23.8168 9 24ZM11.5 24.03C11.5 24.1458 11.2375 24.3063 10.9167 24.387C10.5957 24.4675 10.3333 24.6945 10.3333 24.8918C10.3333 25.0888 10.3818 25.2018 10.4408 25.1425C10.4998 25.0835 11.1842 25.2918 11.9615 25.6053C14.2408 26.5248 14.9845 26.7273 15.1425 26.4718C15.222 26.343 15.1923 26.2685 15.0763 26.3063C14.643 26.4475 13.682 25.2878 13.856 24.834C13.9497 24.59 13.9452 24.4715 13.846 24.5708C13.7467 24.67 13.4878 24.5968 13.2703 24.4083C12.8048 24.0043 11.5 23.7255 11.5 24.03ZM14.8333 24.1668C14.925 24.2583 15.075 24.2583 15.1667 24.1668C15.2583 24.075 15.1833 24 15 24C14.8167 24 14.7417 24.075 14.8333 24.1668ZM15.7968 24.4518C14.5965 24.5393 14.489 24.974 15.5728 25.3573C16.2578 25.5993 17.5 25.2285 17.5 24.782C17.5 24.4538 17.0265 24.362 15.7968 24.4518ZM15.875 26.767C15.1868 26.9265 15.2125 26.9433 16.1875 26.9705C17.2472 27 17.5298 26.8975 16.9375 26.6985C16.7658 26.6408 16.2875 26.6715 15.875 26.767ZM9.25 27.7585L4.625 27.892L9.19525 27.946L13.7657 28L13.7067 28.875L13.6477 29.75H12.074C10.8415 29.75 10.5 29.8315 10.5 30.125C10.5 30.4458 11.3232 30.508 16.1875 30.5555L21.875 30.6108L16.125 30.75L10.375 30.8893L16.0208 30.9445C19.126 30.975 21.7295 30.9373 21.8062 30.8605C21.8827 30.7838 21.8885 30.5025 21.8188 30.2355C21.7115 29.8258 21.467 29.75 20.2515 29.75C18.613 29.75 18.135 29.3973 18.295 28.3068L18.3975 27.609L16.1362 27.617C14.8925 27.6215 11.7937 27.685 9.25 27.7585ZM20.7997 27.936C21.996 27.9818 24.021 27.982 25.2997 27.9365C26.5787 27.891 25.6 27.8535 23.125 27.8533C20.65 27.853 19.6038 27.8903 20.7997 27.936ZM11.25 28.75L9.625 28.9138L11.1728 28.9568C12.024 28.9805 12.79 28.8875 12.875 28.75C12.96 28.6125 12.9947 28.5195 12.9522 28.5433C12.9097 28.567 12.1438 28.66 11.25 28.75ZM10.0197 30.1458C10.0317 30.437 10.091 30.4963 10.1707 30.297C10.243 30.1165 10.234 29.9008 10.151 29.8178C10.068 29.7348 10.009 29.8823 10.0197 30.1458Z"/>
</mask>
<path fill-rule="evenodd" clip-rule="evenodd" d="M9.3165 1.18654C9.251 1.35779 9.24 1.94504 9.292 2.49154L9.38675 3.48504L6.506 3.55504L3.625 3.62504L3.555 6.52654L3.48475 9.42779L2.87075 9.31054C2.53325 9.24579 1.86175 9.26729 1.3785 9.35779L0.5 9.52279V15.8715C0.5 21.6563 0.63525 23.0425 1.1225 22.254C1.20875 22.1143 1.6385 22.0148 2.07725 22.033L2.875 22.0658L2 22.265C1.1795 22.4518 1.199 22.4615 2.3125 22.4178L3.5 22.3715V25.4065C3.5 28.97 3.2645 28.7413 6.9375 28.7465L9.25 28.75V29.95C9.25 30.61 9.385 31.285 9.55 31.45C9.76775 31.6678 11.6073 31.75 16.2572 31.75H22.6645L22.7195 30.3868L22.7747 29.0235L21.0748 28.9358C20.14 28.8875 21.3495 28.826 23.7625 28.799C26.783 28.7653 28.2435 28.6565 28.45 28.45C28.6473 28.2528 28.75 27.2 28.75 25.375C28.75 23.55 28.8527 22.4973 29.05 22.3C29.215 22.135 29.8055 22.017 30.3625 22.0375L31.375 22.075L30.25 22.258L29.125 22.4413L30.375 22.408L31.625 22.375L31.692 16.156C31.742 11.4985 31.6812 9.84329 31.4495 9.56429C31.2202 9.28804 30.8145 9.22529 29.8825 9.32179L28.625 9.45229L28.707 7.30729C28.7523 6.12779 28.719 4.78854 28.6332 4.33129L28.4772 3.50004H25.6138H22.75V2.25804V1.01604L16.093 0.945542C10.9565 0.891042 9.40875 0.946292 9.3165 1.18654ZM10.0197 2.14579C10.0317 2.43704 10.091 2.49629 10.1707 2.29704C10.243 2.11654 10.234 1.90079 10.151 1.81779C10.068 1.73479 10.009 1.88229 10.0197 2.14579ZM10.5 2.12504C10.5 2.41979 10.8472 2.50004 12.125 2.50004H13.75V3.62504V4.75004H9.25H4.75V9.26379V13.7775L3.5625 13.7013L2.375 13.625L2.3005 12.0625C2.25975 11.2033 2.119 10.5 1.988 10.5C1.84475 10.5 1.75 12.638 1.75 15.875C1.75 19.112 1.84475 21.25 1.988 21.25C2.119 21.25 2.25975 20.547 2.3005 19.6875L2.375 18.125H3.56025C4.278 18.125 4.7925 18.0018 4.86475 17.8125C4.9305 17.6408 4.86225 17.5 4.713 17.5C4.377 17.5 4.53925 14.296 4.888 14.0455C5.01825 13.9518 5.15675 13.4865 5.19525 13.0118C5.2725 12.0655 6.20775 10 6.559 10C6.68025 10 6.71475 9.89529 6.6355 9.76704C6.5565 9.63904 6.7435 9.35779 7.0515 9.14204C7.35925 8.92654 7.53475 8.75004 7.44125 8.75004C7.125 8.75004 9.6185 6.59554 10.5588 6.05654C11.7305 5.38479 13.345 4.94129 14.5625 4.95679C15.0782 4.96329 15.5 4.86329 15.5 4.73429C15.5 4.41504 16.4313 4.43629 16.6313 4.76029C16.7197 4.90329 17.002 4.95379 17.2588 4.87229C17.9588 4.65004 19.8047 5.20729 19.5845 5.57429C19.4472 5.80304 19.494 5.80229 19.781 5.57029C20.0855 5.32379 20.385 5.38629 21.342 5.89579C22.658 6.59629 23.0103 6.87429 24.6355 8.49554C25.2535 9.11179 25.7043 9.75879 25.6373 9.93304C25.5705 10.1073 25.6248 10.25 25.7577 10.25C25.891 10.25 26 10.4255 26 10.6398C26 10.854 26.102 10.9665 26.2267 10.8895C26.3512 10.8125 26.648 11.3683 26.8857 12.1248C27.1238 12.881 27.3593 13.5 27.4093 13.5C27.4592 13.5 27.5 11.5313 27.5 9.12504V4.75004H23.1555C18.337 4.75004 18.0642 4.66504 18.3727 3.26029C18.5378 2.50954 18.5597 2.50004 20.1448 2.50004C21.405 2.50004 21.75 2.41954 21.75 2.12504C21.75 1.80279 20.9583 1.75004 16.125 1.75004C11.2917 1.75004 10.5 1.80279 10.5 2.12504ZM27.8528 9.00004C27.8528 11.4063 27.8903 12.3908 27.9363 11.1875C27.982 9.98429 27.982 8.01554 27.9363 6.81254C27.8903 5.60929 27.8528 6.59379 27.8528 9.00004ZM13.5 6.08504C13.0188 6.25729 12.5125 6.42804 12.375 6.46454C12.2375 6.50104 11.5813 6.84479 10.9165 7.22854L9.708 7.92629L10.889 8.08829C12.7662 8.34554 13.2032 8.29104 13.3658 7.77904C13.448 7.52029 13.8503 6.95779 14.2598 6.52904C15.059 5.69279 14.8833 5.59004 13.5 6.08504ZM17.6917 6.12554C18.0033 6.35029 18.1828 6.65654 18.0905 6.80579C17.992 6.96529 18.0387 7.00554 18.204 6.90354C18.3738 6.79854 18.5478 6.97779 18.6425 7.35579C18.8435 8.15704 19.4148 8.32779 21.1623 8.10954C22.3188 7.96504 22.4853 7.88779 22.0972 7.67579C21.8375 7.53379 21.5688 7.34654 21.5 7.25954C21.2878 6.99079 18.6672 5.96179 17.875 5.83579L17.125 5.71654L17.6917 6.12554ZM15.1637 7.20729C14.5538 7.88104 14.6363 7.95154 15.873 7.81204C16.5503 7.73579 17.1367 7.80229 17.3507 7.97979C17.6235 8.20629 17.7485 8.20479 17.8913 7.97354C18.0093 7.78279 17.9715 7.73804 17.7887 7.85129C17.63 7.94929 17.5 7.91854 17.5 7.78254C17.5 7.33929 16.7272 6.75004 16.146 6.75004C15.8333 6.75004 15.3912 6.95579 15.1637 7.20729ZM13.5185 9.41604C10.559 10.6543 8.8565 13.1648 8.8965 16.2315C8.9175 17.8493 9.20875 18.721 10.3717 20.647C10.628 21.0718 11.037 21.5218 11.2808 21.647C11.5243 21.7725 12.2638 22.208 12.9242 22.615C13.972 23.2605 14.3638 23.3553 16 23.3593C18.2297 23.3645 19.6445 22.7968 21.1483 21.293C22.6898 19.7513 23.3055 18.2865 23.3055 16.1608C23.3055 13.1513 21.764 10.7885 19 9.56154C16.936 8.64529 15.4553 8.60579 13.5185 9.41604ZM9.47725 9.58654C8.9705 10.0335 8.874 10.2773 9.034 10.7095C9.233 11.2478 9.2625 11.2378 10.1952 10.3185C10.7877 9.73454 11.052 9.30504 10.8888 9.19129C10.4648 8.89604 10.166 8.97979 9.47725 9.58654ZM20.5627 9.35129C20.4858 9.47554 20.5568 9.49454 20.7205 9.39329C20.8998 9.28254 21.4235 9.61479 22.0385 10.2298C22.5998 10.7908 23.1017 11.25 23.1545 11.25C23.4977 11.25 23.15 9.99404 22.6875 9.56354C22.1215 9.03654 20.8372 8.90829 20.5627 9.35129ZM15.8068 9.81254C15.3445 10.38 14.7502 12.0483 14.9152 12.3153C15.0042 12.4593 14.9603 12.505 14.817 12.4165C14.674 12.328 14.5017 12.4665 14.4342 12.7243C14.3237 13.147 14.1838 13.1698 13.0035 12.9553C12.284 12.8245 11.5463 12.7748 11.364 12.8448C11.1815 12.9148 10.9827 12.8375 10.9225 12.6735C10.8385 12.4455 10.7343 12.4488 10.4812 12.6875C10.2242 12.93 10.2205 13 10.4648 13C10.6378 13 10.7107 13.111 10.627 13.2468C10.473 13.496 10.7592 13.94 11.5625 14.6983C11.803 14.9253 12 15.2585 12 15.4385C12 15.6185 12.1657 15.8293 12.3685 15.9073C12.6892 16.0303 12.6863 16.0995 12.3465 16.4393C12.1318 16.654 11.689 17.2525 11.363 17.769C11.037 18.2855 10.6532 18.7803 10.5103 18.8688C10.367 18.9573 10.25 19.1875 10.25 19.3803C10.25 19.662 10.5828 19.7008 11.9375 19.5775C12.8655 19.493 13.6625 19.3285 13.7083 19.2118C13.7542 19.0953 13.9698 19 14.1875 19C14.4052 19 14.5113 19.072 14.4233 19.16C14.3352 19.248 14.4302 19.6138 14.6345 19.9725C14.839 20.3315 15.1565 21.075 15.3405 21.625C15.7975 22.9918 16.311 23.0163 16.8752 21.6978C17.1278 21.1078 17.3435 20.5125 17.3547 20.375C17.4247 19.5115 19.16 19.166 21.1887 19.6115C22.0555 19.802 22.256 19.5238 21.6278 19.0023C21.423 18.8323 21.3172 18.5935 21.3925 18.4718C21.4678 18.3498 21.4075 18.25 21.2585 18.25C21.1095 18.25 20.879 17.9968 20.7463 17.6875C20.6135 17.3783 20.3385 16.8975 20.1348 16.6193C19.7935 16.1533 19.8412 16.0118 20.743 14.8203C22.0783 13.0563 22.1338 12.6 21 12.7095C20.5187 12.7563 20.0942 12.877 20.0565 12.978C20.0187 13.079 19.6405 13.1108 19.2162 13.0483C18.7907 12.986 18.3663 13.0618 18.27 13.2175C18.1728 13.375 17.7213 12.6148 17.25 11.5C16.785 10.4 16.3272 9.50004 16.233 9.50004C16.1385 9.50004 15.9468 9.64079 15.8068 9.81254ZM3.0775 11.125C3.07875 11.95 3.1255 12.2573 3.18125 11.808C3.23675 11.3588 3.23575 10.6838 3.17875 10.308C3.1215 9.93229 3.076 10.3 3.0775 11.125ZM7.3125 10.6815C7.003 11.1508 6.75 11.6393 6.75 11.7673C6.75 11.8953 6.63075 12 6.48525 12C6.33975 12 6.28275 12.1005 6.3585 12.2235C6.4345 12.3463 6.32875 12.849 6.12325 13.3405C5.918 13.8318 5.75 14.4235 5.75 14.6553C5.75 15.0228 5.80575 15.0135 6.1875 14.583C6.428 14.3115 6.9905 13.8763 7.4375 13.6158C8.3045 13.1103 8.36875 12.8183 8.044 10.8518L7.875 9.82829L7.3125 10.6815ZM1.83325 10.1668C1.925 10.2583 2.075 10.2583 2.16675 10.1668C2.25825 10.075 2.18325 10 2 10C1.81675 10 1.74175 10.075 1.83325 10.1668ZM24.0455 11.3193C24.03 12.9563 24.1822 13.5 24.6565 13.5C24.8843 13.5 24.9595 13.6218 24.8498 13.8125C24.7507 13.9845 24.7633 14.0403 24.8775 13.9365C24.9918 13.833 25.3472 13.92 25.6675 14.13C26.2257 14.4955 26.25 14.4845 26.25 13.8653C26.25 12.9965 25.0742 10.5575 24.51 10.2555C24.101 10.0365 24.0565 10.1383 24.0455 11.3193ZM29.9533 10.1708C30.1335 10.243 30.3492 10.234 30.4322 10.151C30.5152 10.068 30.3678 10.009 30.1042 10.0198C29.813 10.0318 29.7538 10.091 29.9533 10.1708ZM29.75 12.125V13.75H28.6378H27.5255L27.558 15.5625C27.5758 16.5593 27.5417 17.5308 27.4827 17.7213C27.4028 17.9785 27.6647 18.075 28.5 18.0963L29.625 18.125L29.6995 19.6875C29.755 20.8528 29.8662 21.25 30.137 21.25C30.443 21.25 30.5 20.4075 30.5 15.875C30.5 11.264 30.4468 10.5 30.125 10.5C29.8302 10.5 29.75 10.8473 29.75 12.125ZM30.8565 15.875C30.8568 18.9 30.8927 20.1033 30.9368 18.5488C30.9808 16.9943 30.9805 14.5193 30.9365 13.0488C30.8923 11.5783 30.8563 12.85 30.8565 15.875ZM15.9 11.8498C15.9737 12.042 15.912 12.2748 15.763 12.367C15.6137 12.4593 15.5565 12.6393 15.6357 12.7673C15.7148 12.8953 15.6415 13 15.473 13C15.3045 13 15.242 13.0753 15.334 13.1673C15.4257 13.2593 15.3327 13.5203 15.1272 13.7475C14.8305 14.0753 14.492 14.1273 13.4897 13.9988C12.748 13.9035 12.1635 13.938 12.0745 14.082C11.991 14.2168 12.047 14.2505 12.1987 14.1568C12.3512 14.0625 12.6103 14.2388 12.777 14.5503C12.943 14.8608 13.23 15.2658 13.4145 15.4503C13.8927 15.9285 13.8348 16.2878 13.125 17.25C12.7812 17.716 12.5 18.1605 12.5 18.2378C12.5 18.3153 13.009 18.3383 13.631 18.2888C14.7457 18.2 15.6342 18.5805 15.3575 19.0283C15.2823 19.1503 15.3585 19.25 15.527 19.25C15.6955 19.25 15.7622 19.321 15.6755 19.4078C15.5887 19.4948 15.6303 19.7765 15.7683 20.034C15.9713 20.4135 16.083 20.4428 16.3582 20.1885C16.5448 20.016 16.6485 19.7938 16.5882 19.6945C16.5282 19.5953 16.6717 19.2205 16.907 18.8615C17.2927 18.2728 17.4635 18.2168 18.6467 18.2918C19.5747 18.3508 19.8923 18.295 19.7315 18.102C19.6065 17.9518 19.5878 17.737 19.6898 17.6245C19.7915 17.512 19.7425 17.4958 19.5805 17.5885C19.4088 17.687 19.2192 17.5473 19.1262 17.2538C19.0382 16.9768 18.8615 16.75 18.7332 16.75C18.4345 16.75 18.4275 15.8243 18.7248 15.6405C18.8485 15.5643 19.169 15.1298 19.437 14.6755L19.9245 13.8493L18.7558 13.9993C17.4293 14.1695 17.1368 13.9723 16.4498 12.4453C16.053 11.5633 15.603 11.076 15.9 11.8498ZM24.4638 15.321C24.2443 17.309 24.7555 18.0703 25.4212 16.746C25.7272 16.1378 25.5437 15.508 24.8617 14.8263C24.6162 14.5805 24.5345 14.6825 24.4638 15.321ZM7.18525 15.1835C6.605 15.8248 6.6245 16.9153 7.222 17.235C7.61825 17.4473 7.71325 17.3873 7.81375 16.861C7.87975 16.5163 7.86325 15.8898 7.777 15.4685C7.62425 14.7213 7.60975 14.7143 7.18525 15.1835ZM24.0198 15.3958C24.0317 15.687 24.091 15.7463 24.1707 15.547C24.243 15.3665 24.234 15.1508 24.151 15.0678C24.068 14.9848 24.009 15.1323 24.0198 15.3958ZM26.7987 16.125C26.8037 16.5375 26.8598 16.676 26.9233 16.4328C26.9867 16.1895 26.9825 15.852 26.914 15.6828C26.8455 15.5135 26.7938 15.7125 26.7987 16.125ZM24.0198 16.8958C24.0317 17.187 24.091 17.2463 24.1707 17.047C24.243 16.8665 24.234 16.6508 24.151 16.5678C24.068 16.4848 24.009 16.6323 24.0198 16.8958ZM5.812 18.1153C5.8465 18.6013 5.966 18.9993 6.07725 18.9995C6.1885 18.9998 6.21 19.1125 6.125 19.25C6.04 19.3875 6.07175 19.5 6.19575 19.5C6.3195 19.5 6.55025 19.9318 6.70825 20.4593C6.86625 20.9868 7.2065 21.6615 7.464 21.9585L7.93225 22.4985L8.09125 21.3393C8.3535 19.4258 8.296 19.0483 7.714 18.8635C7.419 18.77 6.85625 18.3645 6.46325 17.9625L5.74875 17.2315L5.812 18.1153ZM25.6735 18.133C25.2878 18.4723 24.8173 18.75 24.628 18.75C24.4385 18.75 24.2273 18.9468 24.1585 19.1875C23.9585 19.8853 24.0375 22.25 24.2607 22.25C24.564 22.25 25.5 20.986 25.5 20.5765C25.5 20.3808 25.5885 20.275 25.6965 20.342C25.8045 20.4088 25.9095 20.2748 25.93 20.0443C25.9505 19.8135 26.072 19.147 26.2 18.5625C26.328 17.978 26.4198 17.5035 26.404 17.508C26.388 17.5123 26.0592 17.7935 25.6735 18.133ZM4.75825 22.9375L4.75 27.5L9.0625 27.483C12.3625 27.4703 13.2282 27.4033 12.75 27.1985C8.5825 25.4128 6.4735 23.3368 5.2685 19.8335L4.76675 18.375L4.75825 22.9375ZM27.8538 23C27.8538 25.5438 27.891 26.5843 27.9363 25.3125C27.9818 24.0405 27.9818 21.9593 27.9363 20.6875C27.891 19.4155 27.8538 20.4563 27.8538 23ZM26.98 19.9375C26.8102 20.4533 26.492 21.024 26.2733 21.206C26.0543 21.388 26.0157 21.4658 26.188 21.3785C26.36 21.2913 26.2703 21.6108 25.9885 22.0883C25.3618 23.1508 23.4818 25.315 23.3232 25.1568C23.26 25.0935 22.9928 25.2573 22.7292 25.5208C22.4657 25.7843 22.0812 26 21.875 26C21.6688 26 21.5 26.1193 21.5 26.2648C21.5 26.4103 21.397 26.466 21.2712 26.3883C21.1455 26.3105 21.0033 26.365 20.9552 26.5093C20.9072 26.6535 20.5557 26.8048 20.1742 26.8455C19.7927 26.8863 19.35 27.05 19.1903 27.2098C18.97 27.43 19.9355 27.5 23.2 27.5H27.5V23.25C27.5 20.9125 27.4525 19 27.3945 19C27.3363 19 27.1497 19.422 26.98 19.9375ZM3.075 20.5C3.075 21.2563 3.12175 21.5658 3.179 21.1875C3.23625 20.8093 3.23625 20.1908 3.179 19.8125C3.12175 19.4343 3.075 19.7438 3.075 20.5ZM9.11125 21.3905C9.05 21.5883 8.94775 21.9175 8.884 22.122C8.82025 22.3265 8.84825 22.4673 8.9465 22.4345C9.04475 22.4018 9.36975 22.6198 9.669 22.919C10.0195 23.2695 10.3972 23.4148 10.7315 23.3273C11.0167 23.2528 11.25 23.1618 11.25 23.1253C11.25 23.0888 10.7937 22.6025 10.2362 22.045C9.5145 21.3235 9.19025 21.1348 9.11125 21.3905ZM21.9375 22.0803C21.422 22.6143 21 23.0958 21 23.1505C21 23.2053 21.2812 23.25 21.625 23.25C22.369 23.25 23.25 22.4448 23.25 21.7648C23.25 20.9753 22.9307 21.052 21.9375 22.0803ZM19.308 24.228C18.996 24.584 18.4525 25.2398 18.1 25.6853L17.4592 26.4958L18.292 26.3303C19.2812 26.1338 21.6473 25.1188 21.8388 24.8088C21.9128 24.689 21.5575 24.442 21.0492 24.2603C20.541 24.0783 20.0688 23.8513 20 23.7555C19.9312 23.6595 19.6198 23.8723 19.308 24.228ZM9 24C9 24.1833 9.075 24.2583 9.16675 24.1668C9.25825 24.075 9.25825 23.925 9.16675 23.8333C9.075 23.7418 9 23.8168 9 24ZM11.5 24.03C11.5 24.1458 11.2375 24.3063 10.9167 24.387C10.5957 24.4675 10.3333 24.6945 10.3333 24.8918C10.3333 25.0888 10.3818 25.2018 10.4408 25.1425C10.4998 25.0835 11.1842 25.2918 11.9615 25.6053C14.2408 26.5248 14.9845 26.7273 15.1425 26.4718C15.222 26.343 15.1923 26.2685 15.0763 26.3063C14.643 26.4475 13.682 25.2878 13.856 24.834C13.9497 24.59 13.9452 24.4715 13.846 24.5708C13.7467 24.67 13.4878 24.5968 13.2703 24.4083C12.8048 24.0043 11.5 23.7255 11.5 24.03ZM14.8333 24.1668C14.925 24.2583 15.075 24.2583 15.1667 24.1668C15.2583 24.075 15.1833 24 15 24C14.8167 24 14.7417 24.075 14.8333 24.1668ZM15.7968 24.4518C14.5965 24.5393 14.489 24.974 15.5728 25.3573C16.2578 25.5993 17.5 25.2285 17.5 24.782C17.5 24.4538 17.0265 24.362 15.7968 24.4518ZM15.875 26.767C15.1868 26.9265 15.2125 26.9433 16.1875 26.9705C17.2472 27 17.5298 26.8975 16.9375 26.6985C16.7658 26.6408 16.2875 26.6715 15.875 26.767ZM9.25 27.7585L4.625 27.892L9.19525 27.946L13.7657 28L13.7067 28.875L13.6477 29.75H12.074C10.8415 29.75 10.5 29.8315 10.5 30.125C10.5 30.4458 11.3232 30.508 16.1875 30.5555L21.875 30.6108L16.125 30.75L10.375 30.8893L16.0208 30.9445C19.126 30.975 21.7295 30.9373 21.8062 30.8605C21.8827 30.7838 21.8885 30.5025 21.8188 30.2355C21.7115 29.8258 21.467 29.75 20.2515 29.75C18.613 29.75 18.135 29.3973 18.295 28.3068L18.3975 27.609L16.1362 27.617C14.8925 27.6215 11.7937 27.685 9.25 27.7585ZM20.7997 27.936C21.996 27.9818 24.021 27.982 25.2997 27.9365C26.5787 27.891 25.6 27.8535 23.125 27.8533C20.65 27.853 19.6038 27.8903 20.7997 27.936ZM11.25 28.75L9.625 28.9138L11.1728 28.9568C12.024 28.9805 12.79 28.8875 12.875 28.75C12.96 28.6125 12.9947 28.5195 12.9522 28.5433C12.9097 28.567 12.1438 28.66 11.25 28.75ZM10.0197 30.1458C10.0317 30.437 10.091 30.4963 10.1707 30.297C10.243 30.1165 10.234 29.9008 10.151 29.8178C10.068 29.7348 10.009 29.8823 10.0197 30.1458Z" fill="#777777" stroke="white" stroke-width="0.2" mask="url(#path-1-inside-1_2330_4319)"/>
</svg>
