<svg width="32" height="32" viewBox="0 0 32 32" fill="none" xmlns="http://www.w3.org/2000/svg">
<path fill-rule="evenodd" clip-rule="evenodd" d="M26.7488 5.74996C26.7488 5.93321 26.8238 6.00821 26.9155 5.91671C27.007 5.82496 27.007 5.67496 26.9155 5.58321C26.8238 5.49171 26.7488 5.56671 26.7488 5.74996ZM21.2685 6.14571C21.2805 6.43696 21.3398 6.49621 21.4195 6.29696C21.4918 6.11646 21.4828 5.90071 21.3998 5.81771C21.3168 5.73471 21.2578 5.88221 21.2685 6.14571ZM27.332 7.66671C27.4238 7.75821 27.5738 7.75821 27.6655 7.66671C27.757 7.57496 27.682 7.49996 27.4988 7.49996C27.3155 7.49996 27.2405 7.57496 27.332 7.66671ZM29.582 8.41671C29.6738 8.50821 29.8238 8.50821 29.9155 8.41671C30.007 8.32496 29.932 8.24996 29.7488 8.24996C29.5655 8.24996 29.4905 8.32496 29.582 8.41671ZM18.4988 9.76471C18.4988 9.91021 18.6113 9.95996 18.7488 9.87496C18.8863 9.78996 18.9988 9.67096 18.9988 9.61021C18.9988 9.54946 18.8863 9.49996 18.7488 9.49996C18.6113 9.49996 18.4988 9.61921 18.4988 9.76471ZM20.332 11.4167C20.4238 11.5082 20.5738 11.5082 20.6655 11.4167C20.757 11.325 20.682 11.25 20.4988 11.25C20.3155 11.25 20.2405 11.325 20.332 11.4167ZM9.58201 12.4167C9.67376 12.5082 9.82376 12.5082 9.91551 12.4167C10.007 12.325 9.93201 12.25 9.74876 12.25C9.56551 12.25 9.49051 12.325 9.58201 12.4167ZM14.082 12.6667C14.1738 12.7582 14.3238 12.7582 14.4155 12.6667C14.507 12.575 14.432 12.5 14.2488 12.5C14.0655 12.5 13.9905 12.575 14.082 12.6667ZM13.4988 13.75C13.4988 13.9332 13.5738 14.0082 13.6655 13.9167C13.757 13.825 13.757 13.675 13.6655 13.5832C13.5738 13.4917 13.4988 13.5667 13.4988 13.75ZM27.7488 14C27.7488 14.1832 27.8238 14.2582 27.9155 14.1667C28.007 14.075 28.007 13.925 27.9155 13.8332C27.8238 13.7417 27.7488 13.8167 27.7488 14ZM29.832 14.1667C29.9238 14.2582 30.0738 14.2582 30.1655 14.1667C30.257 14.075 30.182 14 29.9988 14C29.8155 14 29.7405 14.075 29.832 14.1667ZM12.2488 15C12.2488 15.1832 12.3238 15.2582 12.4155 15.1667C12.507 15.075 12.507 14.925 12.4155 14.8332C12.3238 14.7417 12.2488 14.8167 12.2488 15ZM26.832 15.6667C26.9238 15.7582 27.0738 15.7582 27.1655 15.6667C27.257 15.575 27.182 15.5 26.9988 15.5C26.8155 15.5 26.7405 15.575 26.832 15.6667ZM1.74876 16.25C1.74876 16.4332 1.82376 16.5082 1.91551 16.4167C2.00701 16.325 2.00701 16.175 1.91551 16.0832C1.82376 15.9917 1.74876 16.0667 1.74876 16.25ZM0.59476 17.6105C0.51876 17.8085 0.50051 18.1742 0.55451 18.423C0.61551 18.7052 0.70101 18.5697 0.78226 18.0625C0.91826 17.211 0.83001 16.9977 0.59476 17.6105ZM1.34476 17.6105C1.26876 17.8085 1.25051 18.1742 1.30451 18.423C1.36551 18.7052 1.45101 18.5697 1.53226 18.0625C1.66826 17.211 1.58001 16.9977 1.34476 17.6105ZM27.082 18.4167C27.1738 18.5082 27.3238 18.5082 27.4155 18.4167C27.507 18.325 27.432 18.25 27.2488 18.25C27.0655 18.25 26.9905 18.325 27.082 18.4167ZM28.332 18.4167C28.4238 18.5082 28.5738 18.5082 28.6655 18.4167C28.757 18.325 28.682 18.25 28.4988 18.25C28.3155 18.25 28.2405 18.325 28.332 18.4167ZM29.4988 18.5C29.4988 18.6832 29.5738 18.7582 29.6655 18.6667C29.757 18.575 29.757 18.425 29.6655 18.3332C29.5738 18.2417 29.4988 18.3167 29.4988 18.5ZM13.8118 19.625C13.8145 20.175 13.8658 20.3705 13.9255 20.0595C13.9853 19.7485 13.983 19.2985 13.9205 19.0595C13.858 18.8205 13.809 19.075 13.8118 19.625ZM22.7488 22.5C22.7488 22.6832 22.8238 22.7582 22.9155 22.6667C23.007 22.575 23.007 22.425 22.9155 22.3332C22.8238 22.2417 22.7488 22.3167 22.7488 22.5ZM2.85001 23.7887C2.73926 23.9675 2.78126 24.0095 2.96001 23.8987C3.24826 23.7207 3.34701 23.5 3.13851 23.5C3.07776 23.5 2.94801 23.63 2.85001 23.7887ZM5.33201 23.6667C5.42376 23.7582 5.57376 23.7582 5.66551 23.6667C5.75701 23.575 5.68201 23.5 5.49876 23.5C5.31551 23.5 5.24051 23.575 5.33201 23.6667ZM26.832 23.6667C26.9238 23.7582 27.0738 23.7582 27.1655 23.6667C27.257 23.575 27.182 23.5 26.9988 23.5C26.8155 23.5 26.7405 23.575 26.832 23.6667ZM8.08201 23.9167C8.17376 24.0082 8.32376 24.0082 8.41551 23.9167C8.50701 23.825 8.43201 23.75 8.24876 23.75C8.06551 23.75 7.99051 23.825 8.08201 23.9167ZM15.6238 24.5C15.7088 24.6375 15.8345 24.75 15.9033 24.75C15.972 24.75 15.9588 24.6375 15.8738 24.5C15.7888 24.3625 15.663 24.25 15.5943 24.25C15.5255 24.25 15.5388 24.3625 15.6238 24.5ZM16.702 25.1707C16.8823 25.243 17.098 25.234 17.181 25.151C17.264 25.068 17.1165 25.009 16.853 25.0197C16.5618 25.0317 16.5025 25.091 16.702 25.1707ZM27.4988 25.25C27.2925 25.3832 27.2363 25.4922 27.3738 25.4922C27.5113 25.4922 27.7925 25.3832 27.9988 25.25C28.205 25.1167 28.2613 25.0077 28.1238 25.0077C27.9863 25.0077 27.705 25.1167 27.4988 25.25ZM3.49876 27C3.49876 27.1375 3.61126 27.25 3.74876 27.25C3.88626 27.25 3.99876 27.1375 3.99876 27C3.99876 26.8625 3.88626 26.75 3.74876 26.75C3.61126 26.75 3.49876 26.8625 3.49876 27ZM5.74876 27C5.74876 27.1375 5.97376 27.25 6.24876 27.25C6.52376 27.25 6.74876 27.1375 6.74876 27C6.74876 26.8625 6.52376 26.75 6.24876 26.75C5.97376 26.75 5.74876 26.8625 5.74876 27ZM15.3738 27.25C15.4588 27.3875 15.5778 27.5 15.6385 27.5C15.6993 27.5 15.7488 27.3875 15.7488 27.25C15.7488 27.1125 15.6295 27 15.484 27C15.3385 27 15.2888 27.1125 15.3738 27.25ZM16.3738 27.5C16.4588 27.6375 16.5845 27.75 16.6533 27.75C16.722 27.75 16.7088 27.6375 16.6238 27.5C16.5388 27.3625 16.413 27.25 16.3443 27.25C16.2755 27.25 16.2888 27.3625 16.3738 27.5ZM3.58201 27.6667C3.67376 27.7582 3.82376 27.7582 3.91551 27.6667C4.00701 27.575 3.93201 27.5 3.74876 27.5C3.56551 27.5 3.49051 27.575 3.58201 27.6667ZM5.93626 27.6655C6.10826 27.735 6.38951 27.735 6.56126 27.6655C6.73326 27.5962 6.59251 27.5395 6.24876 27.5395C5.90501 27.5395 5.76451 27.5962 5.93626 27.6655ZM18.1863 28.1765C18.4955 28.236 19.002 28.236 19.3113 28.1765C19.6205 28.1167 19.3675 28.068 18.7488 28.068C18.13 28.068 17.877 28.1167 18.1863 28.1765Z" fill="#686464"/>
<path fill-rule="evenodd" clip-rule="evenodd" d="M26.5842 4.119C25.9382 4.57175 22.5637 4.6855 21.8065 4.28025C21.5185 4.126 21.1602 4 21.0103 4C20.6033 4 20.1895 5.25075 20.4802 5.60125C20.9627 6.1825 20.3698 6.56425 19.2728 6.37875L18.2335 6.20325L18.2798 7.749C18.3108 8.77675 18.4388 9.338 18.6618 9.42375C18.8463 9.4945 18.9338 9.655 18.8563 9.78025C18.7788 9.9055 18.6065 9.941 18.4735 9.85875C18.021 9.579 16.2263 10.0462 15.7373 10.5712C15.4615 10.8675 15.25 11.447 15.25 11.9073C15.25 12.6033 15.1693 12.7105 14.6875 12.6532C14.3783 12.6163 13.9563 12.5218 13.75 12.4427C12.3247 11.8977 9.85625 11.4265 8.375 11.417C6.9795 11.4082 6.3285 11.5437 5.16075 12.0868C4.3555 12.4613 3.53125 12.9333 3.32875 13.1355C3.1265 13.3377 2.7605 13.6105 2.51525 13.7417C1.68525 14.186 0.6875 16.5765 0.6875 18.1208C0.6875 19.5487 1.38225 21.6022 1.782 21.3552C1.89875 21.283 1.93525 21.3775 1.86325 21.5653C1.79125 21.753 1.96125 22.1138 2.24125 22.367C2.521 22.6203 2.75 23.0417 2.75 23.3035C2.75 23.602 2.8665 23.7205 3.0625 23.6213C3.2345 23.5343 3.1565 23.64 2.88975 23.8565C2.62275 24.073 2.26125 24.25 2.086 24.25C1.6275 24.25 1.25 25.08 1.25 26.0882C1.25 26.8075 1.39675 27.0497 2.092 27.4795C3.0725 28.0858 5.82 28.1875 8.783 27.728C10.2965 27.493 10.5975 27.5107 10.98 27.857C11.2625 28.1125 12.1112 28.3137 13.3188 28.4112C15.145 28.5587 15.2368 28.54 15.8365 27.8927C16.3348 27.3552 16.5005 27.2917 16.667 27.574C16.7815 27.7682 17.1208 28.056 17.421 28.2135C18.1175 28.579 25.154 28.6075 25.3775 28.246C25.464 28.1063 25.623 28.0465 25.731 28.1133C25.839 28.18 26.1882 27.9568 26.5072 27.6173C26.9158 27.1825 27.3533 27 27.988 27C28.9458 27 30.1047 26.3717 29.8645 25.983C29.7852 25.8547 29.8275 25.75 29.9583 25.75C30.2825 25.75 30.5553 24.568 30.3675 23.976C30.184 23.3985 29.0142 22.75 28.1558 22.75C27.7675 22.75 27.5027 22.587 27.4457 22.3125C27.3267 21.7385 27.7817 20.448 28.2257 20.1005C28.4185 19.9495 28.4963 19.6962 28.3985 19.538C28.28 19.3463 28.4597 19.25 28.9357 19.25C29.59 19.25 29.6532 19.1708 29.6772 18.3178C29.7052 17.3328 29.21 16.1117 28.7157 15.947C28.153 15.7592 28.7062 14.5788 29.5135 14.2443C29.937 14.069 30.6135 13.636 31.0168 13.282C31.668 12.7107 31.75 12.478 31.75 11.203C31.75 9.9685 31.6712 9.72625 31.1875 9.47225C30.8783 9.31 30.535 9.02475 30.425 8.8385C30.315 8.65225 30.0553 8.5 29.8477 8.5C29.6402 8.5 29.539 8.389 29.623 8.25325C29.707 8.1175 29.5448 7.75875 29.2628 7.456C28.9808 7.1535 28.75 6.80775 28.75 6.688C28.75 6.5685 28.649 6.53275 28.5257 6.609C28.4025 6.68525 28.325 6.32625 28.3538 5.81125C28.408 4.838 27.9058 3.75 27.4018 3.75C27.242 3.75 26.874 3.916 26.5842 4.119ZM21.25 5.85875C21.25 6.442 21.2983 6.474 21.7507 6.1915C22.321 5.83525 22.2817 5.4135 21.6667 5.29425C21.3645 5.2355 21.25 5.39075 21.25 5.85875ZM23.4897 5.81375C23.278 5.985 22.7722 6.575 22.3662 7.125C21.9602 7.675 21.571 8.18125 21.5015 8.25C21.432 8.31875 21.346 8.7435 21.3107 9.194C21.225 10.2838 21.9995 11.7383 23.3577 13.0378C23.9683 13.622 24.4012 14.2075 24.3202 14.3387C24.2372 14.473 24.3057 14.495 24.4772 14.3892C24.6445 14.2857 24.9713 14.372 25.2033 14.581C25.4353 14.79 25.9335 15.038 26.3107 15.1322C26.688 15.2262 26.9255 15.4185 26.8385 15.559C26.7507 15.701 26.8353 15.764 27.0278 15.7008C27.2188 15.638 27.4105 15.2275 27.4538 14.7885C27.497 14.3495 27.6375 14.0555 27.7663 14.135C27.8948 14.2145 28 14.1113 28 13.9055C28 13.671 28.303 13.494 28.8125 13.4307L29.625 13.33L28.8125 13.29C28.2885 13.2642 28 13.1215 28 12.888C28 12.6277 28.3682 12.505 29.3125 12.4505L30.625 12.375L30.7017 11.3125C30.7572 10.5485 30.6838 10.25 30.4408 10.25C30.2547 10.25 29.6737 9.6875 29.1495 9C28.6252 8.3125 28.0677 7.73825 27.9105 7.724C27.7535 7.7095 27.067 7.69625 26.3853 7.6945C25.1978 7.69125 25.1448 7.7205 25.1353 8.386C25.1217 9.30825 24.5822 9.454 24.2097 8.63625C24.046 8.27725 23.735 8.00025 23.5185 8.0205C22.7585 8.092 22.5 7.99675 22.5 7.64475C22.5 7.21025 23.7812 6.897 24.555 7.1425C25.0527 7.3005 25.081 7.27375 24.789 6.922C24.285 6.3145 24.6605 6 25.8897 6C27.6092 6 27.1995 5.58375 25.4375 5.5405C24.5082 5.51775 23.719 5.6285 23.4897 5.81375ZM19.1175 8.1875C19.3205 9.001 19.942 9.75 20.4137 9.75C20.9685 9.75 20.8442 8.068 20.2665 7.75875C19.3515 7.269 18.9277 7.42725 19.1175 8.1875ZM27.6245 10.2507C27.4285 10.568 27.9627 11.3025 28.257 11.1208C28.3673 11.0525 28.5017 11.13 28.556 11.2928C28.6542 11.588 29.2535 11.3753 29.2463 11.0478C29.2323 10.414 27.9218 9.77 27.6245 10.2507ZM16.8057 11.1392C16.1158 11.6222 16.0938 12.484 16.75 13.3182C17.4495 14.2075 17.3853 14.5145 16.536 14.3448C15.7815 14.1938 15.7185 14.2665 15.2115 15.875C15.0815 16.2875 14.919 17.5813 14.8503 18.75C14.7818 19.9188 14.6852 21.072 14.636 21.3127C14.5868 21.5537 14.6345 21.6965 14.7417 21.63C14.849 21.5637 15.0085 22.05 15.0962 22.7108C15.2407 23.8013 15.973 25.3145 15.992 24.5625C15.997 24.3695 16.3585 24.25 16.9382 24.25C17.654 24.25 18.0422 24.4255 18.5745 24.9895C19.1655 25.6155 19.3678 25.6928 19.8935 25.493C20.2352 25.363 20.7645 25.2635 21.0697 25.2717C21.3752 25.2797 22.1595 25.229 22.8125 25.1588C23.4655 25.0883 23.9983 25.1082 23.9963 25.203C23.9855 25.6812 23.5103 26.0127 22.8557 25.9982C22.4537 25.9892 21.4953 26.114 20.7255 26.2757C19.501 26.533 19.1965 26.5125 18.288 26.1117C17.7173 25.86 17.25 25.5068 17.25 25.327C17.25 25.147 17.0812 25 16.875 25C16.6687 25 16.5 25.1192 16.5 25.2647C16.5 25.4102 16.3993 25.4673 16.2763 25.3913C16.153 25.315 15.9805 25.44 15.8927 25.669C15.7448 26.0543 16.1032 26.4872 16.5772 26.4963C16.6885 26.4983 16.6992 26.63 16.6012 26.7887C16.4882 26.9713 16.5328 27.0093 16.7222 26.892C16.8873 26.7903 17.2943 26.8853 17.6273 27.1035C18.1042 27.416 18.9465 27.5 21.6022 27.5C24.7385 27.5 25.017 27.461 25.6195 26.9375L26.267 26.375L25.1315 25.356C24.507 24.7958 23.9585 24.375 23.9123 24.4212C23.866 24.4672 23.6167 24.0258 23.3585 23.44C23.1003 22.8542 22.796 22.3088 22.6825 22.228C22.3805 22.0125 23.0935 21.4975 23.411 21.7017C23.559 21.797 23.8533 22.2127 24.0645 22.6255C24.276 23.0385 24.6692 23.5758 24.9385 23.8195C25.6178 24.434 25.9205 24.0107 26.3808 21.8032C26.5815 20.8397 26.8153 19.8713 26.8997 19.6507C26.995 19.4022 26.9223 19.25 26.7085 19.25C26.479 19.25 26.3503 18.9145 26.324 18.25C26.3022 17.7 26.3892 17.25 26.5173 17.25C26.6453 17.25 26.722 17.112 26.6875 16.9435C26.5863 16.447 26.105 16.036 25.4255 15.8652C25.0765 15.7778 24.4517 15.4065 24.0373 15.0405C23.6228 14.6745 23.079 14.196 22.8293 13.9773C21.963 13.219 20.6472 11.624 20.7087 11.4067C20.7428 11.2867 20.611 11.2498 20.4163 11.3245C20.2215 11.3993 19.754 11.3005 19.3775 11.1053C18.4835 10.6415 17.4977 10.6545 16.8057 11.1392ZM7.93325 12.5125C6.12025 12.7235 4.4145 13.4198 3.4635 14.337C2.43025 15.3335 1.73025 16.2658 1.859 16.4743C1.92775 16.5855 1.8225 16.8897 1.625 17.1507C1.4275 17.4115 1.27575 17.9062 1.2875 18.25C1.3075 18.8287 1.32425 18.8197 1.51225 18.125L1.7155 17.375L1.7075 18.25C1.703 18.7312 1.72475 19.2095 1.756 19.3125C1.787 19.4155 1.834 19.5845 1.86025 19.6875C2.04075 20.3962 2.8995 21.7062 3.458 22.125C4.225 22.7 6.69275 22.8162 7.307 22.3065C7.50725 22.1402 7.755 22.0878 7.85775 22.1898C7.9605 22.2915 7.97175 21.9813 7.88275 21.5C7.582 19.873 7.57575 19.6267 7.81275 18.75C8.0565 17.8488 9.387 16.3038 9.673 16.5895C9.7615 16.678 9.71225 17.146 9.564 17.6295C9.34 18.3595 9.36475 18.579 9.7095 18.924C10.3695 19.5837 10.2662 21.4298 9.5365 22.0208C9.21275 22.2827 8.82975 22.4242 8.68525 22.335C8.53025 22.2392 8.497 22.293 8.60425 22.4665C8.89725 22.9408 7.0495 23.5685 5.27375 23.5982C3.9235 23.6207 3.662 23.697 3.60525 24.0835C3.5345 24.5662 2.74475 25.2762 2.46875 25.1057C2.37975 25.0507 2.2425 25.2517 2.164 25.5522C1.9945 26.2 2.383 26.75 3.00975 26.75C3.2565 26.75 3.49575 26.8535 3.54175 26.98C3.59 27.113 4.072 27.1273 4.6875 27.0135C5.27175 26.9055 5.75 26.9145 5.75 27.0335C5.75 27.1525 5.975 27.25 6.25 27.25C6.525 27.25 6.75 27.1585 6.75 27.0467C6.75 26.9347 7.8345 26.7377 9.16 26.6087C11.5082 26.3802 11.5793 26.3888 11.9388 26.9373C12.2285 27.3792 12.5425 27.5 13.4038 27.5C14.0068 27.5 14.5 27.4085 14.5 27.2967C14.5 27.185 14.1908 26.8025 13.8125 26.4468C13.1665 25.839 12.9218 25.7898 9.75 25.6303C7.89375 25.537 6.287 25.3757 6.17925 25.272C5.8235 24.9295 6.29125 24.2025 6.78425 24.3315C7.04025 24.3982 7.3125 24.351 7.3895 24.2265C7.4665 24.102 7.6965 24 7.90075 24C8.10475 24 8.57525 23.7188 8.94575 23.375C9.654 22.7185 10.5 22.541 10.5 23.0487C10.5 23.2132 10.225 23.635 9.88875 23.9862L9.2775 24.625H10.8675C11.742 24.625 12.542 24.5408 12.6455 24.4375C12.7487 24.3345 12.7207 24.25 12.5833 24.25C12.4458 24.25 12.3193 24.1095 12.302 23.9375C12.2847 23.7658 12.1582 23.1187 12.0212 22.5C11.7017 21.059 11.7005 17.949 12.019 16.5C12.155 15.8813 12.2908 15.2063 12.3205 15C12.3505 14.7937 12.442 14.5688 12.524 14.5C12.765 14.298 13.0285 12.992 12.8177 13.0452C12.7118 13.072 12.1187 12.9955 11.5 12.8755C10.8813 12.7552 10.223 12.6855 10.0375 12.7203C9.85175 12.755 9.774 12.6635 9.86475 12.5168C9.95525 12.37 9.9385 12.2648 9.82725 12.2828C9.716 12.301 8.86375 12.4043 7.93325 12.5125ZM13.533 13.7905C13.649 14.3857 13.2087 16.6202 12.9432 16.7847C12.6297 16.9788 12.6775 21.6472 12.999 22.248C13.1212 22.4765 13.2665 22.936 13.3215 23.2693C13.5022 24.3605 13.98 25.25 14.3857 25.25C14.6847 25.25 14.7392 25.1103 14.605 24.6875C13.7835 22.1022 13.6815 18.5315 14.3425 15.5C14.5375 14.6062 14.6807 13.8608 14.661 13.8435C14.6413 13.8263 14.3647 13.732 14.0465 13.6342C13.6302 13.506 13.4862 13.55 13.533 13.7905ZM27.612 17.1875C27.5068 17.4283 27.4445 17.7272 27.4735 17.852C27.5025 17.977 27.4095 18.1512 27.2668 18.2395C27.124 18.3278 27.3995 18.4 27.8787 18.4C28.8295 18.4 28.8668 18.3398 28.5063 17.3913C28.2225 16.645 27.8832 16.5677 27.612 17.1875ZM8.541 20.0158C8.64275 21.0603 9.0955 21.3783 9.20025 20.4785C9.24325 20.107 9.10125 19.6877 8.866 19.4925C8.49875 19.1877 8.4655 19.2413 8.541 20.0158ZM26.6618 23.8695C26.5585 24.1382 26.8088 24.242 27.7005 24.2992C28.5443 24.3538 28.875 24.4805 28.875 24.75C28.875 24.9705 28.6733 25.107 28.3855 25.0815C28.116 25.0577 27.6763 25.1558 27.408 25.2992C26.9715 25.5327 26.9628 25.5843 27.3255 25.7873C28.1448 26.2458 29.5 25.4785 29.5 24.5565C29.5 23.9263 26.883 23.2927 26.6618 23.8695ZM15.375 27.25C15.46 27.3875 15.579 27.5 15.6397 27.5C15.7005 27.5 15.75 27.3875 15.75 27.25C15.75 27.1125 15.6308 27 15.4853 27C15.3398 27 15.29 27.1125 15.375 27.25ZM3.58325 27.6667C3.675 27.7582 3.825 27.7582 3.91675 27.6667C4.00825 27.575 3.93325 27.5 3.75 27.5C3.56675 27.5 3.49175 27.575 3.58325 27.6667ZM5.9375 27.6655C6.1095 27.735 6.39075 27.735 6.5625 27.6655C6.7345 27.5963 6.59375 27.5395 6.25 27.5395C5.90625 27.5395 5.76575 27.5963 5.9375 27.6655ZM18.1875 28.1765C18.4967 28.236 19.0033 28.236 19.3125 28.1765C19.6217 28.1168 19.3687 28.068 18.75 28.068C18.1313 28.068 17.8783 28.1168 18.1875 28.1765Z" fill="#777777"/>
</svg>
