<svg width="32" height="32" viewBox="0 0 32 32" fill="none" xmlns="http://www.w3.org/2000/svg">
<path fill-rule="evenodd" clip-rule="evenodd" d="M14.8341 1.01653C13.8901 1.29903 12.7804 2.53978 12.5814 3.53503C12.5026 3.92828 12.2931 4.25003 12.1154 4.25003C11.9379 4.25003 11.7434 4.39078 11.6836 4.56253C11.4704 5.17353 12.3149 7.39103 13.1514 8.41703C13.6186 8.99028 14.0009 9.58078 14.0009 9.72953C14.0009 9.87828 13.6036 10 13.1179 10C11.2654 10 9.46487 11.3515 9.12112 13C9.02062 13.4813 8.54087 14.6625 8.05512 15.625C7.56912 16.5875 6.40637 18.999 5.47113 20.9843C3.92463 24.267 3.69662 24.6173 2.94837 24.8593C2.34888 25.053 2.05512 25.3438 1.86487 25.9325C1.72113 26.3768 1.28863 27.0693 0.903375 27.4713L0.203125 28.2023L0.726875 28.726C1.01513 29.0143 1.45462 29.25 1.70387 29.25C1.95312 29.25 2.40313 29.5833 2.70438 29.9905C3.65287 31.2733 4.73612 31.377 8.03612 30.5005C15.9476 28.3993 15.7686 28.4333 17.2509 28.7455C18.0071 28.9045 20.2571 29.495 22.2509 30.0575C24.3754 30.657 26.3884 31.0753 27.1141 31.0683C28.2099 31.0578 28.4474 30.9525 29.1799 30.153C29.6351 29.6565 30.1749 29.25 30.3791 29.25C30.5836 29.25 30.9874 29.0135 31.2766 28.7243L31.8021 28.1988L30.9219 27.2868C30.4376 26.7853 30.0044 26.0938 29.9586 25.75C29.8981 25.2938 29.6489 25.0518 29.0354 24.8533C28.3219 24.6228 27.9866 24.207 26.8176 22.1033C25.5101 19.7505 23.4311 14.8233 23.0004 13.0568C22.8906 12.607 22.6121 11.9505 22.3814 11.5985C21.8834 10.8383 20.1864 10.0133 19.1051 10.0055C18.6811 10.0025 18.2689 9.93453 18.1889 9.85478C18.0489 9.71478 19.0821 8.02278 19.4706 7.75553C19.7609 7.55578 20.5009 5.55628 20.5009 4.97153C20.5009 4.66353 20.2981 4.40028 20.0009 4.32253C19.7184 4.24853 19.5009 3.98153 19.5009 3.70853C19.5009 1.82153 16.9876 0.372026 14.8341 1.01653ZM14.8296 1.85403C13.7579 2.33603 13.2496 3.40903 13.2564 5.17503C13.2631 6.93553 13.9061 8.47053 14.9479 9.21228C15.8909 9.88378 16.0561 9.88178 17.1186 9.18753C19.0999 7.89278 19.5176 3.69253 17.8161 2.17678C17.1304 1.56603 15.7914 1.42128 14.8296 1.85403ZM14.2919 4.38528L14.3146 5.52053L16.0719 5.44778L17.8289 5.37503L17.8789 4.31253L17.9286 3.25003H16.0989H14.2691L14.2919 4.38528ZM19.5206 5.39578C19.5326 5.68703 19.5919 5.74628 19.6716 5.54703C19.7439 5.36653 19.7349 5.15078 19.6519 5.06778C19.5689 4.98478 19.5099 5.13228 19.5206 5.39578ZM14.7509 10.5945C14.7509 11.2833 14.3276 11.4905 14.1051 10.9108C13.9184 10.4248 11.3804 11.0413 10.6174 11.758C9.78187 12.5428 9.60763 13.4775 10.2171 13.9045C10.6466 14.2053 10.6716 14.3445 10.4176 15.018C10.1786 15.651 10.0159 15.768 9.50138 15.677C8.93713 15.577 8.78487 15.7525 7.94562 17.4705C6.65088 20.121 6.62287 20.2263 7.11312 20.5848C7.47962 20.8528 7.49413 20.991 7.22013 21.5925C6.97863 22.1225 6.76737 22.2638 6.33787 22.1815C5.89213 22.0963 5.68787 22.2528 5.36987 22.9228C4.89262 23.9285 4.77362 25.0338 5.12887 25.1613C5.45937 25.2798 8.89237 19.4898 10.1474 16.6975C11.4979 13.6923 11.8751 13.739 12.0869 16.9375C12.1756 18.278 12.2489 20.1223 12.2496 21.0355C12.2509 22.628 12.2784 22.7028 12.9219 22.8643C13.7729 23.0778 18.2024 23.0845 19.0434 22.8733C19.6531 22.7203 19.6841 22.6195 19.8381 20.2945C19.9261 18.9638 19.9989 17.1158 19.9996 16.1875C20.0006 14.7473 20.0649 14.5003 20.4384 14.501C20.7251 14.5015 21.0426 14.9105 21.3601 15.6885C22.3931 18.2195 23.5541 20.4763 25.0899 22.938C26.4606 25.1355 26.7344 25.4463 27.0081 25.1163C27.2719 24.7983 27.2269 24.5163 26.7491 23.496C26.2614 22.455 26.0844 22.2823 25.6234 22.398C25.1856 22.5078 25.0106 22.3773 24.7486 21.7445C24.4771 21.0893 24.4781 20.9185 24.7544 20.7478C25.0216 20.5828 24.9594 20.2518 24.4411 19.0833C24.0854 18.2813 23.6561 17.153 23.4871 16.5758C23.2051 15.613 23.1231 15.538 22.4909 15.6645C21.8744 15.7878 21.7831 15.716 21.6219 14.982C21.4861 14.364 21.5416 14.0885 21.8464 13.8658C22.3749 13.4793 22.3556 13.05 21.7664 12.0835C21.3616 11.4198 21.0286 11.2348 19.7049 10.9393C18.2936 10.624 18.0931 10.6283 17.8174 10.9808C17.5439 11.3305 17.4919 11.3138 17.3559 10.832C17.2264 10.3725 17.0726 10.3103 16.3539 10.427C15.8464 10.5093 15.3536 10.439 15.1279 10.2518C14.8081 9.98628 14.7509 10.0383 14.7509 10.5945ZM15.3009 13.3C15.1359 13.465 15.0009 13.915 15.0009 14.3C15.0009 14.8333 14.8819 15 14.5009 15C14.1341 15 14.0009 15.1668 14.0009 15.625C14.0009 15.9688 14.1064 16.25 14.2351 16.25C14.3641 16.25 14.4056 16.6438 14.3274 17.125L14.1854 18H16.0931C17.9614 18 18.0009 17.987 18.0009 17.375C18.0009 17.0313 17.8884 16.75 17.7509 16.75C17.6134 16.75 17.5009 16.6375 17.5009 16.5C17.5009 16.3625 17.6696 16.25 17.8759 16.25C18.1091 16.25 18.2509 16.014 18.2509 15.625C18.2509 15.1668 18.1176 15 17.7509 15C17.4121 15 17.2509 14.8333 17.2509 14.4835C17.2509 13.2308 16.0806 12.5203 15.3009 13.3ZM15.9214 13.663C15.8276 13.7568 15.7509 14.2645 15.7509 14.7918C15.7509 15.3875 15.6326 15.7528 15.4384 15.7575C15.2666 15.7618 15.3344 15.8863 15.5891 16.0343C15.9124 16.2223 16.2141 16.225 16.5891 16.0438C16.8844 15.9008 16.9854 15.7763 16.8134 15.767C16.6319 15.757 16.4994 15.4095 16.4971 14.9375C16.4929 14.0543 16.1931 13.391 15.9214 13.663ZM10.4691 17.8763C10.1114 18.7005 8.91887 20.8508 7.81862 22.6548L5.81862 25.9343L8.75662 24.4048L11.6949 22.875L11.5721 20.875C11.5049 19.775 11.3754 18.313 11.2844 17.6263L11.1194 16.3775L10.4691 17.8763ZM20.6669 18.7375C20.5756 20.024 20.5009 21.5 20.5009 22.017V22.9573L23.2411 24.359L25.9814 25.7605L24.2356 22.9428C23.2754 21.393 22.2666 19.6188 21.9939 19C20.7249 16.1205 20.8509 16.1455 20.6669 18.7375ZM15.3759 17C15.2836 17.149 15.5866 17.25 16.1259 17.25C16.6651 17.25 16.9681 17.149 16.8759 17C16.7909 16.8625 16.4534 16.75 16.1259 16.75C15.7984 16.75 15.4609 16.8625 15.3759 17ZM8.66187 25.2805C6.75662 26.2428 5.25013 27.0825 5.31388 27.1465C5.37788 27.2103 7.10538 26.9893 9.15313 26.655C15.7496 25.5785 17.4614 25.396 18.0721 25.705C18.6866 26.0155 26.5091 27.325 26.6871 27.1473C26.7489 27.0855 26.3666 26.8125 25.8376 26.5408C20.5791 23.8385 19.8574 23.5118 19.4386 23.6448C18.8771 23.823 13.1716 23.833 12.5619 23.6568C12.3151 23.5855 10.6214 24.2908 8.66187 25.2805ZM2.81337 25.6655C2.64162 25.735 2.50087 26.0293 2.50087 26.3198C2.50087 26.61 2.20187 27.1598 1.83613 27.5415C1.26713 28.1355 1.23013 28.2578 1.57913 28.3915C2.57413 28.7735 4.95887 26.833 4.61062 25.9253C4.45312 25.5148 3.52087 25.38 2.81337 25.6655ZM27.4176 25.6668C26.5729 26.5113 29.4476 29.026 30.5084 28.3703C30.6981 28.253 30.5254 27.9163 29.9944 27.3685C29.5191 26.8778 29.2696 26.4218 29.3799 26.2438C29.4816 26.079 29.4099 25.846 29.2204 25.726C28.8124 25.4673 27.6549 25.4293 27.4176 25.6668ZM15.5009 26.387C14.6071 26.5673 12.5259 26.901 10.8759 27.1288C6.16563 27.7788 4.30613 28.1563 3.62963 28.5995C3.09013 28.953 3.04537 29.078 3.30737 29.4978C3.47487 29.766 3.90462 30.1065 4.26213 30.2548C4.93888 30.535 5.52538 30.41 14.0974 28.159C17.1589 27.3553 17.3824 27.33 18.5974 27.6538C20.8029 28.241 20.9466 28.0315 19.0479 26.9965C18.0424 26.4485 17.1986 26.0135 17.1729 26.0298C17.1469 26.0463 16.3946 26.207 15.5009 26.387ZM21.4534 28.201L21.5441 29.1518L24.4179 29.837C27.2311 30.5078 27.3081 30.5125 28.0639 30.0713C28.4884 29.8233 28.8771 29.4965 28.9276 29.345C29.1106 28.7955 27.6094 28.1725 25.0204 27.724C21.2606 27.0725 21.3446 27.0613 21.4534 28.201Z" fill="#777777"/>
</svg>
