<svg width="30" height="32" viewBox="0 0 30 32" fill="none" xmlns="http://www.w3.org/2000/svg">
<mask id="path-1-inside-1_2330_4359" fill="white">
<path fill-rule="evenodd" clip-rule="evenodd" d="M12.3475 0.276746C11.6447 0.391746 10.7448 0.620246 10.3475 0.784496C9.95 0.948746 9.56875 1.09475 9.5 1.109C8.998 1.21275 7.29625 2.37275 7.4 2.54025C7.47125 2.65575 7.3365 2.75 7.10075 2.75C6.58825 2.75 5.119 3.83125 4.25 4.84775C3.23025 6.04075 2.268 7.57675 2.40325 7.796C2.47275 7.90825 2.425 8 2.29725 8C1.94475 8 0.6905 11.7435 0.8185 12.4132C0.88025 12.736 0.83375 13 0.71525 13C0.597 13 0.5 13.675 0.5 14.5C0.5 15.325 0.6055 16 0.73425 16C0.86325 16 0.90475 16.3937 0.8265 16.875C0.7345 17.4427 0.78375 17.75 0.96725 17.75C1.12275 17.75 1.23025 17.8345 1.20575 17.9375C1.02075 18.7232 3.01575 23 3.5675 23C3.68425 23 3.71525 23.1037 3.637 23.2307C3.33325 23.722 7.3595 26.972 9.31475 27.8142C9.69425 27.9777 9.9725 28.2072 9.9335 28.3245C9.8945 28.4415 9.79825 28.501 9.71975 28.4562C9.641 28.4115 9.4065 28.5162 9.1985 28.689C8.8345 28.991 8.85675 30.25 9.226 30.25C9.31825 30.25 9.4115 30.4877 9.4335 30.7782C9.45525 31.0687 9.513 31.3462 9.56175 31.395C9.95175 31.785 16.7612 32.0082 18.601 31.6912C19.898 31.468 20.058 31.3665 20.5082 30.4837C21.0967 29.33 21.1305 28.7845 20.625 28.5905C20.0072 28.3535 20.1868 28.1605 21.7415 27.3897C24.4463 26.0495 27.239 23.106 28.3382 20.4375C28.5507 19.922 28.6603 19.5 28.5818 19.5C28.503 19.5 28.5788 19.3312 28.75 19.125C28.9212 18.9187 28.963 18.7482 28.843 18.7462C28.7233 18.744 28.7658 18.653 28.9375 18.5437C29.422 18.2362 29.7437 14.8785 29.493 12.75C29.3715 11.7187 29.267 10.784 29.261 10.6727C29.255 10.5615 29.1388 10.5392 29.0028 10.6232C28.8612 10.7107 28.8192 10.6105 28.9045 10.388C28.9865 10.1745 28.924 10 28.7658 10C28.6075 10 28.5098 9.8595 28.5485 9.6875C28.653 9.22299 27.74 6.97675 27.5055 7.12175C27.3943 7.19025 27.2265 6.94025 27.1325 6.56575C26.9387 5.79425 23.3363 2.16725 22.9813 2.3865C22.854 2.46525 22.75 2.43375 22.75 2.317C22.75 1.993 20.1125 0.728246 19.3223 0.673496C18.9388 0.646746 18.5655 0.545996 18.4925 0.449246C18.2838 0.172496 13.761 0.0454956 12.3475 0.276746ZM12.125 1.27625C11.575 1.41325 10.9335 1.54375 10.6995 1.56625C10.4653 1.58875 10.3275 1.66075 10.393 1.7265C10.4587 1.792 9.9675 2.07725 9.30175 2.36025C7.75 3.02 6.13775 4.269 4.87425 5.79C4.32475 6.45175 3.70625 6.99625 3.5 7.00025C3.20725 7.006 3.19625 7.05275 3.44925 7.2135C3.70975 7.3785 3.70025 7.48025 3.401 7.7285C3.05975 8.01175 2.236 10.233 1.90975 11.75C1.44975 13.8885 1.81275 17.6722 2.7015 20C2.83275 20.3437 2.9535 20.7095 2.97 20.8125C2.9865 20.9155 3.197 21.2085 3.4375 21.4635C3.678 21.7182 4.356 22.5445 4.94375 23.2995C5.53175 24.0545 6.291 24.8212 6.63125 25.0035C6.9715 25.1855 7.25 25.411 7.25 25.5042C7.25 25.5977 7.7 25.877 8.25 26.125C8.8 26.373 9.25 26.6467 9.25 26.7335C9.25 26.82 9.53125 26.9142 9.875 26.9427C11.0275 27.038 10.575 26.293 9 25.5022C8.38125 25.1915 7.66825 24.7545 7.41575 24.531C5.0765 22.4622 3.6135 20.2382 2.98925 17.8017C2.80025 17.0645 2.5135 16.5 2.32775 16.5C1.96025 16.5 1.8795 15.854 2.2205 15.6432C2.34175 15.5682 2.521 14.746 2.6185 13.816C2.83825 11.7252 3.42075 9.40325 3.754 9.29125C3.891 9.245 3.9395 9.1045 3.86175 8.97875C3.784 8.853 3.83975 8.75 3.98525 8.75C4.13075 8.75 4.22675 8.66549 4.1985 8.5625C4.08875 8.16224 5.01025 6.80725 6.247 5.551C7.35775 4.4225 11 2.21425 11 2.66925C11 2.74725 11.186 2.65675 11.4132 2.468C11.6895 2.23875 12.6625 2.10325 14.3507 2.05975C17.3073 1.98325 18.994 2.1815 18.4702 2.544C18.2225 2.71525 18.2792 2.7395 18.6715 2.62975C19.4437 2.41325 22.0322 3.77625 23.5562 5.20175C25.787 7.2885 27.3165 10.1007 27.2875 12.0625C27.284 12.3032 27.3865 12.5 27.5155 12.5C27.7725 12.5 27.8335 15.7875 27.5933 16.6847C27.5107 16.9925 27.326 17.172 27.183 17.0835C27.026 16.9865 26.9983 17.045 27.1133 17.231C27.3203 17.566 26.7965 19.75 26.5093 19.75C26.4125 19.75 26.332 19.8907 26.33 20.0625C26.3205 20.9952 22.7752 24.9495 22.2432 24.6207C22.1025 24.534 22.0185 24.5725 22.0562 24.7065C22.094 24.8405 22.0365 24.9572 21.9285 24.966C21.8205 24.975 21.5583 25.156 21.346 25.3682C21.1335 25.5807 20.8562 25.6907 20.7297 25.6125C20.467 25.45 20.4307 25.779 20.649 26.3475C20.7805 26.69 20.9095 26.6787 21.743 26.2535C22.2628 25.9885 22.7763 25.851 22.8843 25.9482C22.992 26.0455 23.0068 25.9967 22.9172 25.8397C22.8275 25.683 23.0065 25.3872 23.3148 25.1825C24.3758 24.4777 25.6273 23.0902 26.537 21.6095C27.668 19.7687 28.75 16.2927 28.75 14.5C28.75 12.749 27.679 9.245 26.61 7.5C25.8098 6.19325 23.25 3.25575 23.25 3.64425C23.25 3.745 23.048 3.64475 22.801 3.42125C22.3678 3.029 19.2665 1.51 18.5 1.31425C17.576 1.0785 13.028 1.0515 12.125 1.27625ZM14.9987 3.49825C15.2917 3.90975 15.4615 4.35975 15.376 4.49825C15.2877 4.641 15.4703 4.7415 15.7978 4.73025C16.1153 4.7195 16.2345 4.65375 16.0625 4.5845C15.639 4.4135 15.6685 3.879 16.1222 3.50225C16.6628 3.05375 16.3483 2.75 15.3433 2.75H14.466L14.9987 3.49825ZM10.9438 3.714C10.0193 4.0805 9.063 4.58 8.819 4.82375L8.3755 5.2675L9.13575 5.00225C9.554 4.8565 10.1727 4.788 10.5105 4.85C10.8485 4.912 11.2722 4.97125 11.4522 4.9815C11.6322 4.99175 11.7107 5.11125 11.6267 5.24725C11.5428 5.383 11.6275 5.43525 11.8153 5.36325C12.003 5.29125 12.3637 5.46125 12.617 5.74125C13.2007 6.38625 13.5 6.388 13.5 5.7465C13.5 5.46975 13.6342 5.028 13.7985 4.76525C14.1877 4.14175 13.7043 2.9895 13.0677 3.02375C12.8243 3.03675 11.8685 3.3475 10.9438 3.714ZM17.3708 3.61575C17.3043 3.82725 17.2008 4.1595 17.1408 4.35425C17.0808 4.54925 17.1933 4.77075 17.3908 4.8465C17.5883 4.92225 17.7517 5.18475 17.7537 5.42975C17.757 5.80875 17.7938 5.819 18 5.5C18.1332 5.29375 18.2458 5.2375 18.25 5.375C18.2542 5.5125 18.3585 5.4655 18.482 5.27075C18.706 4.91675 20.2825 4.8445 21.3665 5.1385C21.806 5.25775 21.79 5.20675 21.25 4.76325C20.9062 4.481 20.4865 4.13525 20.3175 3.99475C20.1482 3.8545 19.9482 3.754 19.8727 3.772C19.7975 3.79 19.4858 3.72425 19.1803 3.626C17.9685 3.236 17.4908 3.2335 17.3708 3.61575ZM7.02525 6.14975C6.5695 6.729 6.555 6.84075 6.891 7.17675C7.104 7.38975 7.4935 7.49475 7.7865 7.418C8.36725 7.266 9.634 8.33074 9.37375 8.752C9.285 8.89575 9.5485 9 10 9C10.456 9 10.7155 8.89625 10.625 8.75C10.54 8.6125 10.5053 8.49524 10.5478 8.48975C10.5903 8.484 11.3 8.41725 12.125 8.34125C12.95 8.265 13.6922 8.129 13.7747 8.039C13.857 7.94875 13.84 7.59375 13.737 7.25C13.634 6.90625 13.5387 6.75 13.525 6.90275C13.4987 7.19475 12.25 7.06925 12.25 6.77475C12.25 6.49575 10.915 5.80325 10.25 5.7375C9.90625 5.7035 9.437 5.75725 9.207 5.857C8.97725 5.95675 8.56275 5.91725 8.286 5.76925C7.60975 5.4075 7.609 5.40775 7.02525 6.14975ZM18.7778 6.1465C18.4615 6.54875 18.1485 6.72175 17.9475 6.606C17.7703 6.5035 17.704 6.5075 17.8005 6.61475C17.8973 6.72175 17.8005 6.98525 17.5858 7.2C17.2318 7.554 17.2852 7.6175 18.16 7.88025C18.6908 8.0395 19.676 8.42325 20.3493 8.733C21.2155 9.13124 21.8003 9.24774 22.3493 9.13099C22.776 9.04025 23.5837 8.967 24.1448 8.96825C24.9967 8.97025 25.1585 8.89175 25.129 8.4905C25.1095 8.22625 24.9983 7.9235 24.8818 7.8175C24.7652 7.71175 24.7565 7.79375 24.8622 8C25.0798 8.4235 23.938 7.16325 23.3515 6.33225C23.016 5.857 22.8045 5.80625 21.6502 5.9255C20.883 6.0045 20.1133 5.9445 19.8088 5.7815C19.3645 5.54375 19.2083 5.599 18.7778 6.1465ZM14.6587 6.12725C14.488 6.57225 14.9075 7.78825 15.3197 8.043C15.6823 8.267 16.2357 7.82025 16.519 7.075C16.853 6.19675 16.5515 5.75 15.625 5.75C15.1233 5.75 14.7472 5.89675 14.6587 6.12725ZM5.28675 8.30925C4.828 9.03374 4.816 9.142 5.172 9.34125C5.39075 9.46375 6.06025 9.60925 6.66 9.66475C7.622 9.75375 7.75 9.70599 7.75 9.25774C7.75 8.865 7.587 8.75 7.0305 8.75C6.26075 8.75 5.603 8.19025 5.86825 7.761C5.957 7.6175 5.97775 7.5 5.91425 7.5C5.851 7.5 5.5685 7.86424 5.28675 8.30925ZM16.8333 8.91675C16.925 9.00825 17.075 9.00825 17.1667 8.91675C17.2582 8.825 17.1833 8.75 17 8.75C16.8167 8.75 16.7418 8.825 16.8333 8.91675ZM18.391 9.17675C18.2555 9.533 18.284 9.56174 18.531 9.31674C18.702 9.14699 18.7787 8.94524 18.7017 8.86849C18.6248 8.7915 18.485 8.93025 18.391 9.17675ZM12 9.25C12 9.43325 12.075 9.50825 12.1667 9.41675C12.2583 9.325 12.2583 9.175 12.1667 9.08325C12.075 8.99174 12 9.06674 12 9.25ZM15.2805 9.33825C15.015 9.65825 15.136 10 15.515 10C15.7952 10 16.0048 9.2825 15.7675 9.13575C15.6515 9.064 15.4325 9.15525 15.2805 9.33825ZM19.1127 9.27C19.021 9.4185 19.1847 9.70749 19.477 9.91199C19.7692 10.1167 19.9328 10.4065 19.8405 10.5557C19.7437 10.7125 19.7882 10.7557 19.946 10.6582C20.0962 10.5655 20.3388 10.6887 20.4845 10.9322C20.7305 11.3425 20.789 11.329 21.2803 10.75L21.8107 10.125L21.218 10.0507C20.2785 9.93349 19.2435 9.46274 19.393 9.22099C19.468 9.09949 19.4732 9 19.4045 9C19.3357 9 19.2045 9.1215 19.1127 9.27ZM16.5625 9.42225C16.8032 9.48524 17 9.70075 17 9.90125C17 10.3072 16.5535 10.5347 15.65 10.589C15.3187 10.6087 15.105 10.7172 15.1747 10.8302C15.3475 11.1102 17.2728 10.763 17.6525 10.383C17.895 10.1407 17.858 9.9895 17.4767 9.66325C17.2115 9.436 16.7987 9.263 16.5597 9.279L16.125 9.30799L16.5625 9.42225ZM13.3542 9.9665C13.4788 10.1677 14.75 10.058 14.75 9.84575C14.75 9.79325 14.4058 9.75 13.9853 9.75C13.5648 9.75 13.2808 9.8475 13.3542 9.9665ZM4.0025 10.9472C3.59675 12.3642 3.41075 14.6652 3.688 14.8367C4.057 15.0647 6 14.0415 6 13.6192C6 13.416 6.1125 13.25 6.25 13.25C6.3875 13.25 6.5 13.0992 6.5 12.9152C6.5 12.731 6.78125 12.452 7.125 12.2955C7.591 12.0832 7.75 11.8185 7.75 11.2552V10.5H6.64125C6.0315 10.5 5.248 10.3917 4.90025 10.2597C4.31425 10.0367 4.24875 10.087 4.0025 10.9472ZM11.75 10.375L11.125 10.7322L11.782 10.7412C12.1432 10.746 12.5787 10.5812 12.75 10.375C13.164 9.876 12.6228 9.876 11.75 10.375ZM24.6182 10.4302C23.8015 10.5057 23.5537 10.6545 23.3037 11.2192C22.902 12.1267 21.294 14.0002 20.918 13.999C20.7568 13.9982 20.0357 13.5512 19.3158 13.0052L18.0065 12.0125L17.856 12.6115C17.621 13.548 17.83 14.1177 18.44 14.205C18.748 14.2487 19 14.396 19 14.5322C19 14.6682 19.0993 14.7182 19.2205 14.6432C19.5423 14.4445 20.6998 15.4277 21.1353 16.2697C21.6145 17.1965 22.5725 17.8232 23.5823 17.8702C24.0183 17.8905 24.6938 18.0415 25.0835 18.2055C25.4732 18.3695 25.8822 18.4477 25.9928 18.3795C26.2362 18.229 26.6035 16.5447 26.525 15.9375C26.494 15.697 26.5882 15.5 26.7342 15.5C26.8805 15.5 27 15.05 27 14.5C27 13.95 26.8795 13.5 26.732 13.5C26.5848 13.5 26.491 13.2467 26.5238 12.9375C26.5965 12.2467 26.0478 10.2335 25.8027 10.2937C25.705 10.3177 25.172 10.3792 24.6182 10.4302ZM18.812 10.7065C18.5833 10.8515 18.7015 11.0995 19.2495 11.6245C19.6623 12.02 20 12.209 20 12.0442C20 11.8797 19.7808 11.5575 19.5128 11.328C19.2448 11.0985 19.0828 10.8185 19.1525 10.7055C19.3105 10.45 19.2155 10.4502 18.812 10.7065ZM8.60125 11.0387C8.4905 11.2175 8.5325 11.2595 8.71125 11.1487C8.9995 10.9707 9.09825 10.75 8.88975 10.75C8.829 10.75 8.69925 10.88 8.60125 11.0387ZM14.625 11C14.71 11.1375 14.8357 11.25 14.9045 11.25C14.9733 11.25 14.96 11.1375 14.875 11C14.79 10.8625 14.6643 10.75 14.5955 10.75C14.5267 10.75 14.54 10.8625 14.625 11ZM11.396 11.6602C11.2642 12.0035 11.301 12.019 11.6193 11.7547C12.053 11.3947 12.0982 11.25 11.7767 11.25C11.654 11.25 11.4827 11.4347 11.396 11.6602ZM15.0625 11.9307C14.2577 12.0307 14.0177 12.327 14.5 12.625C14.6375 12.71 14.75 12.986 14.75 13.2385C14.75 13.5915 14.981 13.7195 15.75 13.7927C16.6182 13.8757 16.7505 13.8215 16.7535 13.3815C16.7553 13.103 16.8247 12.6217 16.9075 12.3125C17.069 11.7102 16.9832 11.6925 15.0625 11.9307ZM20.968 12.4375C20.6572 12.834 20.666 12.8427 21.0625 12.532C21.479 12.2052 21.6112 12 21.4055 12C21.3538 12 21.1567 12.197 20.968 12.4375ZM12.3903 12.4755C12.3135 12.5992 11.5965 12.7767 10.7968 12.8695C9.1095 13.0655 8.84225 13.1942 8.71225 13.875C8.65975 14.15 8.437 14.3767 8.21725 14.3787C7.9975 14.3807 7.63375 14.5352 7.409 14.722C7.184 14.9085 7 14.9897 7 14.9022C7 14.8147 6.57825 14.9227 6.0625 15.142C5.12575 15.5402 4.36475 15.771 3.85425 15.8117C3.5515 15.836 3.86525 18.0312 4.28325 18.812C4.41525 19.0587 4.44425 19.388 4.348 19.5437C4.25075 19.7012 4.28325 19.759 4.421 19.6737C4.5575 19.5895 4.91325 19.9542 5.21125 20.4847C6.01825 21.9205 8.397 24.181 9.7135 24.7635C10.3505 25.0452 11.2922 25.3017 11.8062 25.334C12.392 25.3705 12.8798 25.5755 13.1125 25.8835L13.484 26.375L13.492 25.809C13.4965 25.4977 13.629 25.0365 13.787 24.7837C14.022 24.4075 13.889 23.9252 13.0525 22.1167L12.0312 19.9092L12.4003 19.026C12.6033 18.54 12.8495 18.0822 12.9473 18.0087C13.045 17.9352 13.1447 17.7625 13.169 17.625C13.1932 17.4875 13.2968 17.1597 13.399 16.8965C13.529 16.5617 13.4972 16.4722 13.2925 16.5987C13.1315 16.6982 13 16.923 13 17.0985C13 17.539 11.5385 18.8032 11.2415 18.6197C11.1088 18.5377 11 18.6525 11 18.875C11 19.0975 10.8875 19.21 10.75 19.125C10.6125 19.04 10.5 19.0897 10.5 19.2352C10.5 19.3807 10.3442 19.5 10.1543 19.5C9.964 19.5 9.7465 19.7362 9.671 20.0252C9.5955 20.314 9.42125 20.481 9.284 20.396C9.14675 20.3112 8.964 20.3562 8.8775 20.496C8.62375 20.9065 7.361 20.7872 6.9335 20.3125C6.20925 19.5085 6.31875 19.1855 7.413 18.8977C8.263 18.6745 8.798 18.227 10.3682 16.4277C11.7232 14.8747 12.5002 14.1875 13.0177 14.084C13.8435 13.9187 13.9257 13.6122 13.3608 12.8057C12.9485 12.2167 12.6193 12.1047 12.3903 12.4755ZM27.3215 14.375C27.3235 15.0625 27.372 15.314 27.4295 14.934C27.4867 14.554 27.4853 13.9915 27.426 13.684C27.3668 13.3765 27.3197 13.6875 27.3215 14.375ZM6.75 14.25C6.75 14.4332 6.825 14.5082 6.91675 14.4167C7.00825 14.325 7.00825 14.175 6.91675 14.0832C6.825 13.9917 6.75 14.0667 6.75 14.25ZM14.2 14.7512C12.3325 15.075 11.8252 15.6317 13.358 15.6752C13.83 15.6885 14.3643 15.7925 14.5455 15.906C14.7267 16.0195 15.0872 16.0775 15.347 16.0347C15.6065 15.992 15.906 16.098 16.0125 16.2702C16.1658 16.518 16.365 16.5067 16.9635 16.2167C17.659 15.88 17.6962 15.8 17.4172 15.2375C17.073 14.5432 16.179 14.408 14.2 14.7512ZM11.5347 16.519C11.2102 16.7835 11.0343 17 11.144 17C11.2537 17 11.0132 17.3447 10.6097 17.766C10.1482 18.2475 10.038 18.4697 10.313 18.3642C10.5532 18.272 10.75 18.0772 10.75 17.9315C10.75 17.786 10.8188 17.7355 10.9028 17.8195C11.1015 18.0182 12.3185 16.5745 12.2087 16.2702C12.1628 16.1425 11.8595 16.2542 11.5347 16.519ZM18.5 16.1655C18.5 16.3857 17.2125 17.25 16.8843 17.25C16.7943 17.25 16.805 17.1095 16.9083 16.9375C17.034 16.7282 16.9552 16.7392 16.6698 16.9707C16.4353 17.161 16.2583 17.4422 16.2763 17.5957C16.356 18.2707 16.2032 18.593 15.487 19.262L14.724 19.9747L15.1365 20.772C15.3987 21.2792 15.4945 21.8522 15.3997 22.347C15.2927 22.9057 15.32 23.0192 15.4965 22.75C15.6897 22.4552 15.7432 22.5197 15.7463 23.0507C15.752 24.063 16.188 24.8302 17.0333 25.3152C18.0143 25.8785 18.1623 25.8677 19.702 25.125C20.4145 24.7812 21.1855 24.5 21.4155 24.5C21.6453 24.5 21.7598 24.4265 21.6698 24.3365C21.5798 24.2465 21.9548 23.843 22.5033 23.4397C23.0515 23.0367 23.5 22.5652 23.5 22.392C23.5 21.98 22.839 21.4315 21.7358 20.928C20.8405 20.5197 20.3275 19.844 20.136 18.8217C19.9163 17.6495 18.5 15.3497 18.5 16.1655ZM14.1175 17.6042C13.0223 19.4055 12.952 19.7525 13.4967 20.6757C13.7735 21.1447 14 21.6842 14 21.8745C14 22.0647 14.1178 22.2932 14.2615 22.382C14.6632 22.6305 14.4228 21.474 13.9132 20.7082C13.3993 19.9357 13.6165 19.3867 14.7332 18.6362C15.3825 18.2 15.7157 17.25 15.2197 17.25C15.0827 17.25 15.0285 17.1562 15.0993 17.0417C15.17 16.927 15.0835 16.8332 14.9073 16.8332C14.7308 16.8332 14.3755 17.1802 14.1175 17.6042ZM20.9395 18.312C21.195 19.3195 21.7607 19.95 22.7733 20.355C23.3197 20.5737 23.8312 20.9207 23.91 21.1262C24.1458 21.7402 24.4605 21.5577 25.0042 20.4917L25.5185 19.4837L24.755 19.1627C24.3352 18.986 24.0427 18.7905 24.105 18.7282C24.1675 18.6657 23.7808 18.6565 23.2458 18.7075C22.548 18.774 22.064 18.6517 21.5347 18.2747L20.7965 17.749L20.9395 18.312ZM11.5002 26.3745C11.1255 26.8262 11.345 27.5 11.8673 27.5C12.1065 27.5 12.25 27.271 12.25 26.8897C12.25 26.1277 11.903 25.8892 11.5002 26.3745ZM15.8735 26.693C15.5978 26.9307 15.4177 27.0985 15.4737 27.0665C15.5297 27.0342 15.7275 27.203 15.9135 27.4415L16.2512 27.875L16.0933 27.4225C15.9792 27.097 16.0835 26.9315 16.4648 26.8317C16.756 26.7555 16.9328 26.5935 16.8575 26.4715C16.661 26.1537 16.4425 26.203 15.8735 26.693ZM14.2572 26.9902C14.055 27.1182 13.9545 27.288 14.034 27.3675C14.1138 27.447 14.321 27.3405 14.495 27.131C14.8558 26.6965 14.7865 26.6555 14.2572 26.9902ZM17.8185 27.2077C17.6495 27.3122 17.6115 27.526 17.7285 27.715C17.8853 27.9687 17.9675 27.9452 18.096 27.6102C18.2958 27.0897 18.21 26.9657 17.8185 27.2077ZM14.75 29.375L14.125 29.7322L15.5 29.7012C16.615 29.6757 16.7095 29.6445 16 29.5352L15.125 29.4007L16.375 29.2397L17.625 29.0785L16.5 29.0482C15.8813 29.0315 15.0938 29.1785 14.75 29.375ZM18.5833 29.1667C18.675 29.2582 18.825 29.2582 18.9167 29.1667C19.0082 29.075 18.9333 29 18.75 29C18.5667 29 18.4918 29.075 18.5833 29.1667ZM10.1835 30.4375C10.332 30.824 9.8615 30.7565 13.5415 30.921C17.0255 31.077 19.3962 30.881 19.5723 30.422C19.6578 30.199 18.488 30.125 14.8748 30.125C11.1285 30.125 10.09 30.1942 10.1835 30.4375Z"/>
</mask>
<path fill-rule="evenodd" clip-rule="evenodd" d="M12.3475 0.276746C11.6447 0.391746 10.7448 0.620246 10.3475 0.784496C9.95 0.948746 9.56875 1.09475 9.5 1.109C8.998 1.21275 7.29625 2.37275 7.4 2.54025C7.47125 2.65575 7.3365 2.75 7.10075 2.75C6.58825 2.75 5.119 3.83125 4.25 4.84775C3.23025 6.04075 2.268 7.57675 2.40325 7.796C2.47275 7.90825 2.425 8 2.29725 8C1.94475 8 0.6905 11.7435 0.8185 12.4132C0.88025 12.736 0.83375 13 0.71525 13C0.597 13 0.5 13.675 0.5 14.5C0.5 15.325 0.6055 16 0.73425 16C0.86325 16 0.90475 16.3937 0.8265 16.875C0.7345 17.4427 0.78375 17.75 0.96725 17.75C1.12275 17.75 1.23025 17.8345 1.20575 17.9375C1.02075 18.7232 3.01575 23 3.5675 23C3.68425 23 3.71525 23.1037 3.637 23.2307C3.33325 23.722 7.3595 26.972 9.31475 27.8142C9.69425 27.9777 9.9725 28.2072 9.9335 28.3245C9.8945 28.4415 9.79825 28.501 9.71975 28.4562C9.641 28.4115 9.4065 28.5162 9.1985 28.689C8.8345 28.991 8.85675 30.25 9.226 30.25C9.31825 30.25 9.4115 30.4877 9.4335 30.7782C9.45525 31.0687 9.513 31.3462 9.56175 31.395C9.95175 31.785 16.7612 32.0082 18.601 31.6912C19.898 31.468 20.058 31.3665 20.5082 30.4837C21.0967 29.33 21.1305 28.7845 20.625 28.5905C20.0072 28.3535 20.1868 28.1605 21.7415 27.3897C24.4463 26.0495 27.239 23.106 28.3382 20.4375C28.5507 19.922 28.6603 19.5 28.5818 19.5C28.503 19.5 28.5788 19.3312 28.75 19.125C28.9212 18.9187 28.963 18.7482 28.843 18.7462C28.7233 18.744 28.7658 18.653 28.9375 18.5437C29.422 18.2362 29.7437 14.8785 29.493 12.75C29.3715 11.7187 29.267 10.784 29.261 10.6727C29.255 10.5615 29.1388 10.5392 29.0028 10.6232C28.8612 10.7107 28.8192 10.6105 28.9045 10.388C28.9865 10.1745 28.924 10 28.7658 10C28.6075 10 28.5098 9.8595 28.5485 9.6875C28.653 9.22299 27.74 6.97675 27.5055 7.12175C27.3943 7.19025 27.2265 6.94025 27.1325 6.56575C26.9387 5.79425 23.3363 2.16725 22.9813 2.3865C22.854 2.46525 22.75 2.43375 22.75 2.317C22.75 1.993 20.1125 0.728246 19.3223 0.673496C18.9388 0.646746 18.5655 0.545996 18.4925 0.449246C18.2838 0.172496 13.761 0.0454956 12.3475 0.276746ZM12.125 1.27625C11.575 1.41325 10.9335 1.54375 10.6995 1.56625C10.4653 1.58875 10.3275 1.66075 10.393 1.7265C10.4587 1.792 9.9675 2.07725 9.30175 2.36025C7.75 3.02 6.13775 4.269 4.87425 5.79C4.32475 6.45175 3.70625 6.99625 3.5 7.00025C3.20725 7.006 3.19625 7.05275 3.44925 7.2135C3.70975 7.3785 3.70025 7.48025 3.401 7.7285C3.05975 8.01175 2.236 10.233 1.90975 11.75C1.44975 13.8885 1.81275 17.6722 2.7015 20C2.83275 20.3437 2.9535 20.7095 2.97 20.8125C2.9865 20.9155 3.197 21.2085 3.4375 21.4635C3.678 21.7182 4.356 22.5445 4.94375 23.2995C5.53175 24.0545 6.291 24.8212 6.63125 25.0035C6.9715 25.1855 7.25 25.411 7.25 25.5042C7.25 25.5977 7.7 25.877 8.25 26.125C8.8 26.373 9.25 26.6467 9.25 26.7335C9.25 26.82 9.53125 26.9142 9.875 26.9427C11.0275 27.038 10.575 26.293 9 25.5022C8.38125 25.1915 7.66825 24.7545 7.41575 24.531C5.0765 22.4622 3.6135 20.2382 2.98925 17.8017C2.80025 17.0645 2.5135 16.5 2.32775 16.5C1.96025 16.5 1.8795 15.854 2.2205 15.6432C2.34175 15.5682 2.521 14.746 2.6185 13.816C2.83825 11.7252 3.42075 9.40325 3.754 9.29125C3.891 9.245 3.9395 9.1045 3.86175 8.97875C3.784 8.853 3.83975 8.75 3.98525 8.75C4.13075 8.75 4.22675 8.66549 4.1985 8.5625C4.08875 8.16224 5.01025 6.80725 6.247 5.551C7.35775 4.4225 11 2.21425 11 2.66925C11 2.74725 11.186 2.65675 11.4132 2.468C11.6895 2.23875 12.6625 2.10325 14.3507 2.05975C17.3073 1.98325 18.994 2.1815 18.4702 2.544C18.2225 2.71525 18.2792 2.7395 18.6715 2.62975C19.4437 2.41325 22.0322 3.77625 23.5562 5.20175C25.787 7.2885 27.3165 10.1007 27.2875 12.0625C27.284 12.3032 27.3865 12.5 27.5155 12.5C27.7725 12.5 27.8335 15.7875 27.5933 16.6847C27.5107 16.9925 27.326 17.172 27.183 17.0835C27.026 16.9865 26.9983 17.045 27.1133 17.231C27.3203 17.566 26.7965 19.75 26.5093 19.75C26.4125 19.75 26.332 19.8907 26.33 20.0625C26.3205 20.9952 22.7752 24.9495 22.2432 24.6207C22.1025 24.534 22.0185 24.5725 22.0562 24.7065C22.094 24.8405 22.0365 24.9572 21.9285 24.966C21.8205 24.975 21.5583 25.156 21.346 25.3682C21.1335 25.5807 20.8562 25.6907 20.7297 25.6125C20.467 25.45 20.4307 25.779 20.649 26.3475C20.7805 26.69 20.9095 26.6787 21.743 26.2535C22.2628 25.9885 22.7763 25.851 22.8843 25.9482C22.992 26.0455 23.0068 25.9967 22.9172 25.8397C22.8275 25.683 23.0065 25.3872 23.3148 25.1825C24.3758 24.4777 25.6273 23.0902 26.537 21.6095C27.668 19.7687 28.75 16.2927 28.75 14.5C28.75 12.749 27.679 9.245 26.61 7.5C25.8098 6.19325 23.25 3.25575 23.25 3.64425C23.25 3.745 23.048 3.64475 22.801 3.42125C22.3678 3.029 19.2665 1.51 18.5 1.31425C17.576 1.0785 13.028 1.0515 12.125 1.27625ZM14.9987 3.49825C15.2917 3.90975 15.4615 4.35975 15.376 4.49825C15.2877 4.641 15.4703 4.7415 15.7978 4.73025C16.1153 4.7195 16.2345 4.65375 16.0625 4.5845C15.639 4.4135 15.6685 3.879 16.1222 3.50225C16.6628 3.05375 16.3483 2.75 15.3433 2.75H14.466L14.9987 3.49825ZM10.9438 3.714C10.0193 4.0805 9.063 4.58 8.819 4.82375L8.3755 5.2675L9.13575 5.00225C9.554 4.8565 10.1727 4.788 10.5105 4.85C10.8485 4.912 11.2722 4.97125 11.4522 4.9815C11.6322 4.99175 11.7107 5.11125 11.6267 5.24725C11.5428 5.383 11.6275 5.43525 11.8153 5.36325C12.003 5.29125 12.3637 5.46125 12.617 5.74125C13.2007 6.38625 13.5 6.388 13.5 5.7465C13.5 5.46975 13.6342 5.028 13.7985 4.76525C14.1877 4.14175 13.7043 2.9895 13.0677 3.02375C12.8243 3.03675 11.8685 3.3475 10.9438 3.714ZM17.3708 3.61575C17.3043 3.82725 17.2008 4.1595 17.1408 4.35425C17.0808 4.54925 17.1933 4.77075 17.3908 4.8465C17.5883 4.92225 17.7517 5.18475 17.7537 5.42975C17.757 5.80875 17.7938 5.819 18 5.5C18.1332 5.29375 18.2458 5.2375 18.25 5.375C18.2542 5.5125 18.3585 5.4655 18.482 5.27075C18.706 4.91675 20.2825 4.8445 21.3665 5.1385C21.806 5.25775 21.79 5.20675 21.25 4.76325C20.9062 4.481 20.4865 4.13525 20.3175 3.99475C20.1482 3.8545 19.9482 3.754 19.8727 3.772C19.7975 3.79 19.4858 3.72425 19.1803 3.626C17.9685 3.236 17.4908 3.2335 17.3708 3.61575ZM7.02525 6.14975C6.5695 6.729 6.555 6.84075 6.891 7.17675C7.104 7.38975 7.4935 7.49475 7.7865 7.418C8.36725 7.266 9.634 8.33074 9.37375 8.752C9.285 8.89575 9.5485 9 10 9C10.456 9 10.7155 8.89625 10.625 8.75C10.54 8.6125 10.5053 8.49524 10.5478 8.48975C10.5903 8.484 11.3 8.41725 12.125 8.34125C12.95 8.265 13.6922 8.129 13.7747 8.039C13.857 7.94875 13.84 7.59375 13.737 7.25C13.634 6.90625 13.5387 6.75 13.525 6.90275C13.4987 7.19475 12.25 7.06925 12.25 6.77475C12.25 6.49575 10.915 5.80325 10.25 5.7375C9.90625 5.7035 9.437 5.75725 9.207 5.857C8.97725 5.95675 8.56275 5.91725 8.286 5.76925C7.60975 5.4075 7.609 5.40775 7.02525 6.14975ZM18.7778 6.1465C18.4615 6.54875 18.1485 6.72175 17.9475 6.606C17.7703 6.5035 17.704 6.5075 17.8005 6.61475C17.8973 6.72175 17.8005 6.98525 17.5858 7.2C17.2318 7.554 17.2852 7.6175 18.16 7.88025C18.6908 8.0395 19.676 8.42325 20.3493 8.733C21.2155 9.13124 21.8003 9.24774 22.3493 9.13099C22.776 9.04025 23.5837 8.967 24.1448 8.96825C24.9967 8.97025 25.1585 8.89175 25.129 8.4905C25.1095 8.22625 24.9983 7.9235 24.8818 7.8175C24.7652 7.71175 24.7565 7.79375 24.8622 8C25.0798 8.4235 23.938 7.16325 23.3515 6.33225C23.016 5.857 22.8045 5.80625 21.6502 5.9255C20.883 6.0045 20.1133 5.9445 19.8088 5.7815C19.3645 5.54375 19.2083 5.599 18.7778 6.1465ZM14.6587 6.12725C14.488 6.57225 14.9075 7.78825 15.3197 8.043C15.6823 8.267 16.2357 7.82025 16.519 7.075C16.853 6.19675 16.5515 5.75 15.625 5.75C15.1233 5.75 14.7472 5.89675 14.6587 6.12725ZM5.28675 8.30925C4.828 9.03374 4.816 9.142 5.172 9.34125C5.39075 9.46375 6.06025 9.60925 6.66 9.66475C7.622 9.75375 7.75 9.70599 7.75 9.25774C7.75 8.865 7.587 8.75 7.0305 8.75C6.26075 8.75 5.603 8.19025 5.86825 7.761C5.957 7.6175 5.97775 7.5 5.91425 7.5C5.851 7.5 5.5685 7.86424 5.28675 8.30925ZM16.8333 8.91675C16.925 9.00825 17.075 9.00825 17.1667 8.91675C17.2582 8.825 17.1833 8.75 17 8.75C16.8167 8.75 16.7418 8.825 16.8333 8.91675ZM18.391 9.17675C18.2555 9.533 18.284 9.56174 18.531 9.31674C18.702 9.14699 18.7787 8.94524 18.7017 8.86849C18.6248 8.7915 18.485 8.93025 18.391 9.17675ZM12 9.25C12 9.43325 12.075 9.50825 12.1667 9.41675C12.2583 9.325 12.2583 9.175 12.1667 9.08325C12.075 8.99174 12 9.06674 12 9.25ZM15.2805 9.33825C15.015 9.65825 15.136 10 15.515 10C15.7952 10 16.0048 9.2825 15.7675 9.13575C15.6515 9.064 15.4325 9.15525 15.2805 9.33825ZM19.1127 9.27C19.021 9.4185 19.1847 9.70749 19.477 9.91199C19.7692 10.1167 19.9328 10.4065 19.8405 10.5557C19.7437 10.7125 19.7882 10.7557 19.946 10.6582C20.0962 10.5655 20.3388 10.6887 20.4845 10.9322C20.7305 11.3425 20.789 11.329 21.2803 10.75L21.8107 10.125L21.218 10.0507C20.2785 9.93349 19.2435 9.46274 19.393 9.22099C19.468 9.09949 19.4732 9 19.4045 9C19.3357 9 19.2045 9.1215 19.1127 9.27ZM16.5625 9.42225C16.8032 9.48524 17 9.70075 17 9.90125C17 10.3072 16.5535 10.5347 15.65 10.589C15.3187 10.6087 15.105 10.7172 15.1747 10.8302C15.3475 11.1102 17.2728 10.763 17.6525 10.383C17.895 10.1407 17.858 9.9895 17.4767 9.66325C17.2115 9.436 16.7987 9.263 16.5597 9.279L16.125 9.30799L16.5625 9.42225ZM13.3542 9.9665C13.4788 10.1677 14.75 10.058 14.75 9.84575C14.75 9.79325 14.4058 9.75 13.9853 9.75C13.5648 9.75 13.2808 9.8475 13.3542 9.9665ZM4.0025 10.9472C3.59675 12.3642 3.41075 14.6652 3.688 14.8367C4.057 15.0647 6 14.0415 6 13.6192C6 13.416 6.1125 13.25 6.25 13.25C6.3875 13.25 6.5 13.0992 6.5 12.9152C6.5 12.731 6.78125 12.452 7.125 12.2955C7.591 12.0832 7.75 11.8185 7.75 11.2552V10.5H6.64125C6.0315 10.5 5.248 10.3917 4.90025 10.2597C4.31425 10.0367 4.24875 10.087 4.0025 10.9472ZM11.75 10.375L11.125 10.7322L11.782 10.7412C12.1432 10.746 12.5787 10.5812 12.75 10.375C13.164 9.876 12.6228 9.876 11.75 10.375ZM24.6182 10.4302C23.8015 10.5057 23.5537 10.6545 23.3037 11.2192C22.902 12.1267 21.294 14.0002 20.918 13.999C20.7568 13.9982 20.0357 13.5512 19.3158 13.0052L18.0065 12.0125L17.856 12.6115C17.621 13.548 17.83 14.1177 18.44 14.205C18.748 14.2487 19 14.396 19 14.5322C19 14.6682 19.0993 14.7182 19.2205 14.6432C19.5423 14.4445 20.6998 15.4277 21.1353 16.2697C21.6145 17.1965 22.5725 17.8232 23.5823 17.8702C24.0183 17.8905 24.6938 18.0415 25.0835 18.2055C25.4732 18.3695 25.8822 18.4477 25.9928 18.3795C26.2362 18.229 26.6035 16.5447 26.525 15.9375C26.494 15.697 26.5882 15.5 26.7342 15.5C26.8805 15.5 27 15.05 27 14.5C27 13.95 26.8795 13.5 26.732 13.5C26.5848 13.5 26.491 13.2467 26.5238 12.9375C26.5965 12.2467 26.0478 10.2335 25.8027 10.2937C25.705 10.3177 25.172 10.3792 24.6182 10.4302ZM18.812 10.7065C18.5833 10.8515 18.7015 11.0995 19.2495 11.6245C19.6623 12.02 20 12.209 20 12.0442C20 11.8797 19.7808 11.5575 19.5128 11.328C19.2448 11.0985 19.0828 10.8185 19.1525 10.7055C19.3105 10.45 19.2155 10.4502 18.812 10.7065ZM8.60125 11.0387C8.4905 11.2175 8.5325 11.2595 8.71125 11.1487C8.9995 10.9707 9.09825 10.75 8.88975 10.75C8.829 10.75 8.69925 10.88 8.60125 11.0387ZM14.625 11C14.71 11.1375 14.8357 11.25 14.9045 11.25C14.9733 11.25 14.96 11.1375 14.875 11C14.79 10.8625 14.6643 10.75 14.5955 10.75C14.5267 10.75 14.54 10.8625 14.625 11ZM11.396 11.6602C11.2642 12.0035 11.301 12.019 11.6193 11.7547C12.053 11.3947 12.0982 11.25 11.7767 11.25C11.654 11.25 11.4827 11.4347 11.396 11.6602ZM15.0625 11.9307C14.2577 12.0307 14.0177 12.327 14.5 12.625C14.6375 12.71 14.75 12.986 14.75 13.2385C14.75 13.5915 14.981 13.7195 15.75 13.7927C16.6182 13.8757 16.7505 13.8215 16.7535 13.3815C16.7553 13.103 16.8247 12.6217 16.9075 12.3125C17.069 11.7102 16.9832 11.6925 15.0625 11.9307ZM20.968 12.4375C20.6572 12.834 20.666 12.8427 21.0625 12.532C21.479 12.2052 21.6112 12 21.4055 12C21.3538 12 21.1567 12.197 20.968 12.4375ZM12.3903 12.4755C12.3135 12.5992 11.5965 12.7767 10.7968 12.8695C9.1095 13.0655 8.84225 13.1942 8.71225 13.875C8.65975 14.15 8.437 14.3767 8.21725 14.3787C7.9975 14.3807 7.63375 14.5352 7.409 14.722C7.184 14.9085 7 14.9897 7 14.9022C7 14.8147 6.57825 14.9227 6.0625 15.142C5.12575 15.5402 4.36475 15.771 3.85425 15.8117C3.5515 15.836 3.86525 18.0312 4.28325 18.812C4.41525 19.0587 4.44425 19.388 4.348 19.5437C4.25075 19.7012 4.28325 19.759 4.421 19.6737C4.5575 19.5895 4.91325 19.9542 5.21125 20.4847C6.01825 21.9205 8.397 24.181 9.7135 24.7635C10.3505 25.0452 11.2922 25.3017 11.8062 25.334C12.392 25.3705 12.8798 25.5755 13.1125 25.8835L13.484 26.375L13.492 25.809C13.4965 25.4977 13.629 25.0365 13.787 24.7837C14.022 24.4075 13.889 23.9252 13.0525 22.1167L12.0312 19.9092L12.4003 19.026C12.6033 18.54 12.8495 18.0822 12.9473 18.0087C13.045 17.9352 13.1447 17.7625 13.169 17.625C13.1932 17.4875 13.2968 17.1597 13.399 16.8965C13.529 16.5617 13.4972 16.4722 13.2925 16.5987C13.1315 16.6982 13 16.923 13 17.0985C13 17.539 11.5385 18.8032 11.2415 18.6197C11.1088 18.5377 11 18.6525 11 18.875C11 19.0975 10.8875 19.21 10.75 19.125C10.6125 19.04 10.5 19.0897 10.5 19.2352C10.5 19.3807 10.3442 19.5 10.1543 19.5C9.964 19.5 9.7465 19.7362 9.671 20.0252C9.5955 20.314 9.42125 20.481 9.284 20.396C9.14675 20.3112 8.964 20.3562 8.8775 20.496C8.62375 20.9065 7.361 20.7872 6.9335 20.3125C6.20925 19.5085 6.31875 19.1855 7.413 18.8977C8.263 18.6745 8.798 18.227 10.3682 16.4277C11.7232 14.8747 12.5002 14.1875 13.0177 14.084C13.8435 13.9187 13.9257 13.6122 13.3608 12.8057C12.9485 12.2167 12.6193 12.1047 12.3903 12.4755ZM27.3215 14.375C27.3235 15.0625 27.372 15.314 27.4295 14.934C27.4867 14.554 27.4853 13.9915 27.426 13.684C27.3668 13.3765 27.3197 13.6875 27.3215 14.375ZM6.75 14.25C6.75 14.4332 6.825 14.5082 6.91675 14.4167C7.00825 14.325 7.00825 14.175 6.91675 14.0832C6.825 13.9917 6.75 14.0667 6.75 14.25ZM14.2 14.7512C12.3325 15.075 11.8252 15.6317 13.358 15.6752C13.83 15.6885 14.3643 15.7925 14.5455 15.906C14.7267 16.0195 15.0872 16.0775 15.347 16.0347C15.6065 15.992 15.906 16.098 16.0125 16.2702C16.1658 16.518 16.365 16.5067 16.9635 16.2167C17.659 15.88 17.6962 15.8 17.4172 15.2375C17.073 14.5432 16.179 14.408 14.2 14.7512ZM11.5347 16.519C11.2102 16.7835 11.0343 17 11.144 17C11.2537 17 11.0132 17.3447 10.6097 17.766C10.1482 18.2475 10.038 18.4697 10.313 18.3642C10.5532 18.272 10.75 18.0772 10.75 17.9315C10.75 17.786 10.8188 17.7355 10.9028 17.8195C11.1015 18.0182 12.3185 16.5745 12.2087 16.2702C12.1628 16.1425 11.8595 16.2542 11.5347 16.519ZM18.5 16.1655C18.5 16.3857 17.2125 17.25 16.8843 17.25C16.7943 17.25 16.805 17.1095 16.9083 16.9375C17.034 16.7282 16.9552 16.7392 16.6698 16.9707C16.4353 17.161 16.2583 17.4422 16.2763 17.5957C16.356 18.2707 16.2032 18.593 15.487 19.262L14.724 19.9747L15.1365 20.772C15.3987 21.2792 15.4945 21.8522 15.3997 22.347C15.2927 22.9057 15.32 23.0192 15.4965 22.75C15.6897 22.4552 15.7432 22.5197 15.7463 23.0507C15.752 24.063 16.188 24.8302 17.0333 25.3152C18.0143 25.8785 18.1623 25.8677 19.702 25.125C20.4145 24.7812 21.1855 24.5 21.4155 24.5C21.6453 24.5 21.7598 24.4265 21.6698 24.3365C21.5798 24.2465 21.9548 23.843 22.5033 23.4397C23.0515 23.0367 23.5 22.5652 23.5 22.392C23.5 21.98 22.839 21.4315 21.7358 20.928C20.8405 20.5197 20.3275 19.844 20.136 18.8217C19.9163 17.6495 18.5 15.3497 18.5 16.1655ZM14.1175 17.6042C13.0223 19.4055 12.952 19.7525 13.4967 20.6757C13.7735 21.1447 14 21.6842 14 21.8745C14 22.0647 14.1178 22.2932 14.2615 22.382C14.6632 22.6305 14.4228 21.474 13.9132 20.7082C13.3993 19.9357 13.6165 19.3867 14.7332 18.6362C15.3825 18.2 15.7157 17.25 15.2197 17.25C15.0827 17.25 15.0285 17.1562 15.0993 17.0417C15.17 16.927 15.0835 16.8332 14.9073 16.8332C14.7308 16.8332 14.3755 17.1802 14.1175 17.6042ZM20.9395 18.312C21.195 19.3195 21.7607 19.95 22.7733 20.355C23.3197 20.5737 23.8312 20.9207 23.91 21.1262C24.1458 21.7402 24.4605 21.5577 25.0042 20.4917L25.5185 19.4837L24.755 19.1627C24.3352 18.986 24.0427 18.7905 24.105 18.7282C24.1675 18.6657 23.7808 18.6565 23.2458 18.7075C22.548 18.774 22.064 18.6517 21.5347 18.2747L20.7965 17.749L20.9395 18.312ZM11.5002 26.3745C11.1255 26.8262 11.345 27.5 11.8673 27.5C12.1065 27.5 12.25 27.271 12.25 26.8897C12.25 26.1277 11.903 25.8892 11.5002 26.3745ZM15.8735 26.693C15.5978 26.9307 15.4177 27.0985 15.4737 27.0665C15.5297 27.0342 15.7275 27.203 15.9135 27.4415L16.2512 27.875L16.0933 27.4225C15.9792 27.097 16.0835 26.9315 16.4648 26.8317C16.756 26.7555 16.9328 26.5935 16.8575 26.4715C16.661 26.1537 16.4425 26.203 15.8735 26.693ZM14.2572 26.9902C14.055 27.1182 13.9545 27.288 14.034 27.3675C14.1138 27.447 14.321 27.3405 14.495 27.131C14.8558 26.6965 14.7865 26.6555 14.2572 26.9902ZM17.8185 27.2077C17.6495 27.3122 17.6115 27.526 17.7285 27.715C17.8853 27.9687 17.9675 27.9452 18.096 27.6102C18.2958 27.0897 18.21 26.9657 17.8185 27.2077ZM14.75 29.375L14.125 29.7322L15.5 29.7012C16.615 29.6757 16.7095 29.6445 16 29.5352L15.125 29.4007L16.375 29.2397L17.625 29.0785L16.5 29.0482C15.8813 29.0315 15.0938 29.1785 14.75 29.375ZM18.5833 29.1667C18.675 29.2582 18.825 29.2582 18.9167 29.1667C19.0082 29.075 18.9333 29 18.75 29C18.5667 29 18.4918 29.075 18.5833 29.1667ZM10.1835 30.4375C10.332 30.824 9.8615 30.7565 13.5415 30.921C17.0255 31.077 19.3962 30.881 19.5723 30.422C19.6578 30.199 18.488 30.125 14.8748 30.125C11.1285 30.125 10.09 30.1942 10.1835 30.4375Z" fill="#646464" stroke="white" stroke-width="0.2" mask="url(#path-1-inside-1_2330_4359)"/>
</svg>
