<svg width="24" height="109" viewBox="0 0 24 109" fill="none" xmlns="http://www.w3.org/2000/svg">
    <path fill-rule="evenodd" clip-rule="evenodd"
        d="M19 9.00002C19.0022 10.4289 18.5652 11.8239 17.748 12.996H17.75L12.843 20.68C12.7526 20.8217 12.628 20.9382 12.4807 21.019C12.3333 21.0998 12.168 21.1421 12 21.1421C11.832 21.1421 11.6667 21.0998 11.5193 21.019C11.372 20.9382 11.2474 20.8217 11.157 20.68L6.274 13.027C5.64121 12.1271 5.22942 11.0908 5.07202 10.002C4.91462 8.91327 5.01605 7.80274 5.36807 6.7605C5.7201 5.71826 6.31281 4.77366 7.09815 4.00331C7.88348 3.23296 8.83932 2.65855 9.88814 2.32666C10.937 1.99477 12.0492 1.91475 13.1348 2.09308C14.2203 2.27142 15.2485 2.70309 16.1361 3.35309C17.0236 4.00309 17.7454 4.85312 18.243 5.83424C18.7406 6.81535 18.9999 7.89993 19 9.00002ZM12 13C13.0609 13 14.0783 12.5786 14.8284 11.8284C15.5786 11.0783 16 10.0609 16 9.00002C16 7.93915 15.5786 6.92174 14.8284 6.17159C14.0783 5.42144 13.0609 5.00002 12 5.00002C10.9391 5.00002 9.92172 5.42144 9.17157 6.17159C8.42143 6.92174 8 7.93915 8 9.00002C8 10.0609 8.42143 11.0783 9.17157 11.8284C9.92172 12.5786 10.9391 13 12 13Z"
        fill="#C1554E" />
    <circle cx="12" cy="103" r="5" fill="white" stroke="#A5A5A5" stroke-width="2" />
    <line x1="12.5" y1="30" x2="12.5" y2="91" stroke="#AAAAAA" stroke-dasharray="2 2" />
</svg>