<svg width="24" height="24" viewBox="0 0 24 24" fill="none" xmlns="http://www.w3.org/2000/svg">
<g id="trip (1) 1">
<path id="Vector" d="M19.5226 4.83749H15.1657V3.27653C15.1657 2.68109 14.6811 2.19653 14.0857 2.19653H9.91328C9.62695 2.19685 9.35243 2.31074 9.14996 2.51321C8.94749 2.71568 8.8336 2.9902 8.83328 3.27653V4.83749H4.47656C2.82224 4.83749 1.47656 6.18317 1.47656 7.83749V17.3626C1.47656 19.0169 2.82224 20.3626 4.47656 20.3626H5.0396V21.8033H8.6396V20.3626H15.3596V21.8033H18.9596V20.3626H19.5229C21.1772 20.3626 22.5229 19.0169 22.5229 17.3626V7.83749C22.5226 6.18341 21.177 4.83749 19.5226 4.83749ZM10.0333 3.39653H13.9657V4.83749H10.0333V3.39653ZM21.3226 17.3629C21.3226 18.3555 20.5153 19.1629 19.5226 19.1629H4.47656C3.48392 19.1629 2.67656 18.3555 2.67656 17.3629V7.83749C2.67656 6.84485 3.48392 6.03749 4.47656 6.03749H19.5226C20.5153 6.03749 21.3226 6.84485 21.3226 7.83749V17.3629Z" fill="#FFAAA5"/>
<path id="Vector_2" d="M12.4295 8.67115L10.4375 13.6322L15.1463 15.5229L17.1383 10.5619L15.7969 7.09387L12.4295 8.67115ZM15.6054 9.50227C15.5712 9.59144 15.5196 9.67291 15.4536 9.74194C15.3876 9.81097 15.3086 9.86618 15.221 9.90436C15.1335 9.94254 15.0392 9.96293 14.9438 9.96433C14.8483 9.96573 14.7534 9.94812 14.6648 9.91253C14.5762 9.87693 14.4956 9.82407 14.4276 9.757C14.3596 9.68994 14.3056 9.61002 14.2688 9.5219C14.232 9.43377 14.2131 9.33921 14.2132 9.24371C14.2133 9.14821 14.2324 9.05368 14.2693 8.96563C14.3425 8.79137 14.4813 8.65287 14.6557 8.58003C14.8301 8.50719 15.0261 8.50584 15.2015 8.57629C15.3769 8.64673 15.5176 8.78331 15.5931 8.95656C15.6687 9.1298 15.6731 9.3258 15.6054 9.50227Z" fill="#FFAAA5"/>
</g>
</svg>
