<svg width="20" height="18" viewBox="0 0 20 18" fill="none" xmlns="http://www.w3.org/2000/svg">
<path d="M10.0016 16.8375L9.70156 16.575C2.87656 11.025 1.03906 9.07498 1.03906 5.88748C1.03906 3.26248 3.17656 1.16248 5.76406 1.16248C7.93906 1.16248 9.17656 2.39998 10.0016 3.33748C10.8266 2.39998 12.0641 1.16248 14.2391 1.16248C16.8641 1.16248 18.9641 3.29998 18.9641 5.88748C18.9641 9.07498 17.1266 11.025 10.3016 16.575L10.0016 16.8375ZM5.76406 2.13748C3.70156 2.13748 2.01406 3.82498 2.01406 5.88748C2.01406 8.62498 3.73906 10.425 10.0016 15.5625C16.2641 10.425 17.9891 8.62498 17.9891 5.88748C17.9891 3.82498 16.3016 2.13748 14.2391 2.13748C12.3641 2.13748 11.3516 3.26248 10.5641 4.16248L10.0016 4.79998L9.43906 4.16248C8.65156 3.26248 7.63906 2.13748 5.76406 2.13748Z" fill="#FFAAA5" stroke="#FFAAA5" stroke-width="0.4"/>
</svg>
