<svg width="18" height="21" viewBox="0 0 18 21" fill="none" xmlns="http://www.w3.org/2000/svg">
<path d="M13.043 1V4.291" stroke="#FFAAA5" stroke-width="1.5" stroke-linecap="round" stroke-linejoin="round"/>
<path d="M4.96484 1V4.291" stroke="#FFAAA5" stroke-width="1.5" stroke-linecap="round" stroke-linejoin="round"/>
<path d="M17.4 7.22041V7.22225V16.3475C17.4 17.7278 16.9843 18.7188 16.3049 19.3675C15.6212 20.0202 14.5934 20.4 13.229 20.4H4.77096C3.4143 20.4 2.38736 20.015 1.7018 19.3505C1.01923 18.6889 0.6 17.6777 0.6 16.2719V7.22225C0.6 5.84293 1.01739 4.85456 1.69761 4.20795C2.38247 3.55692 3.4107 3.17922 4.77096 3.17922H13.2383C14.6037 3.17922 15.6313 3.55719 16.3133 4.20737C16.9907 4.85308 17.4042 5.84062 17.4 7.22041Z" stroke="#FFAAA5" stroke-width="1.2" stroke-linecap="round" stroke-linejoin="round"/>
<path d="M1 8L17 8" stroke="#FFAAA5" stroke-width="1.5" stroke-linecap="round" stroke-linejoin="round"/>
<path d="M13.4414 12.3101H13.4504" stroke="#FFAAA5" stroke-width="1.5" stroke-linecap="round" stroke-linejoin="round"/>
<path d="M9.00391 12.3101H9.01291" stroke="#FFAAA5" stroke-width="1.5" stroke-linecap="round" stroke-linejoin="round"/>
<path d="M4.55859 12.3101H4.56759" stroke="#FFAAA5" stroke-width="1.5" stroke-linecap="round" stroke-linejoin="round"/>
<path d="M13.4414 16.196H13.4504" stroke="#FFAAA5" stroke-width="1.5" stroke-linecap="round" stroke-linejoin="round"/>
<path d="M9.00391 16.196H9.01291" stroke="#FFAAA5" stroke-width="1.5" stroke-linecap="round" stroke-linejoin="round"/>
<path d="M4.55859 16.196H4.56759" stroke="#FFAAA5" stroke-width="1.5" stroke-linecap="round" stroke-linejoin="round"/>
</svg>
