<svg width="24" height="24" viewBox="0 0 24 24" fill="none" xmlns="http://www.w3.org/2000/svg">
<g id="add 1" clip-path="url(#clip0_1868_2893)">
<path id="Vector" d="M6.40986 0.797959C3.31653 0.797959 0.796875 3.31797 0.796875 6.41129V17.5887C0.796875 20.682 3.31618 23.202 6.40986 23.202H17.5873C20.6806 23.202 23.2006 20.682 23.2006 17.5887V6.41094C23.2006 3.31762 20.6806 0.797607 17.5873 0.797607L6.40986 0.797959ZM6.40986 2.67344H17.5873C19.6743 2.67344 21.3255 4.32427 21.3255 6.41129V17.5887C21.3255 19.6757 19.6743 21.3262 17.5873 21.3262H6.40986C4.32284 21.3262 2.672 19.6757 2.672 17.5887V6.41094C2.672 4.32392 4.32284 2.67344 6.40986 2.67344ZM12.2191 5.5322C11.9706 5.53574 11.7336 5.63784 11.5603 5.81604C11.3871 5.99425 11.2916 6.23397 11.295 6.48251V11.001H6.7773C6.65205 10.9975 6.52739 11.0192 6.41067 11.0648C6.29395 11.1103 6.18755 11.1788 6.09774 11.2662C6.00794 11.3535 5.93656 11.458 5.88781 11.5734C5.83907 11.6889 5.81396 11.8129 5.81396 11.9382C5.81396 12.0635 5.83907 12.1875 5.88781 12.3029C5.93656 12.4183 6.00794 12.5228 6.09774 12.6102C6.18755 12.6976 6.29395 12.766 6.41067 12.8116C6.52739 12.8571 6.65205 12.8788 6.7773 12.8754H11.295V17.3931C11.2926 17.5178 11.3151 17.6417 11.3611 17.7576C11.4072 17.8735 11.4758 17.979 11.5632 18.0681C11.6505 18.1571 11.7547 18.2278 11.8696 18.2761C11.9846 18.3244 12.1081 18.3493 12.2328 18.3493C12.3575 18.3493 12.4809 18.3244 12.5959 18.2761C12.7109 18.2278 12.8151 18.1571 12.9024 18.0681C12.9897 17.979 13.0584 17.8735 13.1044 17.7576C13.1505 17.6417 13.1729 17.5178 13.1705 17.3931V12.8754H17.6883C17.8135 12.8788 17.9382 12.8571 18.0549 12.8116C18.1716 12.766 18.278 12.6976 18.3678 12.6102C18.4576 12.5228 18.529 12.4183 18.5777 12.3029C18.6265 12.1875 18.6516 12.0635 18.6516 11.9382C18.6516 11.8129 18.6265 11.6889 18.5777 11.5734C18.529 11.458 18.4576 11.3535 18.3678 11.2662C18.278 11.1788 18.1716 11.1103 18.0549 11.0648C17.9382 11.0192 17.8135 10.9975 17.6883 11.001H13.1705V6.48251C13.1722 6.35715 13.1488 6.23272 13.1016 6.11657C13.0544 6.00043 12.9843 5.89493 12.8956 5.80633C12.8069 5.71772 12.7014 5.64781 12.5852 5.60073C12.469 5.55364 12.3445 5.53034 12.2191 5.5322Z" fill="#FFAAA5" stroke="#C1554E" stroke-width="0.5"/>
</g>
<defs>
<clipPath id="clip0_1868_2893">
<rect width="24" height="24" fill="white"/>
</clipPath>
</defs>
</svg>
