<svg width="24" height="24" viewBox="0 0 24 24" fill="none" xmlns="http://www.w3.org/2000/svg">
<path d="M9.5 4.85714H13.5M9.5 4.85714V2M9.5 4.85714L8.3 8.66667M13.5 4.85714V2M13.5 4.85714L14.7 8.66667M8.3 8.66667H14.7M8.3 8.66667L7.1 12.4762M14.7 8.66667L15.9 12.4762M7.1 12.4762L6.61018 14.0312C6.5446 14.2394 6.35155 14.381 6.13328 14.381H3.5C3.22386 14.381 3 14.6048 3 14.881V21.5C3 21.7761 3.22386 22 3.5 22H8.5C8.77614 22 9 21.7761 9 21.5V16.7857C9 16.5096 9.22386 16.2857 9.5 16.2857H13.5C13.7761 16.2857 14 16.5096 14 16.7857V21.5C14 21.7761 14.2239 22 14.5 22H19.5C19.7761 22 20 21.7761 20 21.5V14.881C20 14.6048 19.7761 14.381 19.5 14.381H16.8667C16.6484 14.381 16.4554 14.2394 16.3898 14.0312L15.9 12.4762M7.1 12.4762H15.9" stroke="#FFAAA5" stroke-width="1.2"/>
</svg>
