<svg width="25" height="24" viewBox="0 0 25 24" fill="none" xmlns="http://www.w3.org/2000/svg">
<g id="home 1">
<path id="Vector" d="M9.657 20.7707V17.7047C9.657 16.9247 10.293 16.2907 11.081 16.2847H13.967C14.759 16.2847 15.4 16.9207 15.4 17.7047V20.7807C15.4 21.4427 15.934 21.9847 16.603 21.9997H18.527C20.445 21.9997 22 20.4597 22 18.5617V9.8377C21.9944 9.46804 21.905 9.10446 21.7383 8.77445C21.5717 8.44443 21.3322 8.1566 21.038 7.9327L14.458 2.6847C13.8964 2.24062 13.2014 1.99902 12.4855 1.99902C11.7696 1.99902 11.0746 2.24062 10.513 2.6847L3.962 7.9427C3.66683 8.16547 3.42665 8.45292 3.25989 8.78298C3.09312 9.11304 3.00422 9.47693 3 9.8467V18.5617C3 20.4597 4.555 21.9997 6.473 21.9997H8.397C9.082 21.9997 9.638 21.4497 9.638 20.7707" stroke="#FFAAA5" stroke-width="1.2" stroke-linecap="round" stroke-linejoin="round"/>
</g>
</svg>
