<svg width="22" height="22" viewBox="0 0 22 22" fill="none" xmlns="http://www.w3.org/2000/svg">
    <path
        d="M8.157 19.7707V16.7047C8.157 15.9247 8.793 15.2907 9.581 15.2847H12.467C13.259 15.2847 13.9 15.9207 13.9 16.7047V19.7807C13.9 20.4427 14.434 20.9847 15.103 20.9997H17.027C18.945 20.9997 20.5 19.4597 20.5 17.5617V8.8377C20.4944 8.46804 20.405 8.10446 20.2383 7.77445C20.0717 7.44443 19.8322 7.1566 19.538 6.9327L12.958 1.6847C12.3964 1.24062 11.7014 0.999023 10.9855 0.999023C10.2696 0.999023 9.57457 1.24062 9.013 1.6847L2.462 6.9427C2.16683 7.16547 1.92665 7.45292 1.75989 7.78298C1.59312 8.11304 1.50422 8.47693 1.5 8.8467V17.5617C1.5 19.4597 3.055 20.9997 4.973 20.9997H6.897C7.582 20.9997 8.138 20.4497 8.138 19.7707"
        stroke="#FFAAA5" stroke-width="1.2" stroke-linecap="round" stroke-linejoin="round" />
</svg>