<svg width="112" height="112" viewBox="0 0 112 112" fill="none" xmlns="http://www.w3.org/2000/svg">
    <g clip-path="url(#clip0_1843_3737)">
        <path fill-rule="evenodd" clip-rule="evenodd"
            d="M70.469 111.869H66.6634C65.6137 111.869 64.7607 111.081 64.7607 110.032C64.7607 108.982 65.6137 108.129 66.6634 108.129H70.469C71.5187 108.129 72.3061 108.982 72.3061 110.032C72.3061 111.081 71.5187 111.869 70.469 111.869ZM55.3781 111.869H51.5726C50.5228 111.869 49.6699 111.081 49.6699 110.032C49.6699 108.982 50.5228 108.129 51.5726 108.129H55.3781C56.4279 108.129 57.2153 108.982 57.2153 110.032C57.2153 111.081 56.4279 111.869 55.3781 111.869ZM40.2873 111.869H36.4818C35.432 111.869 34.5791 111.081 34.5791 110.032C34.5791 108.982 35.432 108.129 36.4818 108.129H40.2873C41.3371 108.129 42.1245 108.982 42.1245 110.032C42.1245 111.081 41.3371 111.869 40.2873 111.869ZM25.1965 111.869H21.391C20.3412 111.869 19.4883 111.081 19.4883 110.032C19.4883 108.982 20.3412 108.129 21.391 108.129H25.1965C26.2463 108.129 27.0337 108.982 27.0337 110.032C27.0337 111.081 26.2463 111.869 25.1965 111.869ZM81.1637 108.982C80.5732 108.982 79.9827 108.654 79.589 108.194C78.9985 107.341 79.1954 106.16 80.0483 105.504C80.9669 104.914 81.8199 104.126 82.5416 103.274C83.1977 102.552 84.4444 102.421 85.2317 103.142C85.9534 103.864 86.019 105.045 85.3629 105.832C84.4444 106.882 83.3946 107.801 82.2135 108.588C81.8855 108.851 81.5574 108.982 81.1637 108.982ZM88.2499 96.1874C88.1842 96.1874 88.1186 96.1874 88.1186 96.1874C87.0688 96.1218 86.2815 95.2032 86.3471 94.1534C86.4127 93.7598 86.4127 93.4317 86.4127 93.038C86.4127 92.3163 86.3471 91.529 86.2159 90.8072C86.0847 89.7574 86.8064 88.8389 87.8562 88.642C88.8404 88.5108 89.8245 89.2325 89.9558 90.2823C90.087 91.2009 90.1526 92.1195 90.1526 93.038C90.1526 93.4973 90.1526 93.9566 90.087 94.4159C90.0214 95.4001 89.234 96.1874 88.2499 96.1874ZM83.0665 82.4745C82.6072 82.4745 82.1479 82.3432 81.7542 81.9496C80.9669 81.1622 80.0483 80.5061 79.1298 79.9156C78.2112 79.3907 77.9487 78.2097 78.4736 77.3567C78.9985 76.4381 80.1796 76.1757 81.0981 76.7006C82.2791 77.4223 83.3946 78.2753 84.3787 79.2595C85.1661 79.9812 85.1661 81.1622 84.4444 81.9496C84.0507 82.3432 83.5914 82.4745 83.0665 82.4745ZM69.2223 77.9472H65.4168C64.367 77.9472 63.5141 77.0943 63.5141 76.0445C63.5141 74.9947 64.367 74.1417 65.4168 74.1417H69.2223C70.2721 74.1417 71.0595 74.9947 71.0595 76.0445C71.0595 77.0943 70.2721 77.9472 69.2223 77.9472ZM54.1315 77.9472H50.326C49.2762 77.9472 48.4233 77.0943 48.4233 76.0445C48.4233 74.9947 49.2762 74.1417 50.326 74.1417H54.1315C55.1813 74.1417 55.9687 74.9947 55.9687 76.0445C55.9687 77.0943 55.1813 77.9472 54.1315 77.9472ZM39.0407 77.9472H37.6629C36.7443 77.9472 35.8257 77.8816 34.9728 77.7504C33.923 77.5536 33.2012 76.635 33.3981 75.5852C33.5293 74.5354 34.5135 73.8793 35.5633 74.0105C36.2194 74.1417 36.9411 74.1417 37.6629 74.1417H39.0407C40.0905 74.1417 40.8779 74.9947 40.8779 76.0445C40.8779 77.0943 40.0905 77.9472 39.0407 77.9472ZM25.5902 72.3046C25.0653 72.3046 24.5404 72.1077 24.1467 71.6485C23.2282 70.5987 22.4408 69.4833 21.7847 68.2366C21.3254 67.3181 21.6535 66.137 22.5721 65.6777C23.4906 65.1528 24.606 65.5465 25.1309 66.4651C25.6558 67.4493 26.3119 68.3678 27.0337 69.2208C27.6898 70.0082 27.6242 71.1892 26.8368 71.8453C26.4432 72.1734 26.0495 72.3046 25.5902 72.3046ZM21.5879 58.2636C21.5223 58.2636 21.391 58.2636 21.3254 58.2636C20.2756 58.0667 19.5539 57.0826 19.7507 56.0984C19.9476 54.7205 20.3412 53.3427 20.8005 52.0304C21.1942 51.1118 22.3096 50.5869 23.2938 50.9806C24.2124 51.3743 24.7373 52.4241 24.3436 53.4083C23.9499 54.4581 23.6218 55.5735 23.4906 56.6889C23.3594 57.6074 22.5064 58.2636 21.5879 58.2636ZM29.7894 46.1253C29.1333 46.1253 28.4772 45.7973 28.1491 45.2067C27.6242 44.2882 27.8866 43.1728 28.8052 42.6479C30.0518 41.9261 31.2985 41.3356 32.6763 40.9419C33.6605 40.6139 34.7103 41.2044 35.0384 42.1886C35.3008 43.2384 34.7759 44.2882 33.7261 44.5506C32.6763 44.8787 31.6921 45.338 30.708 45.8629C30.3799 46.0597 30.0518 46.1253 29.7894 46.1253ZM78.408 43.9601H74.6681C73.6183 43.9601 72.7654 43.1728 72.7654 42.123C72.7654 41.0732 73.6183 40.2202 74.6681 40.2202H78.408C79.4578 40.2202 80.3108 41.0732 80.3108 42.123C80.3108 43.1728 79.4578 43.9601 78.408 43.9601ZM63.3172 43.9601H59.5773C58.5275 43.9601 57.6746 43.1728 57.6746 42.123C57.6746 41.0732 58.5275 40.2202 59.5773 40.2202H63.3172C64.367 40.2202 65.22 41.0732 65.22 42.123C65.22 43.1728 64.367 43.9601 63.3172 43.9601ZM48.2264 43.9601H44.4865C43.4367 43.9601 42.5838 43.1728 42.5838 42.123C42.5838 41.0732 43.4367 40.2202 44.4865 40.2202H48.2264C49.2762 40.2202 50.1292 41.0732 50.1292 42.123C50.1292 43.1728 49.2762 43.9601 48.2264 43.9601Z"
            fill="#353535" />
        <path fill-rule="evenodd" clip-rule="evenodd"
            d="M87.7249 44.0258C87.5281 44.0258 87.3312 43.8946 87.2 43.6977L78.8672 30.5753C74.0119 27.5571 71.125 22.3081 71.125 16.5999C71.125 7.41418 78.6048 0 87.7249 0C96.9106 0 104.325 7.41418 104.325 16.5999C104.325 22.3081 101.438 27.5571 96.6481 30.5753L88.3154 43.6977C88.1842 43.8946 87.9873 44.0258 87.7249 44.0258ZM87.7249 25.5231C82.804 25.5231 78.8016 21.5208 78.8016 16.5999C78.8016 11.679 82.804 7.67663 87.7249 7.67663C92.6458 7.67663 96.6481 11.679 96.6481 16.5999C96.6481 21.5208 92.6458 25.5231 87.7249 25.5231Z"
            fill="#FCB300" />
        <path fill-rule="evenodd" clip-rule="evenodd"
            d="M87.7231 7.15173C92.9721 7.15173 97.2369 11.4165 97.2369 16.6655C97.2369 21.9145 92.9721 26.1793 87.7231 26.1793C82.4741 26.1793 78.2093 21.9145 78.2093 16.6655C78.2093 11.4165 82.4741 7.15173 87.7231 7.15173ZM87.7231 8.92326C91.9879 8.92326 95.4654 12.4007 95.4654 16.6655C95.4654 20.9303 91.9879 24.4077 87.7231 24.4077C83.4583 24.4077 79.9809 20.9303 79.9809 16.6655C79.9809 12.4007 83.4583 8.92326 87.7231 8.92326ZM79.1935 31.1002L78.8655 30.5753C78.603 30.4441 78.3406 30.2472 78.0781 30.116H86.214C86.4765 30.116 86.7389 30.3128 86.7389 30.5753C86.7389 30.9033 86.4765 31.1002 86.214 31.1002H79.1935Z"
            fill="#FFB500" />
        <path fill-rule="evenodd" clip-rule="evenodd"
            d="M21.3887 112C21.1919 112 21.0607 111.869 20.9294 111.738L14.0402 100.846C10.0378 98.2871 7.67578 93.9567 7.67578 89.2326C7.67578 81.6872 13.8433 75.5197 21.3887 75.5197C28.9997 75.5197 35.1673 81.6872 35.1673 89.2326C35.1673 93.9567 32.7396 98.2871 28.8029 100.846L21.848 111.738C21.7824 111.869 21.5856 112 21.3887 112ZM21.3887 96.6468C17.3208 96.6468 13.9746 93.3006 13.9746 89.2326C13.9746 85.1646 17.3208 81.8184 21.3887 81.8184C25.4567 81.8184 28.8029 85.1646 28.8029 89.2326C28.8029 93.3006 25.4567 96.6468 21.3887 96.6468Z"
            fill="#DC2519" />
        <path fill-rule="evenodd" clip-rule="evenodd"
            d="M21.3891 81.4247C25.7851 81.4247 29.2626 84.9677 29.2626 89.2981C29.2626 93.6285 25.7851 97.1716 21.3891 97.1716C17.0587 97.1716 13.5156 93.6285 13.5156 89.2981C13.5156 84.9677 17.0587 81.4247 21.3891 81.4247ZM21.3891 82.8682C24.9321 82.8682 27.8191 85.7551 27.8191 89.2981C27.8191 92.8412 24.9321 95.7281 21.3891 95.7281C17.846 95.7281 14.9591 92.8412 14.9591 89.2981C14.9591 85.7551 17.846 82.8682 21.3891 82.8682Z"
            fill="#C1554E" />
    </g>
    <defs>
        <clipPath id="clip0_1843_3737">
            <rect width="112" height="112" fill="white" />
        </clipPath>
    </defs>
</svg>