<svg width="25" height="24" viewBox="0 0 25 24" fill="none" xmlns="http://www.w3.org/2000/svg">
<path d="M19.5004 14.9996V3.9996C19.4997 3.8494 19.4652 3.70128 19.3994 3.56624C19.3336 3.43121 19.2383 3.31273 19.1204 3.2196C19.0042 3.12562 18.8685 3.05887 18.7231 3.02426C18.5778 2.98965 18.4265 2.98806 18.2804 3.0196L9.28043 5.0196C9.05825 5.06971 8.85983 5.19415 8.71799 5.37236C8.57616 5.55056 8.4994 5.77184 8.50043 5.9996V14.3396C7.81776 14.0173 7.04899 13.9251 6.30946 14.0767C5.56993 14.2284 4.89951 14.6157 4.39877 15.1807C3.89803 15.7456 3.59397 16.4577 3.53221 17.2101C3.47045 17.9625 3.65432 18.7146 4.05623 19.3536C4.45814 19.9927 5.05642 20.4842 5.76133 20.7544C6.46623 21.0246 7.23974 21.0589 7.96583 20.8523C8.69192 20.6456 9.33142 20.2091 9.78841 19.6083C10.2454 19.0074 10.4952 18.2745 10.5004 17.5196C10.5108 17.3464 10.5108 17.1728 10.5004 16.9996V6.7996L17.5004 5.2496V12.3396C16.8174 12.0171 16.0481 11.925 15.3082 12.0769C14.5683 12.2289 13.8977 12.6168 13.3971 13.1825C12.8965 13.7481 12.5928 14.4609 12.5319 15.2137C12.4709 15.9666 12.6558 16.719 13.0588 17.3578C13.4619 17.9966 14.0613 18.4874 14.7671 18.7566C15.4729 19.0257 16.2469 19.0585 16.973 18.8502C17.699 18.6419 18.3379 18.2036 18.7936 17.6013C19.2494 16.9989 19.4974 16.2649 19.5004 15.5096C19.5099 15.3397 19.5099 15.1695 19.5004 14.9996Z" fill="white"/>
</svg>
