<svg width="24" height="24" viewBox="0 0 24 24" fill="none" xmlns="http://www.w3.org/2000/svg">
    <path
        d="M3.36666 8.15002C3.36666 8.52739 3.06073 8.83335 2.68333 8.83335C2.30594 8.83335 2 8.52739 2 8.15002V7.12502C2 5.61544 3.22375 4.39169 4.73333 4.39169H18.9369V2.68336C18.9369 2.40168 19.1097 2.14886 19.3722 2.04662C19.6346 1.94439 19.9329 2.01368 20.1235 2.22115L22.3199 4.61281C22.5599 4.8742 22.5599 5.27582 22.3199 5.53723L20.1235 7.92889C19.9329 8.13635 19.6346 8.20564 19.3722 8.10342C19.1097 8.00119 18.9369 7.74836 18.9369 7.46669V5.75836H4.73333C3.97854 5.75836 3.36666 6.37021 3.36666 7.12502V8.15002ZM21.1333 16.35C21.1333 15.9726 21.4392 15.6667 21.8166 15.6667C22.194 15.6667 22.4999 15.9726 22.4999 16.35V17.375C22.4999 18.8846 21.2762 20.1083 19.7666 20.1083H5.5631V21.8167C5.5631 22.0983 5.39025 22.3512 5.12778 22.4534C4.86531 22.5556 4.56699 22.4863 4.37646 22.2789L2.18004 19.8872C1.93999 19.6258 1.93999 19.2242 2.18004 18.9628L4.37646 16.5711C4.56699 16.3637 4.86531 16.2943 5.12778 16.3966C5.39025 16.4988 5.5631 16.7517 5.5631 17.0333V18.7417H19.7666C20.5214 18.7417 21.1333 18.1298 21.1333 17.375V16.35Z"
        fill="white" />
</svg>