<svg width="16" height="16" viewBox="0 0 16 16" fill="none" xmlns="http://www.w3.org/2000/svg">
<g clip-path="url(#clip0_109_1889)">
<path d="M12.666 9.99973V2.6664C12.6655 2.56626 12.6425 2.46752 12.5986 2.37749C12.5548 2.28747 12.4912 2.20849 12.4126 2.1464C12.3352 2.08375 12.2447 2.03925 12.1478 2.01618C12.0509 1.9931 11.95 1.99204 11.8526 2.01307L5.85264 3.3464C5.70452 3.3798 5.57224 3.46277 5.47768 3.58157C5.38313 3.70037 5.33196 3.8479 5.33264 3.99973V9.55973C4.87753 9.34488 4.36502 9.28339 3.872 9.38448C3.37898 9.48558 2.93203 9.74381 2.5982 10.1204C2.26437 10.4971 2.06167 10.9718 2.0205 11.4734C1.97932 11.975 2.1019 12.4764 2.36984 12.9024C2.63778 13.3284 3.03664 13.6561 3.50657 13.8362C3.97651 14.0164 4.49219 14.0393 4.97624 13.9015C5.4603 13.7638 5.88664 13.4728 6.1913 13.0722C6.49596 12.6716 6.66251 12.183 6.66597 11.6797C6.67287 11.5643 6.67287 11.4485 6.66597 11.3331V4.53307L11.3326 3.49973V8.2264C10.8773 8.01142 10.3644 7.94997 9.87118 8.05129C9.37791 8.15261 8.93083 8.41123 8.59708 8.78831C8.26333 9.16539 8.06092 9.64057 8.02026 10.1425C7.97959 10.6444 8.10287 11.146 8.37157 11.5719C8.64026 11.9977 9.03988 12.325 9.5104 12.5044C9.98093 12.6838 10.497 12.7057 10.981 12.5668C11.465 12.4279 11.8909 12.1358 12.1948 11.7342C12.4986 11.3326 12.6639 10.8433 12.666 10.3397C12.6723 10.2265 12.6723 10.113 12.666 9.99973Z" fill="#777777"/>
</g>
<defs>
<clipPath id="clip0_109_1889">
<rect width="16" height="16" fill="white"/>
</clipPath>
</defs>
</svg>
