<svg width="24" height="26" viewBox="0 0 24 26" fill="none" xmlns="http://www.w3.org/2000/svg">
<path fill-rule="evenodd" clip-rule="evenodd" d="M23.0986 18.0836C22.5319 17.5738 22.2056 16.8288 22.2056 16.0445V9.57841C22.2056 4.27943 17.6386 0 12 0C6.36139 0 1.79437 4.27943 1.79437 9.57841V16.0445C1.79441 16.8288 1.46814 17.5738 0.901372 18.0836C-1.02494 19.8947 0.340062 22.9801 3.07007 22.9801H7.91775C8.53626 24.7917 10.1696 26 12 26C13.8304 26 15.4637 24.7917 16.0823 22.9801H20.9299C23.6599 22.9801 25.0249 19.8947 23.0986 18.0836ZM11.9999 23.9862C11.2405 23.9832 10.525 23.612 10.0608 22.9801H13.8879C13.4384 23.602 12.7426 23.9728 11.9999 23.9862ZM20.9426 20.9679C21.4064 21.012 21.8479 20.7505 22.0524 20.3105C22.1517 20.0455 22.0613 19.7435 21.8355 19.5861C20.8744 18.6845 20.3187 17.3989 20.3047 16.0445V9.57841C20.3047 5.4063 16.5796 2.01227 12.0126 2.01227C7.4456 2.01227 3.72054 5.4063 3.72054 9.57841V16.0445C3.70655 17.3989 3.15087 18.6845 2.1897 19.5861C1.9592 19.7395 1.86322 20.0423 1.96007 20.3105C2.16456 20.7505 2.60614 21.012 3.06994 20.9679H20.9426Z" fill="#FAF8FF"/>
</svg>
