<svg width="130" height="130" viewBox="0 0 130 130" fill="none" xmlns="http://www.w3.org/2000/svg">
    <path fill-rule="evenodd" clip-rule="evenodd"
        d="M84.1939 107.381C82.9142 116.981 74.6848 124.181 65.0006 124.181C55.3163 124.181 47.087 116.981 45.805 107.382L45.1875 102.759H84.8101L84.1939 107.381Z"
        fill="#9F4742" />
    <path fill-rule="evenodd" clip-rule="evenodd"
        d="M62.1441 123.968C53.7398 122.715 46.9588 116.021 45.805 107.382L45.1875 102.759H79.0972L78.481 107.381C77.3292 116.02 70.5482 122.715 62.1441 123.968Z"
        fill="#C1554E" />
    <path fill-rule="evenodd" clip-rule="evenodd"
        d="M22.6562 48.161C22.6562 24.8113 41.6487 5.81958 64.9982 5.81958C88.3481 5.81958 107.338 24.8113 107.338 48.161V94.1053H22.6562V48.161Z"
        fill="#EAA600" />
    <path fill-rule="evenodd" clip-rule="evenodd"
        d="M22.6562 48.161C22.6562 35.5936 28.1599 24.291 36.8816 16.5301C43.1907 12.7929 50.5466 10.6438 58.3969 10.6438C81.7468 10.6438 100.736 29.6355 100.736 52.9852V94.1053H22.6562V48.161Z"
        fill="#FCB300" />
    <path fill-rule="evenodd" clip-rule="evenodd"
        d="M107.736 90.0024C112.386 90.0024 116.166 93.7818 116.166 98.4321C116.166 103.082 112.386 106.862 107.736 106.862H22.2576C17.6075 106.862 13.8281 103.082 13.8281 98.4321C13.8281 93.7821 17.6073 90.0024 22.2576 90.0024H107.736Z"
        fill="#EAA600" />
    <path fill-rule="evenodd" clip-rule="evenodd"
        d="M110.121 106.518C109.365 106.741 108.565 106.862 107.736 106.862H22.2576C17.6075 106.862 13.8281 103.082 13.8281 98.4321C13.8281 96.9237 14.226 95.5071 14.9222 94.2813C15.6783 94.0581 16.4784 93.938 17.3064 93.938H102.785C107.435 93.938 111.215 97.7174 111.215 102.368C111.215 103.876 110.817 105.292 110.121 106.518Z"
        fill="#FCB300" />
</svg>