<svg width="88" height="88" viewBox="0 0 88 88" fill="none" xmlns="http://www.w3.org/2000/svg">
    <path
        d="M86.2372 44C86.2372 34.9744 82.6518 26.3184 76.2697 19.9363C69.8876 13.5542 61.2316 9.96875 52.2059 9.96875C43.1803 9.96875 34.5243 13.5542 28.1422 19.9363C21.7601 26.3184 18.1747 34.9744 18.1747 44C18.1747 53.0257 21.7601 61.6816 28.1422 68.0637C34.5243 74.4458 43.1803 78.0312 52.2059 78.0312C56.675 78.0312 61.1003 77.151 65.2291 75.4408C69.358 73.7305 73.1096 71.2238 76.2697 68.0637C79.4298 64.9036 81.9365 61.1521 83.6467 57.0232C85.3569 52.8943 86.2372 48.469 86.2372 44Z"
        fill="#FCB300" />
    <path fill-rule="evenodd" clip-rule="evenodd"
        d="M23.7545 24.7473C19.3805 24.7542 15.1876 26.4945 12.0945 29.5872C10.8405 30.7999 10.2686 32.3428 10.3456 33.7728C10.4198 35.2028 11.0771 36.4842 12.0368 37.4412C12.9938 38.3955 14.2836 39.0445 15.7163 39.116C17.1463 39.1875 18.6862 38.6072 19.8962 37.3422L19.8716 37.3642C20.3769 36.8477 20.9813 36.4386 21.6486 36.1612C22.3158 35.8839 23.032 35.744 23.7545 35.75C26.8785 35.75 29.2545 38.1233 29.2545 41.25C29.2545 44.374 26.8785 46.75 23.7545 46.75H23.771C22.033 46.7225 20.5481 47.4099 19.5911 48.4714C18.6756 49.5155 18.1789 50.8615 18.1968 52.25C18.1968 53.5975 18.6395 54.9697 19.5938 56.0312C20.5453 57.09 22.0304 57.772 23.7656 57.75H23.771C24.4585 57.7472 24.9893 57.6401 25.4375 57.5823C25.8198 57.6648 26.1992 57.7473 26.5925 57.7473C29.6477 57.7473 32.0045 60.0986 32.0045 63.2473C32.0045 66.3988 29.6477 68.7473 26.5925 68.7473H23.6693C22.2324 68.7609 20.8071 68.4879 19.4769 67.9443C18.1468 67.4008 16.9383 66.5977 15.9221 65.5817C14.9059 64.5658 14.1024 63.3575 13.5585 62.0274C13.0146 60.6973 12.7413 59.2722 12.7545 57.8353V57.8573C12.782 56.1165 12.0946 54.6315 11.0331 53.6772C9.98997 52.7592 8.64399 52.2596 7.25451 52.2747C5.90701 52.2747 4.53476 52.7229 3.47326 53.6772C2.41451 54.6315 1.7408 56.1137 1.76005 57.8517C1.77105 69.8912 11.627 79.75 23.6693 79.75H26.5925C35.6262 79.75 43.0045 72.2865 43.0045 63.25C43.0045 62.0125 42.7021 60.8988 42.4298 59.7741C44.8086 59.4358 47.2066 58.8198 49.4781 57.3045C49.6283 57.2043 49.7573 57.0754 49.8577 56.9254C49.9582 56.7753 50.0281 56.607 50.0635 56.4299C50.0989 56.2528 50.0989 56.0704 50.0639 55.8933C50.0288 55.7161 49.9591 55.5475 49.8589 55.3973C49.7587 55.2471 49.6298 55.1181 49.4797 55.0176C49.3297 54.9172 49.1614 54.8474 48.9843 54.812C48.8072 54.7766 48.6248 54.7764 48.4477 54.8115C48.2705 54.8466 48.1021 54.9162 47.9518 55.0164C45.6583 56.5482 43.3263 57.3183 41.0548 57.4531C41.0512 57.4531 41.0474 57.4531 41.0438 57.4531C41.1098 57.4476 41.0575 57.4448 40.8512 57.4531C40.6403 57.4606 40.434 57.5164 40.2482 57.6166C40.0623 57.7167 39.902 57.8583 39.7797 58.0303C39.6574 58.2024 39.5762 58.4003 39.5427 58.6087C39.5092 58.8171 39.5241 59.0305 39.5863 59.2323C39.9933 60.5523 40.2545 61.8778 40.2545 63.2473C40.2545 70.7906 34.111 76.9973 26.5925 76.9973H23.6693C13.1203 76.9973 4.50451 68.3843 4.50451 57.8353C4.50454 57.8298 4.50454 57.8243 4.50451 57.8188C4.49076 56.7683 4.82621 56.166 5.31571 55.7233C5.85664 55.2643 6.54519 55.0162 7.25451 55.0247C7.98876 55.0247 8.70381 55.2833 9.19331 55.7233C9.68556 56.1633 10.0183 56.7683 10.0045 57.8188C10.0045 57.8243 10.0045 57.8298 10.0045 57.8353C10.0005 59.6311 10.3513 61.41 11.0368 63.0699C11.7222 64.7298 12.729 66.2379 13.9989 67.5076C15.2689 68.7773 16.7771 69.7836 18.4371 70.4688C20.0971 71.1539 21.8763 71.5044 23.6721 71.5H26.5925C31.108 71.5 34.7545 67.8232 34.7545 63.25C34.7545 58.674 31.108 55 26.5925 55C26.323 55 26.059 54.9615 25.8033 54.8872C25.6252 54.8337 25.438 54.8168 25.2532 54.8377C24.6207 54.9092 24.145 55 23.7545 55C23.7472 54.9999 23.7399 54.9999 23.7325 55C22.6848 55.0138 22.0798 54.6783 21.6398 54.1888C21.1822 53.6475 20.936 52.9587 20.9468 52.25C20.9468 51.5158 21.1971 50.8007 21.6398 50.3112C22.0798 49.819 22.6848 49.4862 23.7325 49.5C23.7399 49.5001 23.7472 49.5001 23.7545 49.5C28.3223 49.5 32.0045 45.815 32.0045 41.25C32.0091 39.617 31.5282 38.0195 30.6228 36.6604C29.7174 35.3013 28.4285 34.242 26.9198 33.6172C25.411 32.9923 23.7506 32.8302 22.1494 33.1512C20.5482 33.4722 19.0785 34.2619 17.9272 35.42C17.9198 35.4291 17.9124 35.4383 17.9052 35.4475C17.1737 36.212 16.5083 36.4045 15.8483 36.3715C15.1382 36.3141 14.473 36.0015 13.9756 35.4915C13.4628 34.9964 13.1471 34.3319 13.0874 33.6215C13.0544 32.9615 13.2441 32.3016 14.0058 31.5646C14.0132 31.5573 14.0206 31.5498 14.0278 31.5424C16.6045 28.9657 20.0967 27.5143 23.7408 27.5055C23.7463 27.5056 23.7517 27.5056 23.7572 27.5055C31.3087 27.5055 37.5072 33.704 37.5072 41.2555C37.5031 44.0826 36.6147 46.8375 34.9664 49.1343C34.8377 49.3156 34.7548 49.5255 34.725 49.7459C34.6952 49.9663 34.7195 50.1906 34.7955 50.3997C34.8715 50.6087 34.9969 50.7962 35.1612 50.946C35.3256 51.0958 35.524 51.2036 35.7391 51.26C37.5184 51.7275 39.1655 52.063 40.722 51.9695C42.1437 51.887 43.7251 51.5432 45.2953 50.4404C46.8628 49.3349 48.411 47.5529 50.1902 44.6544C50.1949 44.649 50.1995 44.6435 50.204 44.638C50.2728 44.5225 50.3501 44.4122 50.4351 44.308C53.3556 40.8155 57.5822 38.5 62.2573 38.5C71.6623 38.5 78.7573 47.4155 78.7573 57.75C78.7573 59.0425 78.6445 60.3158 78.4273 61.5506C78.3935 61.7296 78.3956 61.9135 78.4335 62.0917C78.4714 62.2699 78.5443 62.4387 78.648 62.5885C78.7517 62.7383 78.8841 62.8658 79.0376 62.964C79.191 63.0621 79.3625 63.1289 79.542 63.1602C79.7214 63.1915 79.9053 63.1869 80.0829 63.1466C80.2606 63.1063 80.4284 63.031 80.5767 62.9252C80.7251 62.8195 80.8508 62.6852 80.9468 62.5304C81.0429 62.3756 81.1073 62.2034 81.1362 62.0235C81.382 60.6123 81.5061 59.1825 81.5073 57.75C81.5073 46.145 73.3865 35.75 62.2573 35.75C56.6692 35.75 51.6835 38.5138 48.3065 42.5646C48.3028 42.5682 48.2992 42.5718 48.2956 42.5755C48.1306 42.779 47.9849 42.9936 47.8501 43.2163C46.1836 45.9333 44.8305 47.4101 43.714 48.1938C42.6003 48.9776 41.7175 49.1563 40.5625 49.2251C39.9685 49.2608 38.9978 49.0106 38.1563 48.8593C39.391 46.5603 40.2572 44.0358 40.2572 41.2555C40.2572 32.197 32.813 24.7555 23.7572 24.7555L23.9497 24.7664C23.886 24.7564 23.8217 24.751 23.7572 24.75L23.7545 24.7473ZM62.2546 43.9973C59.3671 43.9973 56.6777 45.4107 54.6454 47.8472C54.5199 47.9843 54.4234 48.1455 54.3619 48.3209C54.3004 48.4963 54.2751 48.6824 54.2875 48.8679C54.3 49.0534 54.3499 49.2343 54.4342 49.4C54.5186 49.5656 54.6358 49.7124 54.7785 49.8315C54.9212 49.9506 55.0867 50.0395 55.2648 50.0928C55.4428 50.1462 55.6297 50.163 55.8144 50.142C55.9992 50.1211 56.1777 50.0629 56.3393 49.971C56.5009 49.8791 56.6422 49.7553 56.7546 49.6073C58.3771 47.6603 60.2278 46.7473 62.2546 46.7473C66.2201 46.7473 70.5046 51.0896 70.5046 57.7473C70.5046 64.4078 66.2201 68.7473 62.2546 68.7473C60.2306 68.7473 58.3826 67.8397 56.7601 65.8954H56.7546C55.6546 64.5754 54.1834 63.888 52.7699 63.844C51.3928 63.8145 50.0529 64.292 49.0051 65.1859C47.9365 66.0565 47.2258 67.2899 47.0085 68.651C46.7995 70.0507 47.2037 71.6183 48.3065 72.9383C51.6835 76.989 56.6666 79.7473 62.2546 79.7473C67.8206 79.7473 72.6908 77.11 76.0981 73.062C76.2142 72.9237 76.3019 72.7639 76.3562 72.5917C76.4106 72.4195 76.4305 72.2382 76.4148 72.0583C76.3991 71.8784 76.3481 71.7033 76.2647 71.5431C76.1814 71.3829 76.0674 71.2408 75.929 71.1247C75.7907 71.0086 75.6308 70.9207 75.4586 70.8664C75.2864 70.812 75.1052 70.7923 74.9253 70.808C74.7454 70.8237 74.5702 70.8747 74.41 70.958C74.2498 71.0414 74.1077 71.1554 73.9916 71.2937C71.0298 74.8137 66.9598 76.9973 62.2546 76.9973C57.5741 76.9973 53.339 74.6872 50.4185 71.1809C50.4185 71.1791 50.4185 71.1774 50.4185 71.1756C49.753 70.3836 49.6294 69.7097 49.7256 69.058C49.8514 68.3656 50.2211 67.7411 50.7678 67.298C51.326 66.8305 52.0274 66.5665 52.6846 66.5885C53.3419 66.6105 53.9854 66.858 54.6454 67.6528C56.6804 70.092 59.3643 71.4973 62.2546 71.4973C68.1286 71.4973 73.2546 65.5986 73.2546 57.7473C73.2546 49.8988 68.1286 43.9973 62.2546 43.9973Z"
        fill="black" />
    <path fill-rule="evenodd" clip-rule="evenodd"
        d="M35.2493 15.1277C35.0275 15.1296 34.8096 15.1851 34.6139 15.2895C34.4182 15.3939 34.2507 15.5441 34.1256 15.7273C34.0005 15.9104 33.9215 16.1212 33.8955 16.3414C33.8695 16.5617 33.8971 16.7851 33.9761 16.9923C37.6033 26.4138 45.1137 32.6673 53.6579 32.9863C53.6597 32.9863 53.6614 32.9863 53.6633 32.9863C57.5573 33.1265 61.4266 32.01 64.8833 29.7797C65.1584 29.6016 65.3607 29.3312 65.454 29.0171C65.5473 28.7029 65.5253 28.3659 65.3921 28.0665L62.5321 21.6179C62.3861 21.2887 62.1166 21.03 61.7819 20.8973C61.4471 20.7646 61.0738 20.7687 60.7419 20.9084C57.8251 22.1408 54.6707 22.709 51.5073 22.5721C45.8863 22.2971 40.4688 19.8221 36.2393 15.5376C36.1101 15.4065 35.956 15.3027 35.7859 15.2323C35.6159 15.1619 35.4334 15.1263 35.2493 15.1277ZM39.0994 20.8642C42.8724 23.309 46.9589 25.102 51.3727 25.3192C51.3745 25.3192 51.3762 25.3192 51.3781 25.3192C54.48 25.454 57.5134 24.728 60.4394 23.6913L62.3314 27.9537C59.5979 29.4827 56.6994 30.3463 53.7652 30.2418C48.0177 30.0273 42.7266 26.5457 39.0994 20.8642Z"
        fill="black" />
    <path fill-rule="evenodd" clip-rule="evenodd"
        d="M49.5467 8.25274C49.3236 8.25494 49.1043 8.31151 48.9079 8.4174C48.7115 8.52328 48.5436 8.67532 48.4191 8.86051L45.1191 13.8105C45.0186 13.9607 44.9486 14.1292 44.9133 14.3065C44.878 14.4837 44.8781 14.6662 44.9133 14.8434C44.9486 15.0207 45.0183 15.1893 45.1188 15.3396C45.2192 15.4898 45.3483 15.6188 45.4986 15.7191L50.4487 19.0191C50.5992 19.1194 50.7679 19.189 50.9454 19.2239C51.1228 19.2588 51.3055 19.2583 51.4828 19.2225C51.6601 19.1868 51.8286 19.1164 51.9786 19.0154C52.1287 18.9144 52.2573 18.7848 52.3571 18.6341L55.6572 13.6896C55.7574 13.5391 55.827 13.3703 55.8619 13.1928C55.8969 13.0154 55.8964 12.8326 55.8606 12.6554C55.8248 12.4781 55.7545 12.3096 55.6535 12.1595C55.5525 12.0095 55.4229 11.8809 55.2721 11.781L50.3277 8.48101C50.0964 8.32788 49.8241 8.24829 49.5467 8.25274ZM49.9454 11.5308L52.6047 13.3073L50.8309 15.9666L48.1662 14.1928L49.9454 11.5308Z"
        fill="black" />
    <path fill-rule="evenodd" clip-rule="evenodd"
        d="M79.4199 67.7188C79.4199 68.0834 79.2751 68.4332 79.0172 68.691C78.7593 68.9489 78.4096 69.0938 78.0449 69.0938C77.6802 69.0938 77.3305 68.9489 77.0727 68.691C76.8148 68.4332 76.6699 68.0834 76.6699 67.7188C76.6699 67.3541 76.8148 67.0043 77.0727 66.7465C77.3305 66.4886 77.6802 66.3438 78.0449 66.3438C78.4096 66.3438 78.7593 66.4886 79.0172 66.7465C79.2751 67.0043 79.4199 67.3541 79.4199 67.7188Z"
        fill="black" />
</svg>