<svg width="25" height="24" viewBox="0 0 25 24" fill="none" xmlns="http://www.w3.org/2000/svg">
<path fill-rule="evenodd" clip-rule="evenodd" d="M8.75 4.2337C7.50475 4.61395 6.10625 5.47745 5.21525 6.4162C4.2175 7.46795 3 9.61295 3 10.3194C3 10.6104 2.61825 10.9314 1.912 11.2339C0.48275 11.8467 0 12.9902 0 15.7629C0 19.1912 0.6505 19.9999 3.40775 19.9999C5.77125 19.9999 5.75 20.0377 5.75 15.8497C5.75 13.8237 5.6355 12.0032 5.49125 11.7334C5.14175 11.0807 4.25 11.0924 4.25 11.7499C4.25 12.0249 4.3625 12.2499 4.5 12.2499C4.65425 12.2499 4.75 13.5417 4.75 15.6249V18.9999H3.375C1.33625 18.9999 0.999 18.5644 1.00375 15.9374C1.0085 13.1737 1.37925 12.4892 3.0625 12.1352C3.4405 12.0554 3.75 11.8339 3.75 11.6424C3.75 10.7932 4.911 8.38745 5.818 7.35695C7.33475 5.63395 8.431 5.17395 11.3232 5.0477C14.3075 4.91745 15.6353 5.2472 17.2418 6.51695C18.464 7.4832 20 9.8472 20 10.7627C20 11.6919 20.47 12.2499 21.253 12.2499C22.2903 12.2499 22.7908 13.1357 22.941 15.2377C23.158 18.2677 22.7088 18.9999 20.634 18.9999C19.6513 18.9999 19.2638 18.8964 19.1518 18.6044C19.0683 18.3869 19 16.9887 19 15.4974C19 13.4202 19.0877 12.6979 19.375 12.4107C19.9083 11.8774 19.8438 11.2499 19.2558 11.2499C18.2043 11.2499 17.9543 12.2049 18.0427 15.8817C18.1392 19.8824 18.2103 19.9999 20.5315 19.9999C22.5217 19.9999 23.1397 19.7039 23.7393 18.4632C24.1378 17.6384 24.2463 16.9354 24.2325 15.2654C24.2208 13.8372 24.1435 13.2912 24 13.6249C23.8078 14.0724 23.7833 14.0547 23.7675 13.4567C23.7447 12.5867 22.6742 11.3279 21.7927 11.1344C21.2292 11.0104 21.044 10.7767 20.8065 9.88895C20.6458 9.28795 20.1733 8.29095 19.7565 7.67345C17.9198 4.9517 15.8548 3.98845 11.928 4.02145C10.524 4.0332 9.09375 4.1287 8.75 4.2337ZM9.0195 13.1014C8.832 13.3274 8.75725 14.3854 8.80375 16.1582C8.8655 18.5079 8.93325 18.8802 9.3125 18.9527C9.7095 19.0289 9.75 18.7589 9.75 16.0329C9.75 13.0762 9.58625 12.4187 9.0195 13.1014ZM0.09 15.7499C0.09 17.0562 0.13225 17.5904 0.18375 16.9374C0.23525 16.2844 0.23525 15.2154 0.18375 14.5624C0.13225 13.9094 0.09 14.4437 0.09 15.7499ZM14.6667 13.9167C14.575 14.0082 14.5 15.0852 14.5 16.3099C14.5 18.2957 14.5472 18.5277 14.9375 18.4532C15.2952 18.3849 15.3888 18.0522 15.4502 16.6277C15.5525 14.2572 15.2775 13.3057 14.6667 13.9167ZM10.3025 16.3124C10.36 17.9469 10.4528 18.3749 10.75 18.3749C11.0472 18.3749 11.14 17.9469 11.1975 16.3124C11.266 14.3667 11.2408 14.2499 10.75 14.2499C10.2592 14.2499 10.234 14.3667 10.3025 16.3124ZM7.672 14.6614C7.43175 14.9014 7.456 17.6932 7.6995 17.8437C8.23575 18.1752 8.524 17.5152 8.45125 16.1214C8.38075 14.7759 8.09425 14.2389 7.672 14.6614ZM13.172 14.6614C13.0772 14.7559 13 15.4774 13 16.2649C13 17.3224 13.1005 17.7349 13.3845 17.8439C13.9005 18.0419 14.0435 17.5744 13.9517 15.9897C13.8805 14.7584 13.5825 14.2509 13.172 14.6614ZM15.922 14.6614C15.6818 14.9014 15.706 17.6932 15.9495 17.8437C16.4858 18.1752 16.774 17.5152 16.7013 16.1214C16.6308 14.7759 16.3442 14.2389 15.922 14.6614ZM11.9167 15.1667C11.825 15.2582 11.75 15.8289 11.75 16.4349C11.75 17.3492 11.8245 17.5224 12.1875 17.4532C12.67 17.3612 12.874 16.5277 12.641 15.5994C12.4913 15.0027 12.2343 14.8492 11.9167 15.1667Z" fill="#FFE0E0"/>
</svg>
