<svg width="24" height="24" viewBox="0 0 24 24" fill="none" xmlns="http://www.w3.org/2000/svg">
    <path
        d="M21 11.4404H15C14.7239 11.4404 14.5 11.6643 14.5 11.9404C14.5 12.2166 14.7239 12.4404 15 12.4404H17.5V17.9404C17.5 18.2166 17.7239 18.4404 18 18.4404C18.2761 18.4404 18.5 18.2166 18.5 17.9404V12.4404H21C21.2761 12.4404 21.5 12.2166 21.5 11.9404C21.5 11.6643 21.2761 11.4404 21 11.4404ZM16 5.50061C16.0002 5.22461 15.7766 5.00018 15.5006 5H2.5C2.22388 5 2 5.22388 2 5.5C2 5.77612 2.22388 6 2.5 6H8.5V18.5C8.5 18.7761 8.72388 19 9 19C9.27612 19 9.5 18.7761 9.5 18.5V6H15.5C15.776 6.00018 15.9998 5.77655 16 5.50061Z"
        fill="#222222" stroke="#222222" stroke-width="0.5" />
</svg>