<svg width="25" height="24" viewBox="0 0 25 24" fill="none" xmlns="http://www.w3.org/2000/svg">
    <g clip-path="url(#clip0_1411_1039)">
        <path fill-rule="evenodd" clip-rule="evenodd"
            d="M4.49997 2.1415C4.49997 2.90675 4.38097 3.75525 4.23547 4.02725C4.08972 4.29925 3.92822 5.61375 3.87647 6.9485C3.75497 10.0815 2.99322 13.9592 2.16847 15.6447C0.759967 18.5233 0.661217 18.9698 1.31197 19.52C2.28797 20.3455 5.06172 21.8705 6.74997 22.5098C8.22197 23.067 8.73972 23.125 12.25 23.125C16.296 23.125 17.1992 22.9417 19.9892 21.5548C21.9025 20.6033 24.25 18.831 24.25 18.3377C24.25 17.9665 23.1782 15.2115 22.7177 14.3995C22.5695 14.1377 22.2877 12.9002 22.0915 11.6495C21.8955 10.3985 21.6462 8.84275 21.538 8.192C21.4295 7.5415 21.421 6.92275 21.519 6.817C21.6172 6.7115 21.5837 5.95 21.4447 5.125C21.3057 4.3 21.2115 2.978 21.2355 2.1875C21.2695 1.05425 21.199 0.75 20.902 0.75C20.2335 0.75 19.2247 2.4 18.9232 3.98675C18.6302 5.5285 18.25 6.02 18.25 4.857C18.25 4.16575 17.0975 2 16.7297 2C16.3227 2 15.1782 3.997 15.1515 4.75375C15.1192 5.6605 14.3147 5.83575 14.3087 4.9375C14.3042 4.26075 13.244 2.2 12.8315 2.06625C12.3697 1.9165 11.25 3.76925 11.25 4.683C11.25 5.33325 11.148 5.5 10.75 5.5C10.414 5.5 10.25 5.33325 10.25 4.992C10.25 4.39325 9.68722 3.07575 9.13847 2.39C8.75497 1.91075 8.74497 1.911 8.28397 2.40575C7.56947 3.17275 7.25272 3.88625 7.22222 4.796C7.19747 5.53825 7.16247 5.49375 6.88697 4.37025C6.44297 2.55875 5.35347 0.75 4.70647 0.75C4.59297 0.75 4.49997 1.37625 4.49997 2.1415ZM8.49997 4.75C8.49997 5.21675 8.56672 5.28325 8.79997 5.05C9.03322 4.81675 9.03322 4.68325 8.79997 4.45C8.56672 4.21675 8.49997 4.28325 8.49997 4.75ZM12.5 4.75C12.5 5.025 12.6125 5.25 12.75 5.25C12.8875 5.25 13 5.025 13 4.75C13 4.475 12.8875 4.25 12.75 4.25C12.6125 4.25 12.5 4.475 12.5 4.75ZM16.5 4.75C16.5 5.025 16.6125 5.25 16.75 5.25C16.8875 5.25 17 5.025 17 4.75C17 4.475 16.8875 4.25 16.75 4.25C16.6125 4.25 16.5 4.475 16.5 4.75ZM5.24997 4.98525C5.24997 5.26825 5.36247 5.5 5.49997 5.5C5.63747 5.5 5.74997 5.338 5.74997 5.13975C5.74997 4.9415 5.63747 4.71 5.49997 4.625C5.36247 4.54 5.24997 4.70225 5.24997 4.98525ZM20.0395 5C20.0395 5.34375 20.0962 5.4845 20.1655 5.3125C20.235 5.14075 20.235 4.8595 20.1655 4.6875C20.0962 4.51575 20.0395 4.65625 20.0395 5ZM5.37797 7.28925C5.29922 7.6115 5.07622 8.775 4.88272 9.875C4.68897 10.975 4.45422 12.1842 4.36097 12.5625L4.19172 13.25H7.06322H9.93447L10.0895 12.3125C10.1747 11.797 10.2457 11.0655 10.2472 10.6875C10.2515 9.603 11.0462 8.997 12.4375 9.0175C13.0905 9.02725 13.8395 9.11925 14.1017 9.222C14.5942 9.41525 15.2177 11.2467 15.239 12.5625L15.25 13.25H18.145H21.0397L20.864 11.5625C20.7672 10.6345 20.5895 9.6855 20.469 9.454C20.3485 9.22225 20.2482 8.716 20.2462 8.329C20.244 7.94175 20.1597 7.4995 20.0587 7.34575C19.9352 7.1585 17.5182 7.007 12.698 6.885L5.52122 6.7035L5.37797 7.28925ZM11.7967 10.3188C11.6512 10.494 11.4542 11.2253 11.3587 11.9438L11.1855 13.25H12.5927C13.9997 13.25 14 13.2498 14 12.4753C14 11.2692 13.296 10 12.6272 10C12.316 10 11.9422 10.1435 11.7967 10.3188ZM3.65872 15.3092C3.45647 15.758 3.05222 16.6838 2.76072 17.3665L2.23022 18.608L2.80272 19.0625C3.66847 19.75 5.20572 20.5483 6.87497 21.1768C8.69322 21.8615 9.24947 21.8932 9.25197 21.3125C9.25297 21.0718 9.36247 19.929 9.49547 18.773C9.82422 15.9128 10.2102 15.5 12.555 15.5C15.0437 15.5 15.39 15.9042 15.6287 19.0912C15.7285 20.4202 15.8915 21.558 15.9912 21.6195C16.2187 21.7603 18.5505 20.9093 19.875 20.202C21.2372 19.4745 22.7502 18.2712 22.7487 17.9165C22.7482 17.7563 22.4727 16.95 22.1367 16.125L21.5257 14.625L12.7762 14.5592L4.02647 14.4937L3.65872 15.3092ZM11.0482 17.1755C10.9205 17.4228 10.739 18.6095 10.645 19.8125L10.474 22H12.5812H14.6885L14.566 20.8125C14.4987 20.1595 14.372 19.0063 14.2842 18.25L14.1247 16.875L12.7027 16.8005C11.539 16.7395 11.2382 16.8078 11.0482 17.1755Z"
            fill="#FFE0E0" stroke="#C2534C" stroke-width="0.3" />
    </g>
    <defs>
        <clipPath id="clip0_1411_1039">
            <rect width="24" height="24" fill="white" transform="translate(0.5)" />
        </clipPath>
    </defs>
</svg>