<svg width="25" height="24" viewBox="0 0 25 24" fill="none" xmlns="http://www.w3.org/2000/svg">
<g id="location 7">
<path id="Vector" fill-rule="evenodd" clip-rule="evenodd" d="M19.5 9.00002C19.5023 10.4289 19.0652 11.8239 18.248 12.996H18.25L13.343 20.68C13.2526 20.8217 13.128 20.9382 12.9807 21.019C12.8333 21.0998 12.668 21.1421 12.5 21.1421C12.332 21.1421 12.1667 21.0998 12.0193 21.019C11.872 20.9382 11.7474 20.8217 11.657 20.68L6.774 13.027C6.14121 12.1271 5.72942 11.0908 5.57202 10.002C5.41462 8.91327 5.51605 7.80274 5.86807 6.7605C6.2201 5.71826 6.81281 4.77366 7.59815 4.00331C8.38348 3.23296 9.33932 2.65855 10.3881 2.32666C11.437 1.99477 12.5492 1.91475 13.6348 2.09308C14.7203 2.27142 15.7485 2.70309 16.6361 3.35309C17.5236 4.00309 18.2454 4.85312 18.743 5.83424C19.2406 6.81535 19.4999 7.89993 19.5 9.00002ZM12.5 13C13.5609 13 14.5783 12.5786 15.3284 11.8284C16.0786 11.0783 16.5 10.0609 16.5 9.00002C16.5 7.93915 16.0786 6.92174 15.3284 6.17159C14.5783 5.42144 13.5609 5.00002 12.5 5.00002C11.4391 5.00002 10.4217 5.42144 9.67157 6.17159C8.92143 6.92174 8.5 7.93915 8.5 9.00002C8.5 10.0609 8.92143 11.0783 9.67157 11.8284C10.4217 12.5786 11.4391 13 12.5 13Z" fill="#FFAAA5"/>
</g>
</svg>
