<svg width="24" height="24" viewBox="0 0 24 24" fill="none" xmlns="http://www.w3.org/2000/svg">
<g clip-path="url(#clip0_1411_1045)">
<path d="M2.625 15.375C2.4025 15.375 2.18499 15.441 1.99998 15.5646C1.81498 15.6882 1.67078 15.8639 1.58564 16.0695C1.50049 16.275 1.47821 16.5012 1.52162 16.7195C1.56503 16.9377 1.67217 17.1382 1.8295 17.2955C1.98684 17.4528 2.18729 17.56 2.40552 17.6034C2.62375 17.6468 2.84995 17.6245 3.05552 17.5394C3.26109 17.4542 3.43679 17.31 3.5604 17.125C3.68402 16.94 3.75 16.7225 3.75 16.5C3.75 16.2016 3.63147 15.9155 3.4205 15.7045C3.20952 15.4935 2.92337 15.375 2.625 15.375ZM2.625 16.875C2.55083 16.875 2.47833 16.853 2.41666 16.8118C2.35499 16.7706 2.30693 16.712 2.27855 16.6435C2.25016 16.575 2.24274 16.4996 2.25721 16.4268C2.27167 16.3541 2.30739 16.2873 2.35984 16.2348C2.41228 16.1824 2.4791 16.1467 2.55184 16.1322C2.62458 16.1177 2.69998 16.1252 2.76851 16.1535C2.83703 16.1819 2.8956 16.23 2.9368 16.2917C2.97801 16.3533 3 16.4258 3 16.5C3 16.5995 2.96049 16.6948 2.89016 16.7652C2.81984 16.8355 2.72446 16.875 2.625 16.875ZM1.125 21.75H1.5V22.875C1.5 22.9745 1.53951 23.0698 1.60984 23.1402C1.68016 23.2105 1.77554 23.25 1.875 23.25H3.375C3.47446 23.25 3.56984 23.2105 3.64016 23.1402C3.71049 23.0698 3.75 22.9745 3.75 22.875V21.75H4.125C4.22446 21.75 4.31984 21.7105 4.39016 21.6402C4.46049 21.5698 4.5 21.4745 4.5 21.375V19.1588C4.5 18.4987 3.69375 18 2.625 18C1.55625 18 0.75 18.4987 0.75 19.1588V21.375C0.75 21.4745 0.789509 21.5698 0.859835 21.6402C0.930161 21.7105 1.02554 21.75 1.125 21.75ZM1.5 19.1588C1.5 19.0312 1.92375 18.75 2.625 18.75C3.32625 18.75 3.75 19.0312 3.75 19.1588V21H3.375C3.27554 21 3.18016 21.0395 3.10984 21.1098C3.03951 21.1802 3 21.2755 3 21.375V22.5H2.25V21.375C2.25 21.2755 2.21049 21.1802 2.14016 21.1098C2.06984 21.0395 1.97446 21 1.875 21H1.5V19.1588ZM13.125 8.25C13.125 8.0275 13.059 7.80999 12.9354 7.62498C12.8118 7.43998 12.6361 7.29578 12.4305 7.21064C12.225 7.12549 11.9988 7.10321 11.7805 7.14662C11.5623 7.19003 11.3618 7.29717 11.2045 7.45451C11.0472 7.61184 10.94 7.8123 10.8966 8.03052C10.8532 8.24875 10.8755 8.47495 10.9606 8.68052C11.0458 8.88609 11.19 9.06179 11.375 9.1854C11.56 9.30902 11.7775 9.375 12 9.375C12.2984 9.375 12.5845 9.25647 12.7955 9.0455C13.0065 8.83452 13.125 8.54837 13.125 8.25ZM11.625 8.25C11.625 8.17583 11.647 8.10333 11.6882 8.04166C11.7294 7.97999 11.788 7.93193 11.8565 7.90355C11.925 7.87516 12.0004 7.86774 12.0732 7.88221C12.1459 7.89668 12.2127 7.93239 12.2652 7.98484C12.3176 8.03728 12.3533 8.1041 12.3678 8.17684C12.3823 8.24958 12.3748 8.32498 12.3465 8.39351C12.3181 8.46203 12.27 8.5206 12.2083 8.5618C12.1467 8.60301 12.0742 8.625 12 8.625C11.9005 8.625 11.8052 8.58549 11.7348 8.51517C11.6645 8.44484 11.625 8.34946 11.625 8.25ZM13.125 13.5H13.5C13.5995 13.5 13.6948 13.4605 13.7652 13.3902C13.8355 13.3198 13.875 13.2245 13.875 13.125V10.9088C13.875 10.2488 13.0688 9.75 12 9.75C10.9312 9.75 10.125 10.2488 10.125 10.9088V13.125C10.125 13.2245 10.1645 13.3198 10.2348 13.3902C10.3052 13.4605 10.4005 13.5 10.5 13.5H10.875V14.625C10.875 14.7245 10.9145 14.8198 10.9848 14.8902C11.0552 14.9605 11.1505 15 11.25 15H12.75C12.8495 15 12.9448 14.9605 13.0152 14.8902C13.0855 14.8198 13.125 14.7245 13.125 14.625V13.5ZM12.75 12.75C12.6505 12.75 12.5552 12.7895 12.4848 12.8598C12.4145 12.9302 12.375 13.0255 12.375 13.125V14.25H11.625V13.125C11.625 13.0255 11.5855 12.9302 11.5152 12.8598C11.4448 12.7895 11.3495 12.75 11.25 12.75H10.875V10.9088C10.875 10.7813 11.2987 10.5 12 10.5C12.7013 10.5 13.125 10.7813 13.125 10.9088V12.75H12.75Z" fill="#FFE0E0"/>
<path d="M12.375 20.25V17.9325C12.6252 17.844 12.8361 17.67 12.9704 17.4411C13.1046 17.2122 13.1537 16.9432 13.1088 16.6816C13.0639 16.42 12.928 16.1828 12.7251 16.0117C12.5222 15.8407 12.2654 15.7468 12 15.7468C11.7346 15.7468 11.4778 15.8407 11.2749 16.0117C11.072 16.1828 10.9361 16.42 10.8912 16.6816C10.8463 16.9432 10.8954 17.2122 11.0296 17.4411C11.1639 17.67 11.3748 17.844 11.625 17.9325V20.25C11.625 21.3375 10.7588 22.125 9.5625 22.125C8.36625 22.125 7.5 21.3375 7.5 20.25V2.625C7.5 1.5225 6.42 0.750001 4.875 0.750001C3.51 0.750001 2.385 1.575 2.25 2.625V12.4425C1.9998 12.531 1.78892 12.705 1.65464 12.9339C1.52036 13.1628 1.47133 13.4318 1.5162 13.6934C1.56108 13.955 1.69698 14.1922 1.89988 14.3633C2.10278 14.5343 2.35962 14.6282 2.625 14.6282C2.89039 14.6282 3.14722 14.5343 3.35012 14.3633C3.55303 14.1922 3.68892 13.955 3.7338 13.6934C3.77868 13.4318 3.72964 13.1628 3.59536 12.9339C3.46109 12.705 3.25021 12.531 3 12.4425V2.8125C3 2.1 3.85875 1.5 4.875 1.5C5.805 1.5 6.75 1.875 6.75 2.625V20.25C6.75 21.75 7.9575 22.875 9.5625 22.875C11.1675 22.875 12.375 21.75 12.375 20.25ZM12 16.5C12.0742 16.5 12.1467 16.522 12.2083 16.5632C12.27 16.6044 12.3181 16.663 12.3465 16.7315C12.3748 16.8 12.3823 16.8754 12.3678 16.9482C12.3533 17.0209 12.3176 17.0877 12.2652 17.1402C12.2127 17.1926 12.1459 17.2283 12.0732 17.2428C12.0004 17.2573 11.925 17.2498 11.8565 17.2215C11.788 17.1931 11.7294 17.145 11.6882 17.0833C11.647 17.0217 11.625 16.9492 11.625 16.875C11.625 16.7755 11.6645 16.6802 11.7348 16.6098C11.8052 16.5395 11.9005 16.5 12 16.5ZM2.625 13.875C2.55083 13.875 2.47833 13.853 2.41666 13.8118C2.355 13.7706 2.30693 13.712 2.27855 13.6435C2.25016 13.575 2.24274 13.4996 2.25721 13.4268C2.27168 13.3541 2.30739 13.2873 2.35984 13.2348C2.41228 13.1824 2.4791 13.1467 2.55184 13.1322C2.62459 13.1177 2.69999 13.1252 2.76851 13.1535C2.83703 13.1819 2.8956 13.23 2.9368 13.2917C2.97801 13.3533 3 13.4258 3 13.5C3 13.5995 2.96049 13.6948 2.89017 13.7652C2.81984 13.8355 2.72446 13.875 2.625 13.875ZM17.25 3.16875C17.1338 1.7775 15.9638 0.750001 14.4375 0.750001C12.8325 0.750001 11.625 1.875 11.625 3.375V4.1925C11.3748 4.28096 11.1639 4.45503 11.0296 4.68393C10.8954 4.91283 10.8463 5.18184 10.8912 5.4434C10.9361 5.70496 11.072 5.94224 11.2749 6.11329C11.4778 6.28434 11.7346 6.37816 12 6.37816C12.2654 6.37816 12.5222 6.28434 12.7251 6.11329C12.928 5.94224 13.0639 5.70496 13.1088 5.4434C13.1537 5.18184 13.1046 4.91283 12.9704 4.68393C12.8361 4.45503 12.6252 4.28096 12.375 4.1925V3.375C12.375 2.2875 13.2413 1.5 14.4375 1.5C15.6338 1.5 16.5 2.2875 16.5 3.375V21C16.5 22.1025 17.58 22.875 19.125 22.875C20.67 22.875 21.75 22.1025 21.75 21V11.5575C22.0002 11.469 22.2111 11.295 22.3454 11.0661C22.4796 10.8372 22.5287 10.5682 22.4838 10.3066C22.4389 10.045 22.303 9.80777 22.1001 9.63671C21.8972 9.46566 21.6404 9.37184 21.375 9.37184C21.1096 9.37184 20.8528 9.46566 20.6499 9.63671C20.447 9.80777 20.3111 10.045 20.2662 10.3066C20.2213 10.5682 20.2704 10.8372 20.4046 11.0661C20.5389 11.295 20.7498 11.469 21 11.5575V21C21 22.4775 17.25 22.4775 17.25 21V3.16875ZM12 5.625C11.9258 5.625 11.8533 5.60301 11.7917 5.5618C11.73 5.5206 11.6819 5.46203 11.6535 5.39351C11.6252 5.32498 11.6177 5.24958 11.6322 5.17684C11.6467 5.1041 11.6824 5.03728 11.7348 4.98484C11.7873 4.93239 11.8541 4.89668 11.9268 4.88221C11.9996 4.86774 12.075 4.87516 12.1435 4.90355C12.212 4.93193 12.2706 4.97999 12.3118 5.04166C12.353 5.10333 12.375 5.17583 12.375 5.25C12.375 5.34946 12.3355 5.44484 12.2652 5.51517C12.1948 5.58549 12.0995 5.625 12 5.625ZM21.375 10.125C21.4492 10.125 21.5217 10.147 21.5833 10.1882C21.645 10.2294 21.6931 10.288 21.7215 10.3565C21.7498 10.425 21.7573 10.5004 21.7428 10.5732C21.7283 10.6459 21.6926 10.7127 21.6402 10.7652C21.5877 10.8176 21.5209 10.8533 21.4482 10.8678C21.3754 10.8823 21.3 10.8748 21.2315 10.8465C21.163 10.8181 21.1044 10.77 21.0632 10.7083C21.022 10.6467 21 10.5742 21 10.5C21 10.4005 21.0395 10.3052 21.1098 10.2348C21.1802 10.1645 21.2755 10.125 21.375 10.125ZM22.5 1.875C22.5 1.6525 22.434 1.43499 22.3104 1.24998C22.1868 1.06498 22.0111 0.920785 21.8055 0.835636C21.6 0.750487 21.3738 0.728209 21.1555 0.771617C20.9373 0.815025 20.7368 0.922171 20.5795 1.07951C20.4222 1.23684 20.315 1.4373 20.2716 1.65552C20.2282 1.87375 20.2505 2.09995 20.3356 2.30552C20.4208 2.51109 20.565 2.68679 20.75 2.8104C20.935 2.93402 21.1525 3 21.375 3C21.6734 3 21.9595 2.88147 22.1705 2.6705C22.3815 2.45952 22.5 2.17337 22.5 1.875ZM21 1.875C21 1.80083 21.022 1.72833 21.0632 1.66666C21.1044 1.60499 21.163 1.55693 21.2315 1.52855C21.3 1.50016 21.3754 1.49274 21.4482 1.50721C21.5209 1.52168 21.5877 1.55739 21.6402 1.60984C21.6926 1.66228 21.7283 1.7291 21.7428 1.80184C21.7573 1.87458 21.7498 1.94998 21.7215 2.01851C21.6931 2.08703 21.645 2.1456 21.5833 2.1868C21.5217 2.22801 21.4492 2.25 21.375 2.25C21.2755 2.25 21.1802 2.21049 21.1098 2.14017C21.0395 2.06984 21 1.97446 21 1.875Z" fill="#FFE0E0"/>
<path d="M21.375 3.375C20.3063 3.375 19.5 3.87375 19.5 4.53375V6.75C19.5 6.84946 19.5395 6.94484 19.6098 7.01517C19.6802 7.08549 19.7755 7.125 19.875 7.125H20.25V8.25C20.25 8.34946 20.2895 8.44484 20.3598 8.51517C20.4302 8.58549 20.5255 8.625 20.625 8.625H22.125C22.2245 8.625 22.3198 8.58549 22.3902 8.51517C22.4605 8.44484 22.5 8.34946 22.5 8.25V7.125H22.875C22.9745 7.125 23.0698 7.08549 23.1402 7.01517C23.2105 6.94484 23.25 6.84946 23.25 6.75V4.53375C23.25 3.87375 22.4437 3.375 21.375 3.375ZM22.5 6.375H22.125C22.0255 6.375 21.9302 6.41451 21.8598 6.48483C21.7895 6.55516 21.75 6.65054 21.75 6.75V7.875H21V6.75C21 6.65054 20.9605 6.55516 20.8902 6.48483C20.8198 6.41451 20.7245 6.375 20.625 6.375H20.25V4.53375C20.25 4.40625 20.6738 4.125 21.375 4.125C22.0763 4.125 22.5 4.40625 22.5 4.53375V6.375Z" fill="#FFE0E0"/>
</g>
<defs>
<clipPath id="clip0_1411_1045">
<rect width="24" height="24" fill="white"/>
</clipPath>
</defs>
</svg>
