<svg width="88" height="109" viewBox="0 0 88 109" fill="none" xmlns="http://www.w3.org/2000/svg">
    <path
        d="M78.6495 1.49995C78.562 0.624951 77.862 0.0124512 76.987 0.0124512H11.012C10.137 0.0124512 9.43696 0.624951 9.34946 1.49995L0.0744606 106.237C-0.0130394 107.55 1.29946 108.425 2.52446 107.812L43.9995 86.1124L85.4745 107.812C86.612 108.425 88.012 107.462 87.9245 106.237L78.6495 1.49995ZM62.8995 46.2125C61.062 48.9249 58.787 51.4625 55.637 54.0875C52.5745 56.7125 49.162 58.9874 45.312 61.1749C44.8745 61.4374 44.5245 61.5249 44.087 61.5249C43.6495 61.5249 43.2995 61.4374 42.862 61.1749C38.3995 58.6374 34.8995 56.275 31.837 53.5625C29.6495 51.725 27.287 49.45 25.362 46.475C23.612 43.85 22.737 41.1375 22.6495 38.1625C22.562 35.0125 23.5245 31.8624 25.6245 29.15C27.5495 26.7875 30.1745 25.3 33.4995 24.95C36.4745 24.6875 39.0995 25.3 41.3745 26.7C42.512 27.4 43.562 28.275 44.3495 29.2375C46.537 26.525 49.5995 25.0375 53.362 24.95H53.6245C57.1245 24.95 60.0995 26.1749 62.3745 28.7125C63.9495 30.4625 64.912 32.5625 65.437 35.1875C66.137 39.125 65.3495 42.7125 62.8995 46.2125Z"
        fill="url(#paint0_linear_2456_25187)" />
    <defs>
        <linearGradient id="paint0_linear_2456_25187" x1="43.9993" y1="0.0124512" x2="43.9993"
            y2="108.012" gradientUnits="userSpaceOnUse">
            <stop stop-color="#C1554E" />
            <stop offset="1" stop-color="#FF9B94" />
        </linearGradient>
    </defs>
</svg>