<svg width="20" height="23" viewBox="0 0 20 23" fill="none" xmlns="http://www.w3.org/2000/svg">
    <path fill-rule="evenodd" clip-rule="evenodd"
        d="M9.99575 0.25293C9.40063 0.255495 8.83061 0.493044 8.40979 0.913861C7.98898 1.33468 7.75143 1.90469 7.74886 2.49981C7.74886 2.88079 7.85386 3.23552 8.0241 3.55126C6.34332 4.0619 4.92805 5.2081 4.0793 6.74609C4.03198 6.83247 4.00213 6.92731 3.99147 7.02522C3.9808 7.12313 3.98952 7.22218 4.01713 7.31671C4.04474 7.41125 4.09071 7.49942 4.15239 7.5762C4.21408 7.65297 4.29029 7.71684 4.37666 7.76416C4.46303 7.81149 4.55788 7.84133 4.65579 7.852C4.7537 7.86267 4.85275 7.85395 4.94728 7.82634C5.04182 7.79872 5.12999 7.75276 5.20677 7.69107C5.28354 7.62938 5.34741 7.55318 5.39473 7.46681C5.84643 6.64136 6.51263 5.95319 7.32299 5.47495C8.13335 4.9967 9.0578 4.74614 9.99875 4.7497C12.9198 4.7497 15.2485 7.07833 15.2485 9.99942V14.7917C15.2484 14.9398 15.2923 15.0847 15.3745 15.2079L16.6239 17.0828C16.9794 17.616 16.6389 18.2475 15.9969 18.2475H4.00056C3.35859 18.2475 3.01811 17.616 3.37359 17.0828L4.62302 15.2079C4.70507 15.0849 4.7489 14.9403 4.74902 14.7924V12.9963C4.74902 12.7974 4.67 12.6066 4.52936 12.466C4.38871 12.3253 4.19796 12.2463 3.99906 12.2463C3.80015 12.2463 3.6094 12.3253 3.46875 12.466C3.32811 12.6066 3.24909 12.7974 3.24909 12.9963V14.5652L2.12565 16.2511C1.1522 17.712 2.24565 19.7474 4.00056 19.7474H6.32544C6.67492 21.4543 8.19284 22.7488 9.99875 22.7488C11.8047 22.7488 13.3226 21.4543 13.6721 19.7474H15.9969C17.7518 19.7474 18.8453 17.712 17.8718 16.2511L16.7484 14.5652V9.99942C16.7484 6.96133 14.7385 4.39121 11.9764 3.54601C12.1451 3.23102 12.2501 2.87854 12.2501 2.49981C12.2501 1.26613 11.2302 0.25293 9.99575 0.25293ZM9.99575 1.74685C10.095 1.74564 10.1934 1.7643 10.2853 1.80171C10.3772 1.83912 10.4607 1.89454 10.5309 1.9647C10.601 2.03486 10.6564 2.11835 10.6939 2.21024C10.7313 2.30214 10.7499 2.4006 10.7487 2.49981C10.7487 2.92279 10.4187 3.24677 9.99575 3.24677C9.89718 3.2485 9.79927 3.23036 9.70786 3.19343C9.61646 3.15651 9.53343 3.10155 9.46372 3.03184C9.39401 2.96213 9.33905 2.8791 9.30213 2.78769C9.2652 2.69629 9.24706 2.59838 9.24879 2.49981C9.24687 2.40091 9.26484 2.30264 9.30162 2.21081C9.33841 2.11899 9.39326 2.03549 9.46292 1.96526C9.53259 1.89504 9.61565 1.83952 9.70718 1.802C9.7987 1.76448 9.89683 1.74573 9.99575 1.74685ZM4.02231 2.59506C3.82787 2.59146 3.63965 2.66352 3.49733 2.79605C1.52118 4.57946 0.25 7.14957 0.25 10.0024C0.25 10.1009 0.269398 10.1984 0.307088 10.2894C0.344777 10.3804 0.400018 10.4631 0.469659 10.5327C0.539299 10.6024 0.621974 10.6576 0.712964 10.6953C0.803953 10.733 0.901475 10.7524 0.999961 10.7524C1.09845 10.7524 1.19597 10.733 1.28696 10.6953C1.37795 10.6576 1.46062 10.6024 1.53026 10.5327C1.5999 10.4631 1.65515 10.3804 1.69284 10.2894C1.73052 10.1984 1.74992 10.1009 1.74992 10.0024C1.74992 7.5943 2.81862 5.42766 4.50078 3.90899C4.61457 3.80931 4.69555 3.67755 4.7331 3.53102C4.77064 3.38448 4.763 3.23001 4.71116 3.0879C4.65933 2.94578 4.56573 2.82267 4.44266 2.73471C4.31959 2.64676 4.1728 2.59807 4.02155 2.59506H4.02231ZM15.9512 2.59806C15.8023 2.60594 15.6592 2.65801 15.54 2.74763C15.4209 2.83725 15.3311 2.96035 15.2823 3.10121C15.2334 3.24206 15.2277 3.39428 15.2657 3.53843C15.3038 3.68258 15.3839 3.81211 15.496 3.91049C17.1781 5.42916 18.2483 7.59355 18.2483 10.0024C18.2483 10.2013 18.3273 10.3921 18.468 10.5327C18.6086 10.6734 18.7994 10.7524 18.9983 10.7524C19.1972 10.7524 19.3879 10.6734 19.5286 10.5327C19.6692 10.3921 19.7482 10.2013 19.7482 10.0024C19.7482 7.14882 18.4756 4.5802 16.5009 2.7968C16.4272 2.72856 16.3406 2.6758 16.2462 2.64166C16.1518 2.60753 16.0515 2.5927 15.9512 2.59806ZM3.99906 9.24946C3.80015 9.24946 3.6094 9.32848 3.46875 9.46912C3.32811 9.60977 3.24909 9.80052 3.24909 9.99942C3.24909 10.1983 3.32811 10.3891 3.46875 10.5297C3.6094 10.6704 3.80015 10.7494 3.99906 10.7494C4.19796 10.7494 4.38871 10.6704 4.52936 10.5297C4.67 10.3891 4.74902 10.1983 4.74902 9.99942C4.74902 9.80052 4.67 9.60977 4.52936 9.46912C4.38871 9.32848 4.19796 9.24946 3.99906 9.24946ZM7.88535 19.7474H12.1121C11.9603 20.1867 11.675 20.5676 11.2961 20.8368C10.9172 21.1061 10.4636 21.2501 9.99875 21.2488C9.53393 21.2501 9.08034 21.1061 8.70141 20.8368C8.32249 20.5676 8.03717 20.1867 7.88535 19.7474Z"
        fill="#C1554E" />
</svg>