<svg width="30" height="58" viewBox="0 0 30 58" fill="none" xmlns="http://www.w3.org/2000/svg">
    <path
        d="M26.0001 24V4C26.0001 2.93913 25.5786 1.92172 24.8285 1.17157C24.0783 0.421427 23.0609 0 22.0001 0C20.9392 0 19.9218 0.421427 19.1716 1.17157C18.4215 1.92172 18.0001 2.93913 18.0001 4V12.5564C17.4922 12.2632 16.926 12.0854 16.3417 12.0359C15.7574 11.9863 15.1693 12.066 14.6193 12.2695C14.0693 12.473 13.5709 12.7951 13.1596 13.2131C12.7482 13.631 12.434 14.1345 12.2393 14.6876C11.7311 14.3513 11.153 14.135 10.5489 14.0552C9.94477 13.9753 9.33039 14.034 8.75228 14.2267C8.17416 14.4194 7.64747 14.7411 7.21208 15.1674C6.7767 15.5938 6.44403 16.1136 6.23926 16.6876C5.63592 16.29 4.93666 16.0622 4.2149 16.028C3.49314 15.9938 2.77549 16.1546 2.13728 16.4934C1.49907 16.8322 0.963851 17.3366 0.587797 17.9536C0.211743 18.5706 0.00872658 19.2775 5.90199e-05 20V35.3433C-0.0105968 39.0871 1.42201 42.691 4.00006 45.4058V57C4.00006 57.2652 4.10542 57.5196 4.29295 57.7071C4.48049 57.8946 4.73484 58 5.00006 58H25.0001C25.2653 58 25.5196 57.8946 25.7072 57.7071C25.8947 57.5196 26.0001 57.2652 26.0001 57V45.4058C28.5781 42.691 30.0107 39.0871 30.0001 35.3433V28C29.9989 26.9395 29.5771 25.9228 28.8272 25.1729C28.0773 24.423 27.0606 24.0012 26.0001 24ZM20.0001 4C20.0001 3.46957 20.2108 2.96086 20.5858 2.58579C20.9609 2.21071 21.4696 2 22.0001 2C22.5305 2 23.0392 2.21071 23.4143 2.58579C23.7893 2.96086 24.0001 3.46957 24.0001 4V24H20.0001V4ZM14.0001 16C14.0001 15.4696 14.2108 14.9609 14.5858 14.5858C14.9609 14.2107 15.4696 14 16.0001 14C16.5305 14 17.0392 14.2107 17.4143 14.5858C17.7893 14.9609 18.0001 15.4696 18.0001 16V24H14.0001V16ZM8.00006 18C8.00006 17.4696 8.21077 16.9609 8.58585 16.5858C8.96092 16.2107 9.46963 16 10.0001 16C10.5305 16 11.0392 16.2107 11.4143 16.5858C11.7893 16.9609 12.0001 17.4696 12.0001 18C12.0001 20.0727 12.0001 26.0179 12.0001 28C12.0001 28.5304 11.7893 29.0391 11.4143 29.4142C11.0392 29.7893 10.5305 30 10.0001 30C9.46963 30 8.96092 29.7893 8.58585 29.4142C8.21077 29.0391 8.00006 28.5304 8.00006 28C8.00006 26.5184 8.00006 19.3191 8.00006 18ZM2.00006 20C2.00006 19.4696 2.21077 18.9609 2.58585 18.5858C2.96092 18.2107 3.46963 18 4.00006 18C4.53049 18 5.0392 18.2107 5.41427 18.5858C5.78935 18.9609 6.00006 19.4696 6.00006 20V28C6.00006 28.5304 5.78935 29.0391 5.41427 29.4142C5.0392 29.7893 4.53049 30 4.00006 30C3.46963 30 2.96092 29.7893 2.58585 29.4142C2.21077 29.0391 2.00006 28.5304 2.00006 28V20ZM28.0001 35.3433C28.0047 37.0061 27.6794 38.6534 27.0431 40.1896C26.4068 41.7259 25.4721 43.1207 24.2931 44.2933C24.1056 44.4807 24.0002 44.7349 24.0001 45V56H6.00006V45C6 44.7348 5.89461 44.4805 5.70706 44.293C4.52809 43.1204 3.5934 41.7257 2.9571 40.1895C2.32079 38.6532 1.9955 37.0061 2.00006 35.3433V31.4633C2.80243 31.9159 3.73514 32.0813 4.64419 31.9322C5.55325 31.7831 6.38428 31.3284 7.00006 30.6433C7.37897 31.0631 7.84178 31.3987 8.35855 31.6284C8.87531 31.8581 9.43454 31.9768 10.0001 31.9768C10.5656 31.9768 11.1248 31.8581 11.6416 31.6284C12.1583 31.3987 12.6211 31.0631 13.0001 30.6433C13.3749 31.0698 13.8363 31.4114 14.3537 31.6454C14.871 31.8793 15.4323 32.0002 16.0001 32H20.1101C19.4421 32.6502 18.9113 33.4276 18.5489 34.2864C18.1865 35.1452 17.9999 36.0679 18.0001 37V41C18.0001 41.2652 18.1054 41.5196 18.293 41.7071C18.4805 41.8946 18.7348 42 19.0001 42C19.2653 42 19.5196 41.8946 19.7072 41.7071C19.8947 41.5196 20.0001 41.2652 20.0001 41V37C20.0016 35.6744 20.5289 34.4035 21.4662 33.4662C22.4036 32.5288 23.6745 32.0016 25.0001 32C25.2653 32 25.5196 31.8946 25.7072 31.7071C25.8947 31.5196 26.0001 31.2652 26.0001 31C26.0001 30.7348 25.8947 30.4804 25.7072 30.2929C25.5196 30.1054 25.2653 30 25.0001 30H16.0001C15.4698 29.9995 14.9614 29.7886 14.5864 29.4136C14.2115 29.0387 14.0006 28.5303 14.0001 28V26C17.1957 26 22.7965 26 26.0001 26C26.5303 26.0005 27.0387 26.2114 27.4137 26.5864C27.7886 26.9613 27.9995 27.4697 28.0001 28V35.3433Z"
        fill="#777777" />
</svg>