<svg width="22" height="20" viewBox="0 0 22 20" fill="none" xmlns="http://www.w3.org/2000/svg">
<path d="M11.1089 18.68L10.7705 18.3839C3.07254 12.124 1 9.92459 1 6.32938C1 3.36861 3.41091 1 6.32938 1C8.78258 1 10.1784 2.39579 11.1089 3.45321C12.0394 2.39579 13.4352 1 15.8884 1C18.8492 1 21.2178 3.41091 21.2178 6.32938C21.2178 9.92459 19.1453 12.124 11.4473 18.3839L11.1089 18.68ZM6.32938 2.09971C4.00306 2.09971 2.09971 4.00306 2.09971 6.32938C2.09971 9.41703 4.04536 11.4473 11.1089 17.2419C18.1724 11.4473 20.1181 9.41703 20.1181 6.32938C20.1181 4.00306 18.2147 2.09971 15.8884 2.09971C13.7736 2.09971 12.6316 3.36861 11.7433 4.38373L11.1089 5.10277L10.4744 4.38373C9.58622 3.36861 8.44421 2.09971 6.32938 2.09971Z" fill="white" stroke="white" stroke-width="0.5"/>
</svg>
