<svg width="40" height="40" viewBox="0 0 40 40" fill="none" xmlns="http://www.w3.org/2000/svg">
    <path
        d="M38.9974 34.2893L23.1574 2.55387C21.8281 -0.0492067 18.1174 -0.0492067 16.8435 2.55387L1.00352 34.2893C-0.159561 36.6154 1.55736 39.3846 4.16044 39.3846H35.8404C38.4989 39.3846 40.1604 36.6154 38.9974 34.2893ZM20.0004 34.5108C18.782 34.5108 17.7851 33.5139 17.7851 32.2954C17.7851 31.0769 18.782 30.08 20.0004 30.08C21.2189 30.08 22.2158 31.0769 22.2158 32.2954C22.2158 33.5139 21.2189 34.5108 20.0004 34.5108ZM21.4404 26.48H18.5604L17.3974 13.6862H22.5481L21.4404 26.48Z"
        fill="#FAF8FF" />
</svg>