<svg width="39" height="56" viewBox="0 0 39 56" fill="none" xmlns="http://www.w3.org/2000/svg">
<path d="M19.6461 0.875C9.20982 0.875 0.75 9.32559 0.75 19.7618C0.75 30.1981 19.6461 55.125 19.6461 55.125C19.6461 55.125 38.5329 30.1981 38.5329 19.7618C38.5329 9.32559 30.0823 0.875 19.6461 0.875ZM19.6461 32.2669C12.7378 32.2669 7.14104 26.6701 7.14104 19.7618C7.14104 12.8536 12.7378 7.25681 19.6461 7.25681C26.5543 7.25681 32.1511 12.8536 32.1511 19.7618C32.1511 26.6701 26.5543 32.2669 19.6461 32.2669Z" fill="#E62828"/>
<circle cx="19.6447" cy="19.3464" r="12.9299" fill="white"/>
<g clip-path="url(#clip0_1883_4319)">
<path fill-rule="evenodd" clip-rule="evenodd" d="M14.0011 11.6061C14.0011 12.1801 13.9119 12.8164 13.8028 13.0204C13.6934 13.2244 13.5723 14.2103 13.5335 15.2114C13.4424 17.5611 12.8711 20.4694 12.2525 21.7336C11.1961 23.8924 11.1221 24.2273 11.6101 24.64C12.3421 25.2591 14.4224 26.4029 15.6886 26.8823C16.7926 27.3003 17.1809 27.3438 19.8136 27.3438C22.8481 27.3438 23.5256 27.2063 25.6181 26.1661C27.053 25.4524 28.8136 24.1233 28.8136 23.7533C28.8136 23.4749 28.0098 21.4086 27.6644 20.7996C27.5533 20.6033 27.3419 19.6752 27.1948 18.7371C27.0478 17.7989 26.8608 16.6321 26.7796 16.144C26.6983 15.6561 26.6919 15.1921 26.7654 15.1128C26.8391 15.0336 26.8139 14.4625 26.7097 13.8438C26.6054 13.225 26.5348 12.2335 26.5528 11.6406C26.5783 10.7907 26.5254 10.5625 26.3026 10.5625C25.8013 10.5625 25.0447 11.8 24.8186 12.9901C24.5988 14.1464 24.3136 14.515 24.3136 13.6428C24.3136 13.1243 23.4493 11.5 23.1734 11.5C22.8682 11.5 22.0098 12.9978 21.9898 13.5653C21.9656 14.2454 21.3622 14.3768 21.3577 13.7031C21.3543 13.1956 20.5591 11.65 20.2498 11.5497C19.9034 11.4374 19.0636 12.8269 19.0636 13.5123C19.0636 13.9999 18.9871 14.125 18.6886 14.125C18.4366 14.125 18.3136 13.9999 18.3136 13.744C18.3136 13.2949 17.8916 12.3068 17.48 11.7925C17.1924 11.4331 17.1849 11.4333 16.8391 11.8043C16.3033 12.3796 16.0657 12.9147 16.0428 13.597C16.0243 14.1537 15.998 14.1203 15.7914 13.2777C15.4584 11.9191 14.6413 10.5625 14.156 10.5625C14.0709 10.5625 14.0011 11.0322 14.0011 11.6061ZM17.0011 13.5625C17.0011 13.9126 17.0512 13.9624 17.2261 13.7875C17.4011 13.6126 17.4011 13.5124 17.2261 13.3375C17.0512 13.1626 17.0011 13.2124 17.0011 13.5625ZM20.0011 13.5625C20.0011 13.7688 20.0855 13.9375 20.1886 13.9375C20.2918 13.9375 20.3761 13.7688 20.3761 13.5625C20.3761 13.3563 20.2918 13.1875 20.1886 13.1875C20.0855 13.1875 20.0011 13.3563 20.0011 13.5625ZM23.0011 13.5625C23.0011 13.7688 23.0855 13.9375 23.1886 13.9375C23.2918 13.9375 23.3761 13.7688 23.3761 13.5625C23.3761 13.3563 23.2918 13.1875 23.1886 13.1875C23.0855 13.1875 23.0011 13.3563 23.0011 13.5625ZM14.5636 13.7389C14.5636 13.9512 14.648 14.125 14.7511 14.125C14.8543 14.125 14.9386 14.0035 14.9386 13.8548C14.9386 13.7061 14.8543 13.5325 14.7511 13.4688C14.648 13.405 14.5636 13.5267 14.5636 13.7389ZM25.6558 13.75C25.6558 14.0078 25.6983 14.1134 25.7503 13.9844C25.8024 13.8556 25.8024 13.6446 25.7503 13.5156C25.6983 13.3868 25.6558 13.4922 25.6558 13.75ZM14.6596 15.4669C14.6006 15.7086 14.4333 16.5813 14.2882 17.4063C14.1429 18.2313 13.9668 19.1382 13.8969 19.4219L13.7699 19.9375H15.9236H18.077L18.1933 19.2344C18.2572 18.8478 18.3104 18.2991 18.3116 18.0156C18.3148 17.2023 18.9108 16.7478 19.9543 16.7631C20.444 16.7704 21.0058 16.8394 21.2024 16.9165C21.5718 17.0614 22.0394 18.4351 22.0554 19.4219L22.0636 19.9375H24.2349H26.4059L26.2741 18.6719C26.2016 17.9759 26.0683 17.2641 25.9779 17.0905C25.8875 16.9167 25.8123 16.537 25.8108 16.2468C25.8091 15.9563 25.7459 15.6246 25.6702 15.5093C25.5776 15.3689 23.7648 15.2553 20.1496 15.1638L14.7671 15.0276L14.6596 15.4669ZM19.4737 17.7391C19.3646 17.8705 19.2168 18.4189 19.1452 18.9578L19.0153 19.9375H20.0707C21.1259 19.9375 21.1261 19.9373 21.1261 19.3564C21.1261 18.4519 20.5981 17.5 20.0966 17.5C19.8631 17.5 19.5828 17.6076 19.4737 17.7391ZM13.3702 21.4819C13.2185 21.8185 12.9153 22.5128 12.6967 23.0249L12.2988 23.956L12.7282 24.2969C13.3775 24.8125 14.5304 25.4112 15.7824 25.8826C17.1461 26.3961 17.5633 26.4199 17.5651 25.9844C17.5659 25.8038 17.648 24.9468 17.7478 24.0798C17.9943 21.9346 18.2838 21.625 20.0424 21.625C21.9089 21.625 22.1686 21.9282 22.3477 24.3184C22.4225 25.3152 22.5448 26.1685 22.6196 26.2146C22.7902 26.3202 24.539 25.6819 25.5324 25.1515C26.5541 24.6059 27.6888 23.7034 27.6877 23.4374C27.6873 23.3172 27.4807 22.7125 27.2287 22.0938L26.7704 20.9688L20.2083 20.9194L13.646 20.8703L13.3702 21.4819ZM18.9123 22.8816C18.8165 23.0671 18.6804 23.9571 18.6099 24.8594L18.4816 26.5H20.0621H21.6425L21.5506 25.6094C21.5002 25.1196 21.4051 24.2547 21.3393 23.6875L21.2197 22.6563L20.1532 22.6004C19.2804 22.5546 19.0548 22.6058 18.9123 22.8816Z" fill="#E62828"/>
</g>
<defs>
<clipPath id="clip0_1883_4319">
<rect width="18" height="18" fill="white" transform="translate(11 10)"/>
</clipPath>
</defs>
</svg>
