<svg width="72" height="72" viewBox="0 0 72 72" fill="none" xmlns="http://www.w3.org/2000/svg">
<g clip-path="url(#clip0_1931_9847)">
<path d="M36.0008 71.4461C55.5772 71.4461 71.447 55.5764 71.447 36C71.447 16.4236 55.5772 0.553833 36.0008 0.553833C16.4245 0.553833 0.554688 16.4236 0.554688 36C0.554688 55.5764 16.4245 71.4461 36.0008 71.4461Z" fill="#C1554E"/>
<path opacity="0.2" d="M69.2306 48.4061L38.6583 17.8338C38.5475 17.6677 38.3814 17.5569 38.2706 17.4462L38.2152 17.3908C36.5537 16.0062 33.8952 16.3938 32.7875 18.5538L17.0029 50.2892C16.3383 51.5631 16.5598 52.9477 17.3352 54C17.5568 54.2769 17.7783 54.5538 18.1106 54.7754L34.8368 71.5015C35.2244 71.5015 35.6675 71.5569 36.0552 71.5569C51.2306 71.4461 64.1906 61.8646 69.2306 48.4061Z" fill="#222222"/>
<path d="M54.9974 50.2893L39.1574 18.5539C37.8281 15.9508 34.1174 15.9508 32.8435 18.5539L17.0035 50.2893C15.8404 52.6154 17.5574 55.3846 20.1604 55.3846H51.8404C54.4989 55.3846 56.1604 52.6154 54.9974 50.2893ZM36.0004 50.5108C34.782 50.5108 33.7851 49.5139 33.7851 48.2954C33.7851 47.0769 34.782 46.08 36.0004 46.08C37.2189 46.08 38.2158 47.0769 38.2158 48.2954C38.2158 49.5139 37.2189 50.5108 36.0004 50.5108ZM37.4404 42.48H34.5604L33.3974 29.6862H38.5481L37.4404 42.48Z" fill="#FAF8FF"/>
</g>
<defs>
<clipPath id="clip0_1931_9847">
<rect width="72" height="72" fill="white"/>
</clipPath>
</defs>
</svg>
