<svg width="72" height="72" viewBox="0 0 72 72" fill="none" xmlns="http://www.w3.org/2000/svg">
<path d="M4.8114 64.0195L4.80212 64.0211L4.79291 64.0231C3.17875 64.369 1.70362 62.8691 1.9333 61.151C5.35701 47.4002 7.24413 38.5646 8.45726 32.8846C8.85021 31.0448 9.17244 29.5361 9.45327 28.2987C10.0343 25.7386 10.4247 24.4125 10.8608 23.6898C11.0653 23.3509 11.2654 23.1717 11.4845 23.0579C11.7173 22.9369 12.0108 22.8686 12.4452 22.8165L12.4453 22.8165L12.4505 22.8158L27.2474 20.8798L24.1572 60.6305L4.8114 64.0195ZM61.7194 23.1381L61.7212 23.1471L61.7233 23.1561L70.0712 58.1307C70.3036 59.5713 69.4855 60.7674 68.0064 61.1434L48.5532 64.7821L45.3207 23.0414L58.9528 21.2331C60.3079 21.1146 61.4877 21.9796 61.7194 23.1381Z" fill="#FCB300" stroke="#444444"/>
<path d="M48.2415 65.376L24.7695 61.056L27.7935 20.304L44.9295 22.608L48.2415 65.376Z" fill="#CDCDCD"/>
<path d="M45.9374 47.808C43.0574 47.808 40.7534 46.944 39.8894 45.36C39.3134 44.496 39.3134 43.488 39.7454 42.48C40.7534 40.464 43.6334 39.744 45.9374 39.744C48.2414 39.744 51.1214 40.464 52.1294 42.48C52.5614 43.344 52.5614 44.496 51.9854 45.36C51.1214 46.944 48.8174 47.808 45.9374 47.808ZM45.9374 40.608C43.9214 40.608 41.1854 41.184 40.3214 42.912C40.0334 43.632 40.0334 44.352 40.4654 45.072C41.3294 46.368 43.3454 47.088 45.9374 47.088C48.5294 47.088 50.5454 46.368 51.4094 45.072C51.8414 44.352 51.8414 43.632 51.5534 42.912C50.6894 41.184 48.0974 40.608 45.9374 40.608Z" fill="#C1554E"/>
<path d="M49.9673 43.488C49.5353 42.624 47.8073 42.048 45.9353 42.048C44.0633 42.048 42.3353 42.624 41.9033 43.488C41.3273 44.496 43.0553 45.648 45.9353 45.648C48.8153 45.648 50.5433 44.496 49.9673 43.488Z" fill="#E9675F"/>
<path d="M67.1041 43.2C67.1041 44.352 66.9601 45.504 66.6721 46.656C65.9521 48.672 64.3681 50.4 62.2081 51.552C59.4721 52.992 56.1601 53.424 53.1361 53.424C51.8401 53.424 50.4001 53.424 49.2481 53.28C48.6721 53.28 48.0961 53.28 47.5201 53.136C40.4641 52.704 32.8321 52.128 25.7761 49.968C24.0481 49.392 22.4641 48.816 20.8801 47.952C19.4401 52.848 19.5841 58.32 23.7601 61.056L22.7521 61.2C15.8401 55.728 21.6001 46.224 20.4481 43.632C20.0161 42.48 18.8641 41.76 17.8561 41.328C14.8321 43.056 10.6561 41.616 5.32812 46.08C5.47213 45.648 5.47213 45.36 5.61613 44.928C10.6561 41.184 14.4001 42.048 17.1361 40.896C13.6801 39.168 10.2241 37.584 7.77613 35.568L7.92013 34.848C10.6561 37.008 13.8241 38.448 18.0001 40.464C18.8641 39.744 19.5841 38.592 19.1521 37.584C18.8641 36.72 17.7121 36 17.1361 34.992C16.2721 33.408 17.1361 31.392 18.2881 30.24C19.5841 29.088 21.1681 28.656 22.6081 28.224C22.7521 28.224 23.0401 28.224 23.0401 28.512C23.3281 29.376 20.7361 28.944 18.7201 30.816C17.7121 31.68 16.9921 33.408 17.7121 34.56C18.2881 35.568 19.2961 36 19.7281 37.152C20.1601 38.448 19.5841 39.744 18.5761 40.608C20.0161 41.472 21.1681 42.336 21.4561 43.92C23.0401 43.632 24.7681 43.344 26.3521 42.768C27.7921 42.192 29.0881 41.472 30.2401 40.464C32.6881 38.016 33.4081 34.416 33.9841 30.384C33.9841 30.24 34.2721 30.096 34.4161 30.096C34.5601 30.096 34.7041 30.384 34.7041 30.528C34.2721 33.696 33.5521 38.16 30.6721 40.896C29.3761 42.048 27.9361 42.912 26.3521 43.488C24.7681 44.064 23.0401 44.352 21.6001 44.64C21.6001 45.36 21.4561 46.224 21.1681 46.944C22.7521 47.664 24.3361 48.384 25.9201 48.816C32.9761 51.12 40.4641 51.696 47.5201 52.128C48.0961 52.128 48.8161 52.272 49.3921 52.272C53.2801 52.416 58.1761 52.704 62.0641 50.688C64.0801 49.536 65.5201 47.952 66.2401 46.224C66.6721 45.072 66.6721 43.776 66.6721 42.48C66.6721 41.904 66.6721 41.184 66.8161 40.464L67.1041 43.2Z" fill="white"/>
<path d="M36.1424 34.416C41.1824 35.136 46.2224 36 51.1184 36.72C51.9824 36.864 52.9904 37.008 53.5664 37.584C53.9984 37.872 54.2864 38.448 54.5744 39.024C54.7184 39.312 54.8624 39.456 55.0064 39.744C56.1584 41.328 57.8864 42.192 59.0384 42.768C60.6224 43.344 62.3504 43.488 63.9344 43.776C64.0784 43.776 64.2224 43.632 64.2224 43.488C64.2224 43.344 64.0784 43.056 63.9344 43.056C62.3504 42.912 60.7664 42.624 59.1824 42.048C58.0304 41.616 56.4464 40.896 55.4384 39.312C55.2944 39.024 55.1504 38.88 55.0064 38.592C54.7184 38.016 54.4304 37.44 53.8544 37.008C52.9904 36.288 51.8384 36.144 50.9744 36C45.9344 35.28 40.8944 34.416 35.9984 33.696C35.8544 33.696 35.5664 33.84 35.5664 33.984C35.8544 34.272 35.9984 34.416 36.1424 34.416Z" fill="white"/>
<path d="M44.695 7.26513L44.695 7.26516L44.7009 7.26446C51.5978 6.43683 57.5333 11.8142 57.5333 18.72C57.5333 23.4137 54.7739 27.4142 50.7728 29.2078L50.6133 29.2793L50.5331 29.4345L46.0691 38.0745L46.0512 38.109L46.0466 38.1229C46.0454 38.1233 46.0442 38.1236 46.0428 38.124C46.0335 38.1264 46.022 38.128 46.0093 38.128C45.9966 38.128 45.985 38.1264 45.9757 38.124C45.9744 38.1236 45.9731 38.1233 45.972 38.1229L45.9673 38.109L45.9495 38.0745L41.4855 29.4345L41.4075 29.2835L41.2535 29.2113C36.8334 27.1394 33.9347 22.4472 34.625 17.0573C35.3148 11.9591 39.5951 7.81647 44.695 7.26513Z" fill="#C1554E" stroke="#444444"/>
<path d="M45.9349 25.632C49.8318 25.632 52.9909 22.4729 52.9909 18.576C52.9909 14.6791 49.8318 11.52 45.9349 11.52C42.038 11.52 38.8789 14.6791 38.8789 18.576C38.8789 22.4729 42.038 25.632 45.9349 25.632Z" fill="#CDCDCD"/>
<path d="M22.7536 47.664C22.7536 50.544 18.4336 50.544 18.4336 47.664C18.4336 44.784 22.7536 44.784 22.7536 47.664Z" fill="white"/>
<path d="M21.6014 47.664C21.6014 49.104 19.4414 49.104 19.4414 47.664C19.4414 46.224 21.6014 46.224 21.6014 47.664Z" fill="#C7C7C7"/>
<path d="M20.592 40.752C20.592 44.496 14.832 44.496 14.832 40.752C14.832 37.008 20.592 37.008 20.592 40.752Z" fill="white"/>
<path d="M15.9844 40.752C15.9844 42.912 19.2964 42.912 19.2964 40.752C19.2964 38.592 15.9844 38.592 15.9844 40.752Z" fill="#C7C7C7"/>
</svg>
