<svg width="16" height="16" viewBox="0 0 16 16" fill="none" xmlns="http://www.w3.org/2000/svg">
    <path
        d="M9.40799 7.99994L15.708 1.70994C15.8963 1.52164 16.0021 1.26624 16.0021 0.999941C16.0021 0.73364 15.8963 0.478245 15.708 0.289941C15.5197 0.101638 15.2643 -0.00415039 14.998 -0.00415039C14.7317 -0.00415039 14.4763 0.101638 14.288 0.289941L7.99799 6.58994L1.70799 0.289941C1.51968 0.101638 1.26429 -0.00415015 0.997986 -0.00415015C0.731684 -0.00415015 0.47629 0.101638 0.287986 0.289941C0.0996821 0.478245 -0.00610566 0.73364 -0.00610566 0.999941C-0.00610566 1.26624 0.0996821 1.52164 0.287986 1.70994L6.58799 7.99994L0.287986 14.2899C0.194257 14.3829 0.119863 14.4935 0.0690947 14.6154C0.018326 14.7372 -0.0078125 14.8679 -0.0078125 14.9999C-0.0078125 15.132 0.018326 15.2627 0.0690947 15.3845C0.119863 15.5064 0.194257 15.617 0.287986 15.7099C0.380949 15.8037 0.49155 15.8781 0.613409 15.9288C0.735268 15.9796 0.865974 16.0057 0.997986 16.0057C1.13 16.0057 1.2607 15.9796 1.38256 15.9288C1.50442 15.8781 1.61502 15.8037 1.70799 15.7099L7.99799 9.40994L14.288 15.7099C14.3809 15.8037 14.4915 15.8781 14.6134 15.9288C14.7353 15.9796 14.866 16.0057 14.998 16.0057C15.13 16.0057 15.2607 15.9796 15.3826 15.9288C15.5044 15.8781 15.615 15.8037 15.708 15.7099C15.8017 15.617 15.8761 15.5064 15.9269 15.3845C15.9776 15.2627 16.0038 15.132 16.0038 14.9999C16.0038 14.8679 15.9776 14.7372 15.9269 14.6154C15.8761 14.4935 15.8017 14.3829 15.708 14.2899L9.40799 7.99994Z"
        fill="#222222" />
</svg>