<svg width="48" height="48" viewBox="0 0 48 48" fill="none" xmlns="http://www.w3.org/2000/svg">
    <g clip-path="url(#clip0_109_2254)">
        <rect width="48" height="48" rx="4" fill="#F2F0F8" />
        <g clip-path="url(#clip1_109_2254)">
            <path
                d="M30.9994 26.9996V15.9996C30.9988 15.8494 30.9642 15.7013 30.8984 15.5662C30.8327 15.4312 30.7373 15.3127 30.6194 15.2196C30.5033 15.1256 30.3675 15.0589 30.2221 15.0243C30.0768 14.9897 29.9255 14.9881 29.7794 15.0196L20.7794 17.0196C20.5573 17.0697 20.3589 17.1942 20.217 17.3724C20.0752 17.5506 19.9984 17.7718 19.9995 17.9996V26.3396C19.3168 26.0173 18.548 25.9251 17.8085 26.0767C17.069 26.2284 16.3985 26.6157 15.8978 27.1807C15.3971 27.7456 15.093 28.4577 15.0312 29.2101C14.9695 29.9625 15.1533 30.7146 15.5553 31.3536C15.9572 31.9927 16.5554 32.4842 17.2603 32.7544C17.9653 33.0246 18.7388 33.0589 19.4649 32.8523C20.1909 32.6456 20.8304 32.2091 21.2874 31.6083C21.7444 31.0074 21.9943 30.2745 21.9994 29.5196C22.0098 29.3464 22.0098 29.1728 21.9994 28.9996V18.7996L28.9994 17.2496V24.3396C28.3164 24.0171 27.5472 23.925 26.8073 24.0769C26.0674 24.2289 25.3967 24.6168 24.8961 25.1825C24.3955 25.7481 24.0919 26.4609 24.0309 27.2137C23.9699 27.9666 24.1548 28.719 24.5578 29.3578C24.9609 29.9966 25.5603 30.4874 26.2661 30.7566C26.9719 31.0257 27.7459 31.0585 28.472 30.8502C29.198 30.6419 29.8369 30.2036 30.2926 29.6013C30.7484 28.9989 30.9964 28.2649 30.9994 27.5096C31.0089 27.3397 31.0089 27.1695 30.9994 26.9996Z"
                fill="#777777" />
        </g>
    </g>
    <defs>
        <clipPath id="clip0_109_2254">
            <rect width="48" height="48" fill="white" />
        </clipPath>
        <clipPath id="clip1_109_2254">
            <rect width="24" height="24" fill="white" transform="translate(12 12)" />
        </clipPath>
    </defs>
</svg>