<svg width="32" height="33" viewBox="0 0 32 33" fill="none" xmlns="http://www.w3.org/2000/svg">
<g id="trace 1">
<path id="Vector" fill-rule="evenodd" clip-rule="evenodd" d="M20.9871 7.54009C19.7245 8.16178 19.6893 8.18118 16.7063 9.90231C15.5197 10.5869 14.4237 11.1472 14.2711 11.1472C14.1185 11.1472 13.9936 11.2577 13.9936 11.3928C13.9936 11.5279 13.8687 11.6384 13.7161 11.6384C13.5635 11.6384 12.5082 12.1911 11.371 12.8666C10.2338 13.5421 9.23676 14.0947 9.15533 14.0947C9.07366 14.0947 8.27241 14.5369 7.37474 15.0773C6.47708 15.6176 5.69231 16.0598 5.63087 16.0598C5.56942 16.0598 4.64404 16.5768 3.57453 17.2091C1.48098 18.4463 0.324561 19.5141 0.0925276 20.4239C-0.164733 21.4317 0.144729 23.5579 0.64776 24.2405C1.39681 25.2567 3.14943 26.0078 4.75219 25.9999C5.50773 25.9963 11.3311 25.896 17.6929 25.7774C30.4762 25.5386 30.2722 25.5664 31.4148 23.9202C32.0193 23.0492 32.1969 20.8216 31.751 19.6988C31.4933 19.0496 30.6578 18.1245 30.191 17.9715C29.9607 17.8961 30.0241 17.621 30.4268 16.9499C31.3719 15.3745 31.1081 12.9096 29.8713 11.7581C29.7242 11.6212 29.4215 11.1791 29.1984 10.7755C28.7843 10.0266 26.0344 8.01022 24.5158 7.34211C23.3536 6.83071 22.3091 6.88941 20.9871 7.54009ZM24.234 10.3783C23.6159 10.5987 23.0539 10.835 22.9852 10.9037C22.7791 11.1103 15.5 13.5 15.5 13.5C15.5 13.5 9.5 16.3777 9.5 16.5C9.5 16.7392 20.4508 12.4262 20.8622 12.1162C20.9995 12.0128 21.5615 11.8484 22.111 11.7512C22.6605 11.6539 23.2225 11.4911 23.3598 11.3891C23.4972 11.2872 23.9825 11.1256 24.4381 11.0295C24.8939 10.9337 25.5448 10.7134 25.8845 10.54C26.3948 10.2798 26.4317 10.1983 26.097 10.072C25.6045 9.8861 25.6265 9.88242 24.234 10.3783ZM25.4204 12.0476C25.0428 12.1108 24.7336 12.2513 24.7336 12.3603C24.7336 12.4692 24.279 12.6295 23.7235 12.717C23.168 12.8044 22.5219 12.9761 22.2873 13.0987C22.0531 13.2213 20.5125 13.7317 18.864 14.2333C13.7628 15.7854 9.63988 17.0779 9.248 17.2481C8.68552 17.4923 17.4271 17.5898 23.1141 17.4026C29.1052 17.2054 29.2611 17.143 29.4269 14.8771C29.5181 13.6307 29.4574 13.4045 28.8612 12.773C28.1734 12.044 26.967 11.7897 25.4204 12.0476ZM25.1082 18.6932C24.284 18.7386 18.9048 18.8555 13.1544 18.9528L2.69885 19.1302L1.97727 19.9805C1.1358 20.9719 1.04064 22.035 1.69254 23.1622C2.57446 24.6873 2.44184 24.6745 15.9075 24.5153C23.6973 24.4232 28.3762 24.2746 28.8547 24.1039C29.2668 23.957 29.8528 23.5515 30.157 23.2029C31.2495 21.9507 30.6266 19.3709 29.1617 19.0808C28.781 19.0056 28.4091 18.8477 28.3352 18.73C28.2613 18.6124 27.8422 18.5374 27.4038 18.5635C26.9655 18.5895 25.9325 18.6477 25.1082 18.6932ZM11.701 20.1156C11.6208 20.1945 10.8395 20.3364 9.96458 20.4315C8.46523 20.5941 8.36932 20.6427 8.29488 21.2794C8.22145 21.9068 8.2839 21.9576 9.16907 21.9917C9.89015 22.0195 9.95958 22.0529 9.45356 22.1291C8.64156 22.2514 8.0616 22.8514 8.41727 23.2012C8.56863 23.3501 12.0434 23.465 17.3859 23.4979L26.1073 23.5515L26.1872 22.9988C26.2509 22.5562 26.1465 22.4462 25.6625 22.4462C24.797 22.4462 23.4603 21.947 23.6246 21.6854C23.7013 21.5634 24.263 21.4636 24.8732 21.4636C25.8897 21.4636 25.9824 21.4123 25.9824 20.8496C25.9824 20.3089 25.8705 20.232 25.0458 20.2065C24.5308 20.1903 23.9968 20.2095 23.8594 20.249C23.4493 20.3667 13.1726 20.2274 12.483 20.095C12.1328 20.0277 11.7809 20.037 11.701 20.1156ZM3.3962 20.6214C2.89866 21.1109 2.88243 22.778 3.37122 23.1772C4.0426 23.7252 5.51198 23.5925 6.05347 22.9347C6.56625 22.312 6.52753 21.2278 5.96905 20.5659C5.58541 20.1114 3.8775 20.1483 3.3962 20.6214ZM4.30061 21.7277C4.34981 21.8729 4.49667 21.9917 4.6273 21.9917C4.75793 21.9917 4.90479 21.8729 4.954 21.7277C5.0032 21.5825 4.85634 21.4636 4.6273 21.4636C4.39827 21.4636 4.2514 21.5825 4.30061 21.7277ZM11.0111 21.695C10.6509 21.9193 13.5582 22.1718 17.3654 22.2472C19.3663 22.287 21.29 21.9927 21.092 21.6776C20.9129 21.3924 11.4714 21.4086 11.0111 21.695Z" fill="#4C3600"/>
</g>
</svg>
