<svg width="32" height="19" viewBox="0 0 32 19" fill="none" xmlns="http://www.w3.org/2000/svg">
    <path
        d="M30.5638 4.52605L28.6009 5.29748L28.1296 1.99373C28.1266 1.97346 28.1218 1.95351 28.115 1.93417C28.0414 1.72307 27.9058 1.53909 27.7259 1.40632C27.5461 1.27355 27.3303 1.19817 27.1069 1.19005L26.1381 1.15098C26.0617 1.0472 25.9648 0.960277 25.8533 0.895648C25.7418 0.831019 25.6182 0.790071 25.4901 0.77536C24.1267 0.6403 22.7516 0.68162 21.3988 0.898297C19.2129 1.24773 17.375 2.0203 15.9291 3.19374C14.4832 2.02017 12.6452 1.24761 10.4591 0.897985C9.10627 0.681341 7.73118 0.640021 6.36782 0.775047C6.23977 0.789742 6.11612 0.830682 6.00461 0.895312C5.89309 0.959942 5.7961 1.04687 5.71969 1.15067L4.75132 1.18974C4.52791 1.19787 4.31215 1.27324 4.13228 1.406C3.95241 1.53875 3.8168 1.72271 3.74319 1.9338C3.73639 1.95315 3.73149 1.97312 3.72857 1.99342L3.24588 5.37774L1.43613 4.6678C1.35316 4.63498 1.26342 4.62294 1.17473 4.63274C1.08605 4.64253 1.0011 4.67386 0.92729 4.724C0.853481 4.77413 0.793048 4.84155 0.751255 4.92038C0.709462 4.99922 0.687576 5.08707 0.687503 5.1763V6.3958C0.687114 6.50553 0.719936 6.61282 0.781657 6.70356C0.843378 6.79429 0.931108 6.86423 1.03332 6.90417L5.54444 8.69474L2.92838 9.70505C2.77767 9.76307 2.64313 9.8565 2.53613 9.97745C2.42912 10.0984 2.35279 10.2433 2.31357 10.4L0.863566 16.011C0.843788 16.087 0.842097 16.1667 0.858628 16.2435L1.02325 17.7973C1.02503 17.8137 1.02806 17.8299 1.03232 17.8458C1.05428 17.9266 1.09302 18.0019 1.14603 18.0667C1.19904 18.1315 1.26511 18.1845 1.33995 18.222C1.41479 18.2596 1.4967 18.281 1.58035 18.2848C1.66401 18.2885 1.74752 18.2746 1.82544 18.244L15.8138 12.7275L29.8663 18.2641C29.9377 18.2923 30.0142 18.3051 30.0909 18.3017C30.1676 18.2982 30.2427 18.2787 30.3113 18.2442C30.38 18.2098 30.4405 18.1613 30.4891 18.1018C30.5377 18.0424 30.5732 17.9733 30.5933 17.8992L30.8879 16.8079C30.9115 16.7205 30.9128 16.6286 30.8918 16.5405L29.7764 10.2125C29.7565 10.1 29.7096 9.994 29.6397 9.90364C29.5698 9.81328 29.479 9.74125 29.3751 9.69374L26.651 8.45367L30.7123 6.85211C30.7843 6.82373 30.8496 6.78038 30.9037 6.72491C30.9577 6.66945 30.9994 6.60314 31.026 6.53036C31.0317 6.51482 31.0361 6.49886 31.0393 6.48261L31.2884 5.19305C31.3182 5.09461 31.3197 4.98976 31.2926 4.89052C31.2656 4.79128 31.2111 4.70168 31.1355 4.63199C31.0598 4.56231 30.966 4.51537 30.8649 4.49655C30.7638 4.47773 30.6594 4.4878 30.5638 4.52561V4.52605ZM27.0816 1.81436C27.1753 1.81768 27.266 1.84788 27.343 1.90136C27.42 1.95485 27.4799 2.02935 27.5157 2.11599L28.0032 5.53249L26.4526 6.14192C26.5514 6.06372 26.6238 5.95714 26.6602 5.83652C26.6965 5.7159 26.695 5.58704 26.6559 5.4673L26.3021 1.78292L27.0816 1.81436ZM26.0843 6.28661L17.4041 9.69824L16.9573 9.07792C19.7538 7.39905 23.2253 6.79424 25.1193 6.4643C25.5116 6.39599 25.8329 6.33992 26.0843 6.28661ZM25.4202 1.39617C25.4674 1.40157 25.5128 1.41772 25.5528 1.44337C25.5929 1.46903 25.6265 1.50351 25.6511 1.54417L26.0374 5.56761C26.0402 5.59674 26.0471 5.62533 26.0579 5.65255C25.8092 5.70973 25.4568 5.7713 25.0121 5.84861C23.0673 6.1873 19.4952 6.8098 16.5908 8.56917L16.5516 8.5148C16.5023 8.42928 16.4319 8.35787 16.347 8.30742L16.2495 3.73867C19.7336 0.849235 24.8427 1.33123 25.4202 1.39617ZM16.0549 8.89449L16.8038 9.93417L15.8318 10.3162L15.298 10.1068L16.0549 8.89449ZM5.81944 5.57836C5.81994 5.5748 5.82038 5.57117 5.82075 5.56761L6.20707 1.54411C6.23175 1.50342 6.26543 1.46894 6.30552 1.44329C6.3456 1.41765 6.39103 1.40153 6.43832 1.39617C7.01625 1.33067 12.1403 0.847735 15.6249 3.7518L15.7225 8.32636C15.6361 8.38585 15.5675 8.46782 15.5243 8.56342C12.4606 6.76292 8.868 6.17292 6.91175 5.85192C6.44732 5.77574 6.07713 5.71492 5.818 5.65649C5.81524 5.63048 5.81573 5.60424 5.81944 5.57836ZM4.34244 2.11586C4.37822 2.02922 4.43818 1.9547 4.51516 1.90121C4.59214 1.84771 4.68288 1.8175 4.77657 1.81417L5.55625 1.78292L5.19907 5.50286C5.15069 5.8878 5.32694 6.18411 5.64907 6.25911C5.92882 6.32411 6.31782 6.38792 6.80994 6.46867C8.72244 6.78249 12.2328 7.3588 15.1933 9.09405L14.7058 9.87461L3.84375 5.61249L4.34244 2.11586ZM1.3125 6.34255V5.29061L14.9769 10.6522L13.5667 11.2062L1.3125 6.34255ZM6.175 9.12117L6.4 9.0343L12.7154 11.541L5.11669 14.5276L6.175 9.12117ZM5.48619 9.38749L4.42669 14.7989L3.7215 15.076L4.92832 9.60267L5.48619 9.38749ZM2.9195 10.5532C2.93432 10.4935 2.96333 10.4382 3.00406 10.392C3.0448 10.3459 3.09606 10.3102 3.1535 10.288L4.2285 9.87286L3.02082 15.3514L1.52825 15.938L2.9195 10.5532ZM30.0133 17.6504L16.6663 12.3917L17.9883 11.8704L30.2661 16.7146L30.0133 17.6504ZM29.1155 10.2625C29.1272 10.2679 29.1375 10.276 29.1454 10.2862C29.1533 10.2964 29.1587 10.3084 29.1609 10.3211L30.1625 16.0017L28.6488 15.4045L28.0079 9.75848L29.1155 10.2625ZM27.3446 9.45624L27.9903 15.1444L27.4756 14.9413L26.9306 9.26786L27.3446 9.45624ZM26.8229 14.6838L18.84 11.5345L25.8426 8.77292L26.2739 8.96924L26.8229 14.6838ZM30.4404 6.28755L1.63619 17.6471L1.52625 16.6102L1.53719 16.606L30.6582 5.16042L30.4404 6.28755Z"
        fill="#4C3600" />
</svg>