<svg width="112" height="113" viewBox="0 0 112 113" fill="none" xmlns="http://www.w3.org/2000/svg">
    <path
        d="M55.2921 2.25C34.4196 2.25 17.5 19.1512 17.5 40.0237C17.5 60.8962 55.2921 110.75 55.2921 110.75C55.2921 110.75 93.0658 60.8962 93.0658 40.0237C93.0658 19.1512 76.1646 2.25 55.2921 2.25ZM55.2921 65.0337C41.4757 65.0337 30.2821 53.8401 30.2821 40.0237C30.2821 26.2072 41.4757 15.0136 55.2921 15.0136C69.1086 15.0136 80.3022 26.2072 80.3022 40.0237C80.3022 53.8401 69.1086 65.0337 55.2921 65.0337Z"
        fill="#E62828" />
    <circle cx="55.2894" cy="39.1927" r="25.8597" fill="white" />
    <path
        d="M52.25 26.2857H58.25M52.25 26.2857V22M52.25 26.2857L50.45 32M58.25 26.2857V22M58.25 26.2857L60.05 32M50.45 32H60.05M50.45 32L48.65 37.7143M60.05 32L61.85 37.7143M48.65 37.7143L47.8602 40.2217C47.7946 40.4298 47.6016 40.5714 47.3833 40.5714H43C42.7239 40.5714 42.5 40.7953 42.5 41.0714V51.5C42.5 51.7761 42.7239 52 43 52H51C51.2761 52 51.5 51.7761 51.5 51.5V43.9286C51.5 43.6524 51.7239 43.4286 52 43.4286H58.5C58.7761 43.4286 59 43.6524 59 43.9286V51.5C59 51.7761 59.2239 52 59.5 52H67.5C67.7761 52 68 51.7761 68 51.5V41.0714C68 40.7953 67.7761 40.5714 67.5 40.5714H63.1167C62.8984 40.5714 62.7054 40.4298 62.6398 40.2217L61.85 37.7143M48.65 37.7143H61.85"
        stroke="#E62828" stroke-width="2" />
</svg>