<svg width="56" height="56" viewBox="0 0 56 56" fill="none" xmlns="http://www.w3.org/2000/svg">
    <path
        d="M43.8346 21V21.0007C43.8397 24.2322 42.8512 27.3872 41.0031 30.038L40.4552 30.824H40.5054L29.5469 47.9842L29.5468 47.9843C29.3811 48.244 29.1527 48.4577 28.8825 48.6058C28.6124 48.7539 28.3093 48.8315 28.0013 48.8315C27.6933 48.8315 27.3902 48.7539 27.1201 48.6058C26.85 48.4577 26.6215 48.244 26.4558 47.9843L15.0621 30.1273L15.0561 30.1179L15.0496 30.1087C13.6183 28.0733 12.6869 25.7292 12.3309 23.2665C11.9749 20.8038 12.2043 18.2919 13.0005 15.9344C13.7968 13.577 15.1374 11.4404 16.9138 9.69791C18.6901 7.95545 20.8521 6.65619 23.2245 5.90549C25.5968 5.15478 28.1127 4.97378 30.5681 5.37716C33.0234 5.78054 35.3492 6.75695 37.3567 8.22719C39.3641 9.69743 40.9968 11.6201 42.1223 13.8393C43.2478 16.0585 43.8345 18.5117 43.8346 21ZM28.0013 30.8333C30.6093 30.8333 33.1104 29.7973 34.9545 27.9532C36.7986 26.1091 37.8346 23.6079 37.8346 21C37.8346 18.392 36.7986 15.8908 34.9545 14.0467C33.1104 12.2026 30.6093 11.1666 28.0013 11.1666C25.3933 11.1666 22.8922 12.2026 21.0481 14.0467C19.204 15.8908 18.168 18.392 18.168 21C18.168 23.6079 19.204 26.1091 21.0481 27.9532C22.8922 29.7973 25.3933 30.8333 28.0013 30.8333Z"
        fill="#222222" stroke="#FFB500" />
    <circle cx="28" cy="21" r="11.5" fill="#222222" stroke="#FFB500" />
    <path
        d="M31.6473 25.9687C31.2204 26.2614 28.4811 24.4061 27.9565 24.4021C27.4318 24.398 24.6617 26.2106 24.2397 25.9113C23.8178 25.6121 24.8098 22.5385 24.6517 22.0584C24.4936 21.5783 21.8413 19.6099 22.0075 19.1323C22.1737 18.6547 25.526 18.6103 25.953 18.3177C26.3799 18.025 27.5109 14.996 28.0355 15C28.5602 15.0041 29.6401 18.0503 30.062 18.3495C30.4839 18.6487 33.8352 18.745 33.9933 19.2251C34.1514 19.7052 31.4664 21.6323 31.3002 22.1099C31.1341 22.5875 32.0743 25.676 31.6473 25.9687Z"
        fill="white" />
</svg>