<svg width="35" height="50" viewBox="0 0 35 50" fill="none" xmlns="http://www.w3.org/2000/svg">
    <path
        d="M17.684 0.78125C8.36591 0.78125 0.8125 8.32642 0.8125 17.6445C0.8125 26.9626 17.684 49.2188 17.684 49.2188C17.684 49.2188 34.5472 26.9626 34.5472 17.6445C34.5472 8.32642 27.0021 0.78125 17.684 0.78125ZM17.684 28.8097C11.5159 28.8097 6.51879 23.8126 6.51879 17.6445C6.51879 11.4764 11.5159 6.47929 17.684 6.47929C23.8521 6.47929 28.8492 11.4764 28.8492 17.6445C28.8492 23.8126 23.8521 28.8097 17.684 28.8097Z"
        fill="#D700C1" />
    <circle cx="17.6812" cy="17.2735" r="11.5445" fill="white" />
    <path
        d="M13.864 21V12.54H17.764C18.692 12.54 19.408 12.736 19.912 13.128C20.416 13.52 20.668 14.056 20.668 14.736C20.668 15.24 20.516 15.668 20.212 16.02C19.916 16.372 19.508 16.608 18.988 16.728V16.536C19.596 16.64 20.064 16.872 20.392 17.232C20.728 17.584 20.896 18.044 20.896 18.612C20.896 19.364 20.628 19.952 20.092 20.376C19.564 20.792 18.832 21 17.896 21H13.864ZM15.652 19.608H17.668C18.132 19.608 18.488 19.52 18.736 19.344C18.984 19.168 19.108 18.888 19.108 18.504C19.108 18.112 18.984 17.832 18.736 17.664C18.488 17.488 18.132 17.4 17.668 17.4H15.652V19.608ZM15.652 16.02H17.428C17.916 16.02 18.276 15.932 18.508 15.756C18.74 15.58 18.856 15.316 18.856 14.964C18.856 14.62 18.74 14.36 18.508 14.184C18.276 14.008 17.916 13.92 17.428 13.92H15.652V16.02Z"
        fill="#D700C1" />
</svg>