<svg width="35" height="50" viewBox="0 0 35 50" fill="none" xmlns="http://www.w3.org/2000/svg">
    <path
        d="M17.684 0.78125C8.36591 0.78125 0.8125 8.32642 0.8125 17.6445C0.8125 26.9626 17.684 49.2188 17.684 49.2188C17.684 49.2188 34.5472 26.9626 34.5472 17.6445C34.5472 8.32642 27.0021 0.78125 17.684 0.78125ZM17.684 28.8097C11.5159 28.8097 6.51879 23.8126 6.51879 17.6445C6.51879 11.4764 11.5159 6.47929 17.684 6.47929C23.8521 6.47929 28.8492 11.4764 28.8492 17.6445C28.8492 23.8126 23.8521 28.8097 17.684 28.8097Z"
        fill="#D700C1" />
    <circle cx="17.6812" cy="17.2735" r="11.5445" fill="white" />
    <path
        d="M17.956 21.132C17.052 21.132 16.276 20.952 15.628 20.592C14.98 20.232 14.48 19.728 14.128 19.08C13.784 18.424 13.612 17.652 13.612 16.764C13.612 15.876 13.784 15.108 14.128 14.46C14.48 13.812 14.98 13.308 15.628 12.948C16.276 12.588 17.052 12.408 17.956 12.408C18.54 12.408 19.072 12.492 19.552 12.66C20.032 12.82 20.44 13.056 20.776 13.368L20.188 14.844C19.82 14.556 19.468 14.352 19.132 14.232C18.804 14.112 18.432 14.052 18.016 14.052C17.224 14.052 16.616 14.288 16.192 14.76C15.776 15.224 15.568 15.892 15.568 16.764C15.568 17.636 15.776 18.308 16.192 18.78C16.616 19.252 17.224 19.488 18.016 19.488C18.432 19.488 18.804 19.428 19.132 19.308C19.468 19.188 19.82 18.984 20.188 18.696L20.776 20.172C20.44 20.476 20.032 20.712 19.552 20.88C19.072 21.048 18.54 21.132 17.956 21.132Z"
        fill="#D700C1" />
</svg>