<svg width="31" height="44" viewBox="0 0 31 44" fill="none" xmlns="http://www.w3.org/2000/svg">
    <path
        d="M15.7219 0.6875C7.522 0.6875 0.875 7.32725 0.875 15.5272C0.875 23.7271 15.7219 43.3125 15.7219 43.3125C15.7219 43.3125 30.5616 23.7271 30.5616 15.5272C30.5616 7.32725 23.9218 0.6875 15.7219 0.6875ZM15.7219 25.3525C10.294 25.3525 5.89654 20.9551 5.89654 15.5272C5.89654 10.0993 10.294 5.70178 15.7219 5.70178C21.1498 5.70178 25.5473 10.0993 25.5473 15.5272C25.5473 20.9551 21.1498 25.3525 15.7219 25.3525Z"
        fill="#007DE6" />
    <circle cx="15.7217" cy="15.2007" r="10.1592" fill="white" />
    <g clip-path="url(#clip0_1883_4343)">
        <path fill-rule="evenodd" clip-rule="evenodd"
            d="M10.6681 8.42767C10.6681 8.93783 10.5888 9.5035 10.4918 9.68483C10.3946 9.86617 10.2869 10.7425 10.2524 11.6323C10.1714 13.721 9.66361 16.3062 9.11378 17.4298C8.17478 19.3488 8.10894 19.6465 8.54278 20.0133C9.19344 20.5637 11.0426 21.5803 12.1681 22.0065C13.1494 22.378 13.4946 22.4167 15.8348 22.4167C18.5321 22.4167 19.1343 22.2945 20.9943 21.3698C22.2698 20.7355 23.8348 19.554 23.8348 19.2252C23.8348 18.9777 23.1203 17.141 22.8133 16.5997C22.7144 16.4252 22.5266 15.6002 22.3958 14.7663C22.2651 13.9323 22.0989 12.8952 22.0268 12.4613C21.9544 12.0277 21.9488 11.6152 22.0141 11.5447C22.0796 11.4743 22.0573 10.9667 21.9646 10.4167C21.8719 9.86667 21.8091 8.98533 21.8251 8.45833C21.8478 7.70283 21.8008 7.5 21.6028 7.5C21.1571 7.5 20.4846 8.6 20.2836 9.65783C20.0883 10.6857 19.8348 11.0133 19.8348 10.238C19.8348 9.77717 19.0664 8.33333 18.8213 8.33333C18.5499 8.33333 17.7869 9.66467 17.7691 10.1692C17.7476 10.7737 17.2113 10.8905 17.2073 10.2917C17.2043 9.8405 16.4974 8.46667 16.2224 8.3775C15.9146 8.27767 15.1681 9.51283 15.1681 10.122C15.1681 10.5555 15.1001 10.6667 14.8348 10.6667C14.6108 10.6667 14.5014 10.5555 14.5014 10.328C14.5014 9.92883 14.1263 9.0505 13.7604 8.59333C13.5048 8.27383 13.4981 8.274 13.1908 8.60383C12.7144 9.11517 12.5033 9.59083 12.4829 10.1973C12.4664 10.6922 12.4431 10.6625 12.2594 9.9135C11.9634 8.70583 11.2371 7.5 10.8058 7.5C10.7301 7.5 10.6681 7.9175 10.6681 8.42767ZM13.3348 10.1667C13.3348 10.4778 13.3793 10.5222 13.5348 10.3667C13.6903 10.2112 13.6903 10.1222 13.5348 9.96667C13.3793 9.81117 13.3348 9.8555 13.3348 10.1667ZM16.0014 10.1667C16.0014 10.35 16.0764 10.5 16.1681 10.5C16.2598 10.5 16.3348 10.35 16.3348 10.1667C16.3348 9.98333 16.2598 9.83333 16.1681 9.83333C16.0764 9.83333 16.0014 9.98333 16.0014 10.1667ZM18.6681 10.1667C18.6681 10.35 18.7431 10.5 18.8348 10.5C18.9264 10.5 19.0014 10.35 19.0014 10.1667C19.0014 9.98333 18.9264 9.83333 18.8348 9.83333C18.7431 9.83333 18.6681 9.98333 18.6681 10.1667ZM11.1681 10.3235C11.1681 10.5122 11.2431 10.6667 11.3348 10.6667C11.4264 10.6667 11.5014 10.5587 11.5014 10.4265C11.5014 10.2943 11.4264 10.14 11.3348 10.0833C11.2431 10.0267 11.1681 10.1348 11.1681 10.3235ZM21.0278 10.3333C21.0278 10.5625 21.0656 10.6563 21.1118 10.5417C21.1581 10.4272 21.1581 10.2397 21.1118 10.125C21.0656 10.0105 21.0278 10.1042 21.0278 10.3333ZM11.2534 11.8595C11.2009 12.0743 11.0523 12.85 10.9233 13.5833C10.7941 14.3167 10.6376 15.1228 10.5754 15.375L10.4626 15.8333H12.3769H14.2911L14.3944 15.2083C14.4513 14.8647 14.4986 14.377 14.4996 14.125C14.5024 13.402 15.0323 12.998 15.9598 13.0117C16.3951 13.0182 16.8944 13.0795 17.0693 13.148C17.3976 13.2768 17.8133 14.4978 17.8274 15.375L17.8348 15.8333H19.7648H21.6946L21.5774 14.7083C21.5129 14.0897 21.3944 13.457 21.3141 13.3027C21.2338 13.1482 21.1669 12.8107 21.1656 12.5527C21.1641 12.2945 21.1079 11.9997 21.0406 11.8972C20.9583 11.7723 19.3469 11.6713 16.1334 11.59L11.3489 11.469L11.2534 11.8595ZM15.5326 13.8792C15.4356 13.996 15.3043 14.4835 15.2406 14.9625L15.1251 15.8333H16.0633C17.0013 15.8333 17.0014 15.8332 17.0014 15.3168C17.0014 14.5128 16.5321 13.6667 16.0863 13.6667C15.8788 13.6667 15.6296 13.7623 15.5326 13.8792ZM10.1073 17.2062C9.97244 17.5053 9.70294 18.1225 9.50861 18.5777L9.15494 19.4053L9.53661 19.7083C10.1138 20.1667 11.1386 20.6988 12.2514 21.1178C13.4636 21.5743 13.8344 21.5955 13.8361 21.2083C13.8368 21.0478 13.9098 20.286 13.9984 19.5153C14.2176 17.6085 14.4749 17.3333 16.0381 17.3333C17.6973 17.3333 17.9281 17.6028 18.0873 19.7275C18.1538 20.6135 18.2624 21.372 18.3289 21.413C18.4806 21.5068 20.0351 20.9395 20.9181 20.468C21.8263 19.983 22.8349 19.1808 22.8339 18.9443C22.8336 18.8375 22.6499 18.3 22.4259 17.75L22.0186 16.75L16.1856 16.7062L10.3524 16.6625L10.1073 17.2062ZM15.0336 18.4503C14.9484 18.6152 14.8274 19.4063 14.7648 20.2083L14.6508 21.6667H16.0556H17.4604L17.3788 20.875C17.3339 20.4397 17.2494 19.6708 17.1909 19.1667L17.0846 18.25L16.1366 18.2003C15.3608 18.1597 15.1603 18.2052 15.0336 18.4503Z"
            fill="#007DE6" />
    </g>
    <defs>
        <clipPath id="clip0_1883_4343">
            <rect width="16" height="16" fill="white" transform="translate(8 7)" />
        </clipPath>
    </defs>
</svg>