<svg width="27" height="38" viewBox="0 0 27 38" fill="none" xmlns="http://www.w3.org/2000/svg">
    <path
        d="M13.7598 0.59375C6.6781 0.59375 0.9375 6.32808 0.9375 13.4098C0.9375 20.4916 13.7598 37.4062 13.7598 37.4062C13.7598 37.4062 26.5759 20.4916 26.5759 13.4098C26.5759 6.32808 20.8416 0.59375 13.7598 0.59375ZM13.7598 21.8954C9.0721 21.8954 5.27428 18.0975 5.27428 13.4098C5.27428 8.72208 9.0721 4.92426 13.7598 4.92426C18.4476 4.92426 22.2454 8.72208 22.2454 13.4098C22.2454 18.0975 18.4476 21.8954 13.7598 21.8954Z"
        fill="#6EDB00" />
    <circle cx="13.7582" cy="13.128" r="8.77384" fill="white" />
    <g clip-path="url(#clip0_1883_4355)">
        <path fill-rule="evenodd" clip-rule="evenodd"
            d="M9.99815 8.07075C9.99815 8.45338 9.93865 8.87763 9.8659 9.01363C9.79303 9.14963 9.71228 9.80688 9.6864 10.4743C9.62565 12.0408 9.24478 13.9796 8.8324 14.8224C8.12815 16.2616 8.07878 16.4849 8.40415 16.76C8.89215 17.1728 10.279 17.9353 11.1232 18.2549C11.8592 18.5335 12.118 18.5625 13.8732 18.5625C15.8962 18.5625 16.3478 18.4709 17.7428 17.7774C18.6994 17.3016 19.8732 16.4155 19.8732 16.1689C19.8732 15.9833 19.3373 14.6058 19.107 14.1998C19.0329 14.0689 18.892 13.4501 18.7939 12.8248C18.6959 12.1993 18.5713 11.4214 18.5172 11.096C18.4629 10.7708 18.4587 10.4614 18.5077 10.4085C18.5568 10.3558 18.54 9.975 18.4705 9.5625C18.401 9.15 18.3539 8.489 18.3659 8.09375C18.3829 7.52713 18.3477 7.375 18.1992 7.375C17.8649 7.375 17.3605 8.2 17.2098 8.99338C17.0633 9.76425 16.8732 10.01 16.8732 9.4285C16.8732 9.08288 16.2969 8 16.113 8C15.9095 8 15.3373 8.9985 15.3239 9.37688C15.3078 9.83025 14.9055 9.91788 14.9025 9.46875C14.9003 9.13038 14.3702 8.1 14.1639 8.03313C13.933 7.95825 13.3732 8.88463 13.3732 9.3415C13.3732 9.66663 13.3222 9.75 13.1232 9.75C12.9552 9.75 12.8732 9.66663 12.8732 9.496C12.8732 9.19663 12.5918 8.53788 12.3174 8.195C12.1257 7.95538 12.1207 7.9555 11.8902 8.20288C11.5329 8.58638 11.3745 8.94313 11.3593 9.398C11.3469 9.76913 11.3294 9.74688 11.1917 9.18513C10.9697 8.27938 10.4249 7.375 10.1014 7.375C10.0447 7.375 9.99815 7.68813 9.99815 8.07075ZM11.9982 9.375C11.9982 9.60838 12.0315 9.64163 12.1482 9.525C12.2648 9.40838 12.2648 9.34163 12.1482 9.225C12.0315 9.10838 11.9982 9.14163 11.9982 9.375ZM13.9982 9.375C13.9982 9.5125 14.0544 9.625 14.1232 9.625C14.1919 9.625 14.2482 9.5125 14.2482 9.375C14.2482 9.2375 14.1919 9.125 14.1232 9.125C14.0544 9.125 13.9982 9.2375 13.9982 9.375ZM15.9982 9.375C15.9982 9.5125 16.0544 9.625 16.1232 9.625C16.1919 9.625 16.2482 9.5125 16.2482 9.375C16.2482 9.2375 16.1919 9.125 16.1232 9.125C16.0544 9.125 15.9982 9.2375 15.9982 9.375ZM10.3732 9.49263C10.3732 9.63413 10.4294 9.75 10.4982 9.75C10.5669 9.75 10.6232 9.669 10.6232 9.56988C10.6232 9.47075 10.5669 9.355 10.4982 9.3125C10.4294 9.27 10.3732 9.35113 10.3732 9.49263ZM17.7679 9.5C17.7679 9.67188 17.7963 9.74225 17.8309 9.65625C17.8657 9.57038 17.8657 9.42975 17.8309 9.34375C17.7963 9.25788 17.7679 9.32813 17.7679 9.5ZM10.4372 10.6446C10.3978 10.8058 10.2863 11.3875 10.1895 11.9375C10.0927 12.4875 9.97528 13.0921 9.92865 13.2813L9.84403 13.625H11.2798H12.7154L12.7929 13.1563C12.8355 12.8985 12.871 12.5328 12.8718 12.3438C12.8739 11.8015 13.2713 11.4985 13.9669 11.5088C14.2934 11.5136 14.6679 11.5596 14.799 11.611C15.0453 11.7076 15.357 12.6234 15.3677 13.2813L15.3732 13.625H16.8207H18.268L18.1802 12.7813C18.1318 12.3173 18.0429 11.8428 17.9827 11.727C17.9224 11.6111 17.8723 11.358 17.8713 11.1645C17.8702 10.9709 17.828 10.7498 17.7775 10.6729C17.7158 10.5793 16.5073 10.5035 14.0972 10.4425L10.5088 10.3518L10.4372 10.6446ZM13.6465 12.1594C13.5738 12.247 13.4753 12.6126 13.4275 12.9719L13.3409 13.625H14.0445C14.748 13.625 14.7482 13.6249 14.7482 13.2376C14.7482 12.6346 14.3962 12 14.0618 12C13.9062 12 13.7193 12.0718 13.6465 12.1594ZM9.57753 14.6546C9.4764 14.879 9.27428 15.3419 9.12853 15.6833L8.86328 16.304L9.14953 16.5313C9.5824 16.875 10.351 17.2741 11.1857 17.5884C12.0948 17.9308 12.3729 17.9466 12.3742 17.6563C12.3747 17.5359 12.4294 16.9645 12.4959 16.3865C12.6603 14.9564 12.8533 14.75 14.0257 14.75C15.27 14.75 15.4432 14.9521 15.5625 16.5456C15.6124 17.2101 15.6939 17.779 15.7438 17.8098C15.8575 17.8801 17.0234 17.4546 17.6857 17.101C18.3668 16.7373 19.1233 16.1356 19.1225 15.9583C19.1223 15.8781 18.9845 15.475 18.8165 15.0625L18.511 14.3125L14.1363 14.2796L9.7614 14.2469L9.57753 14.6546ZM13.2723 15.5878C13.2084 15.7114 13.1177 16.3048 13.0707 16.9063L12.9852 18H14.0388H15.0924L15.0312 17.4063C14.9975 17.0798 14.9342 16.5031 14.8903 16.125L14.8105 15.4375L14.0995 15.4003C13.5177 15.3698 13.3673 15.4039 13.2723 15.5878Z"
            fill="#6EDB00" />
    </g>
    <defs>
        <clipPath id="clip0_1883_4355">
            <rect width="12" height="12" fill="white" transform="translate(8 7)" />
        </clipPath>
    </defs>
</svg>