<svg width="22" height="32" viewBox="0 0 22 32" fill="none" xmlns="http://www.w3.org/2000/svg">
    <path
        d="M10.7978 0.5C4.83419 0.5 0 5.32891 0 11.2925C0 17.256 10.7978 31.5 10.7978 31.5C10.7978 31.5 21.5902 17.256 21.5902 11.2925C21.5902 5.32891 16.7613 0.5 10.7978 0.5ZM10.7978 18.4382C6.85019 18.4382 3.65203 15.24 3.65203 11.2925C3.65203 7.34491 6.85019 4.14675 10.7978 4.14675C14.7453 4.14675 17.9435 7.34491 17.9435 11.2925C17.9435 15.24 14.7453 18.4382 10.7978 18.4382Z"
        fill="#A5A5A5" />
    <circle cx="10.7947" cy="11.0551" r="7.38849" fill="white" />
    <g clip-path="url(#clip0_1883_4361)">
        <path fill-rule="evenodd" clip-rule="evenodd"
            d="M7.66513 6.89229C7.66513 7.21115 7.61554 7.56469 7.55492 7.67802C7.49419 7.79135 7.4269 8.33906 7.40534 8.89521C7.35471 10.2006 7.03731 11.8164 6.69367 12.5186C6.10679 13.718 6.06565 13.9041 6.33679 14.1333C6.74346 14.4773 7.89919 15.1127 8.60263 15.3791C9.21596 15.6113 9.43169 15.6354 10.8943 15.6354C12.5801 15.6354 12.9565 15.5591 14.119 14.9811C14.9162 14.5847 15.8943 13.8463 15.8943 13.6407C15.8943 13.486 15.4477 12.3381 15.2559 11.9998C15.1941 11.8907 15.0767 11.3751 14.9949 10.854C14.9133 10.3327 14.8094 9.68448 14.7643 9.41333C14.7191 9.14229 14.7155 8.88448 14.7564 8.84042C14.7973 8.79646 14.7834 8.47917 14.7254 8.13542C14.6675 7.79167 14.6283 7.24083 14.6383 6.91146C14.6524 6.43927 14.623 6.3125 14.4993 6.3125C14.2208 6.3125 13.8004 7 13.6748 7.66115C13.5527 8.30354 13.3943 8.50833 13.3943 8.02375C13.3943 7.73573 12.9141 6.83333 12.7609 6.83333C12.5913 6.83333 12.1144 7.66542 12.1033 7.98073C12.0898 8.35854 11.7546 8.43156 11.7521 8.05729C11.7502 7.77531 11.3085 6.91667 11.1366 6.86094C10.9442 6.79854 10.4776 7.57052 10.4776 7.95125C10.4776 8.22219 10.4351 8.29167 10.2693 8.29167C10.1293 8.29167 10.061 8.22219 10.061 8.08C10.061 7.83052 9.82648 7.28156 9.59784 6.99583C9.43804 6.79615 9.43388 6.79625 9.24179 7.0024C8.94408 7.32198 8.81211 7.61927 8.7994 7.99833C8.78908 8.3076 8.7745 8.28906 8.65971 7.82094C8.47471 7.06615 8.02075 6.3125 7.75117 6.3125C7.70388 6.3125 7.66513 6.57344 7.66513 6.89229ZM9.33179 7.97917C9.33179 8.17365 9.35961 8.20135 9.45679 8.10417C9.55398 8.00698 9.55398 7.95135 9.45679 7.85417C9.35961 7.75698 9.33179 7.78469 9.33179 7.97917ZM10.9985 7.97917C10.9985 8.09375 11.0453 8.1875 11.1026 8.1875C11.1599 8.1875 11.2068 8.09375 11.2068 7.97917C11.2068 7.86458 11.1599 7.77083 11.1026 7.77083C11.0453 7.77083 10.9985 7.86458 10.9985 7.97917ZM12.6651 7.97917C12.6651 8.09375 12.712 8.1875 12.7693 8.1875C12.8266 8.1875 12.8735 8.09375 12.8735 7.97917C12.8735 7.86458 12.8266 7.77083 12.7693 7.77083C12.712 7.77083 12.6651 7.86458 12.6651 7.97917ZM7.97763 8.07719C7.97763 8.1951 8.0245 8.29167 8.08179 8.29167C8.13909 8.29167 8.18596 8.22417 8.18596 8.14156C8.18596 8.05896 8.13909 7.9625 8.08179 7.92708C8.0245 7.89167 7.97763 7.95927 7.97763 8.07719ZM14.1399 8.08333C14.1399 8.22656 14.1636 8.28521 14.1924 8.21354C14.2214 8.14198 14.2214 8.02479 14.1924 7.95313C14.1636 7.88156 14.1399 7.9401 14.1399 8.08333ZM8.03096 9.03719C7.99815 9.17146 7.90523 9.65625 7.82461 10.1146C7.74388 10.5729 7.64606 11.0768 7.60721 11.2344L7.53669 11.5208H8.73315H9.9295L9.99409 11.1302C10.0296 10.9154 10.0592 10.6106 10.0598 10.4531C10.0616 10.0013 10.3927 9.74875 10.9724 9.75729C11.2445 9.76135 11.5566 9.79969 11.6659 9.8425C11.8711 9.92302 12.1309 10.6861 12.1397 11.2344L12.1443 11.5208H13.3505H14.5567L14.4835 10.8177C14.4431 10.431 14.3691 10.0356 14.3189 9.93917C14.2687 9.8426 14.2269 9.63167 14.2261 9.47042C14.2251 9.30906 14.19 9.12479 14.1479 9.06073C14.0965 8.98271 13.0894 8.91958 11.081 8.86875L8.09065 8.79313L8.03096 9.03719ZM10.7054 10.2995C10.6448 10.3725 10.5627 10.6772 10.5229 10.9766L10.4508 11.5208H11.0371C11.6234 11.5208 11.6235 11.5207 11.6235 11.198C11.6235 10.6955 11.3301 10.1667 11.0515 10.1667C10.9218 10.1667 10.7661 10.2265 10.7054 10.2995ZM7.31461 12.3789C7.23034 12.5658 7.0619 12.9516 6.94044 13.236L6.7194 13.7533L6.95794 13.9427C7.31867 14.2292 7.95919 14.5618 8.65471 14.8236C9.41231 15.109 9.64408 15.1222 9.64513 14.8802C9.64554 14.7799 9.69117 14.3038 9.74658 13.8221C9.88356 12.6303 10.0444 12.4583 11.0214 12.4583C12.0584 12.4583 12.2026 12.6268 12.3021 13.9547C12.3437 14.5084 12.4116 14.9825 12.4531 15.0081C12.5479 15.0668 13.5195 14.7122 14.0714 14.4175C14.639 14.1144 15.2694 13.613 15.2688 13.4652C15.2686 13.3984 15.1538 13.0625 15.0138 12.7188L14.7592 12.0938L11.1136 12.0664L7.46784 12.0391L7.31461 12.3789ZM10.3936 13.1565C10.3403 13.2595 10.2647 13.754 10.2255 14.2552L10.1543 15.1667H11.0323H11.9103L11.8593 14.6719C11.8313 14.3998 11.7785 13.9193 11.7419 13.6042L11.6754 13.0313L11.0829 13.0002C10.598 12.9748 10.4727 13.0032 10.3936 13.1565Z"
            fill="#A5A5A5" />
    </g>
    <defs>
        <clipPath id="clip0_1883_4361">
            <rect width="10" height="10" fill="white" transform="translate(6 6)" />
        </clipPath>
    </defs>
</svg>