<svg width="24" height="24" viewBox="0 0 24 24" fill="none" xmlns="http://www.w3.org/2000/svg">
    <circle cx="12" cy="12" r="10.5" fill="#C1554E" stroke="#FFB500" stroke-width="3" />
    <path
        d="M15.6473 16.9687C15.2204 17.2614 12.4811 15.4061 11.9565 15.4021C11.4318 15.398 8.66168 17.2106 8.23974 16.9113C7.8178 16.6121 8.80976 13.5385 8.65168 13.0584C8.4936 12.5783 5.84135 10.6099 6.00749 10.1323C6.17366 9.6547 9.52603 9.61034 9.95296 9.31767C10.3799 9.02503 11.5109 5.99596 12.0355 6C12.5602 6.00408 13.6401 9.05027 14.062 9.34951C14.4839 9.64872 17.8352 9.74504 17.9933 10.2251C18.1514 10.7052 15.4664 12.6323 15.3002 13.1099C15.1341 13.5875 16.0743 16.676 15.6473 16.9687Z"
        fill="white" />
</svg>