<svg width="56" height="56" viewBox="0 0 56 56" fill="none" xmlns="http://www.w3.org/2000/svg">
    <path d="M27.6461 0.875C17.2098 0.875 8.75 9.32559 8.75 19.7618C8.75 30.1981 27.6461 55.125 27.6461 55.125C27.6461 55.125 46.5329 30.1981 46.5329 19.7618C46.5329 9.32559 38.0823 0.875 27.6461 0.875ZM27.6461 32.2669C20.7378 32.2669 15.141 26.6701 15.141 19.7618C15.141 12.8536 20.7378 7.25681 27.6461 7.25681C34.5543 7.25681 40.1511 12.8536 40.1511 19.7618C40.1511 26.6701 34.5543 32.2669 27.6461 32.2669Z" fill="#D700C1"/>
    <circle cx="27.6438" cy="19.3464" r="12.9299" fill="white"/>
    <g clip-path="url(#clip0_580_3846)">
    <path fill-rule="evenodd" clip-rule="evenodd" d="M22 11.6061C22 12.1801 21.9107 12.8164 21.8016 13.0204C21.6923 13.2244 21.5712 14.2103 21.5324 15.2114C21.4412 17.5611 20.8699 20.4694 20.2514 21.7336C19.195 23.8924 19.1209 24.2273 19.609 24.64C20.341 25.2591 22.4213 26.4029 23.6875 26.8823C24.7915 27.3003 25.1798 27.3438 27.8125 27.3438C30.847 27.3438 31.5244 27.2063 33.6169 26.1661C35.0519 25.4524 36.8125 24.1233 36.8125 23.7533C36.8125 23.4749 36.0087 21.4086 35.6633 20.7996C35.5521 20.6033 35.3408 19.6752 35.1936 18.7371C35.0466 17.7989 34.8597 16.6321 34.7785 16.144C34.6971 15.6561 34.6907 15.1921 34.7642 15.1128C34.8379 15.0336 34.8128 14.4625 34.7086 13.8438C34.6043 13.225 34.5336 12.2335 34.5516 11.6406C34.5771 10.7907 34.5242 10.5625 34.3015 10.5625C33.8001 10.5625 33.0436 11.8 32.8174 12.9901C32.5977 14.1464 32.3125 14.515 32.3125 13.6428C32.3125 13.1243 31.4481 11.5 31.1723 11.5C30.8671 11.5 30.0087 12.9978 29.9886 13.5653C29.9644 14.2454 29.3611 14.3768 29.3566 13.7031C29.3532 13.1956 28.558 11.65 28.2486 11.5497C27.9023 11.4374 27.0625 12.8269 27.0625 13.5123C27.0625 13.9999 26.986 14.125 26.6875 14.125C26.4355 14.125 26.3125 13.9999 26.3125 13.744C26.3125 13.2949 25.8904 12.3068 25.4789 11.7925C25.1912 11.4331 25.1837 11.4333 24.838 11.8043C24.3021 12.3796 24.0646 12.9147 24.0417 13.597C24.0231 14.1537 23.9969 14.1203 23.7902 13.2777C23.4572 11.9191 22.6401 10.5625 22.1549 10.5625C22.0697 10.5625 22 11.0322 22 11.6061ZM25 13.5625C25 13.9126 25.0501 13.9624 25.225 13.7875C25.3999 13.6126 25.3999 13.5124 25.225 13.3375C25.0501 13.1626 25 13.2124 25 13.5625ZM28 13.5625C28 13.7688 28.0844 13.9375 28.1875 13.9375C28.2906 13.9375 28.375 13.7688 28.375 13.5625C28.375 13.3563 28.2906 13.1875 28.1875 13.1875C28.0844 13.1875 28 13.3563 28 13.5625ZM31 13.5625C31 13.7688 31.0844 13.9375 31.1875 13.9375C31.2906 13.9375 31.375 13.7688 31.375 13.5625C31.375 13.3563 31.2906 13.1875 31.1875 13.1875C31.0844 13.1875 31 13.3563 31 13.5625ZM22.5625 13.7389C22.5625 13.9512 22.6469 14.125 22.75 14.125C22.8531 14.125 22.9375 14.0035 22.9375 13.8548C22.9375 13.7061 22.8531 13.5325 22.75 13.4688C22.6469 13.405 22.5625 13.5267 22.5625 13.7389ZM33.6546 13.75C33.6546 14.0078 33.6972 14.1134 33.7491 13.9844C33.8012 13.8556 33.8012 13.6446 33.7491 13.5156C33.6972 13.3868 33.6546 13.4922 33.6546 13.75ZM22.6585 15.4669C22.5994 15.7086 22.4322 16.5813 22.2871 17.4063C22.1417 18.2313 21.9657 19.1382 21.8957 19.4219L21.7688 19.9375H23.9224H26.0759L26.1921 19.2344C26.2561 18.8478 26.3093 18.2991 26.3104 18.0156C26.3136 17.2023 26.9097 16.7478 27.9531 16.7631C28.4429 16.7704 29.0046 16.8394 29.2013 16.9165C29.5707 17.0614 30.0383 18.4351 30.0542 19.4219L30.0625 19.9375H32.2337H34.4048L34.273 18.6719C34.2004 17.9759 34.0671 17.2641 33.9767 17.0905C33.8864 16.9167 33.8112 16.537 33.8097 16.2468C33.808 15.9563 33.7448 15.6246 33.6691 15.5093C33.5764 15.3689 31.7637 15.2553 28.1485 15.1638L22.7659 15.0276L22.6585 15.4669ZM27.4726 17.7391C27.3634 17.8705 27.2157 18.4189 27.1441 18.9578L27.0141 19.9375H28.0696C29.1248 19.9375 29.125 19.9373 29.125 19.3564C29.125 18.4519 28.597 17.5 28.0954 17.5C27.862 17.5 27.5817 17.6076 27.4726 17.7391ZM21.3691 21.4819C21.2174 21.8185 20.9142 22.5128 20.6956 23.0249L20.2977 23.956L20.7271 24.2969C21.3764 24.8125 22.5293 25.4112 23.7812 25.8826C25.1449 26.3961 25.5621 26.4199 25.564 25.9844C25.5647 25.8038 25.6469 24.9468 25.7466 24.0798C25.9932 21.9346 26.2827 21.625 28.0412 21.625C29.9078 21.625 30.1675 21.9282 30.3466 24.3184C30.4214 25.3152 30.5436 26.1685 30.6184 26.2146C30.7891 26.3202 32.5379 25.6819 33.5312 25.1515C34.5529 24.6059 35.6877 23.7034 35.6866 23.4374C35.6862 23.3172 35.4796 22.7125 35.2276 22.0938L34.7693 20.9688L28.2072 20.9194L21.6449 20.8703L21.3691 21.4819ZM26.9112 22.8816C26.8154 23.0671 26.6792 23.9571 26.6087 24.8594L26.4805 26.5H28.0609H29.6414L29.5495 25.6094C29.4991 25.1196 29.404 24.2547 29.3382 23.6875L29.2186 22.6563L28.1521 22.6004C27.2792 22.5546 27.0537 22.6058 26.9112 22.8816Z" fill="#D700C1"/>
    </g>
    <defs>
    <clipPath id="clip0_580_3846">
    <rect width="18" height="18" fill="white" transform="translate(19 10)"/>
    </clipPath>
    </defs>
    </svg>
    