<svg width="35" height="50" viewBox="0 0 35 50" fill="none" xmlns="http://www.w3.org/2000/svg">
    <path
        d="M17.684 0.78125C8.36591 0.78125 0.8125 8.32642 0.8125 17.6445C0.8125 26.9626 17.684 49.2188 17.684 49.2188C17.684 49.2188 34.5472 26.9626 34.5472 17.6445C34.5472 8.32642 27.0021 0.78125 17.684 0.78125ZM17.684 28.8097C11.5159 28.8097 6.51879 23.8126 6.51879 17.6445C6.51879 11.4764 11.5159 6.47929 17.684 6.47929C23.8521 6.47929 28.8492 11.4764 28.8492 17.6445C28.8492 23.8126 23.8521 28.8097 17.684 28.8097Z"
        fill="#D700C1" />
    <circle cx="17.6812" cy="17.2735" r="11.5445" fill="white" />
    <path
        d="M12.868 21L16.756 12.54H18.304L22.24 21H20.344L19.324 18.648L20.056 19.164H15.028L15.772 18.648L14.752 21H12.868ZM17.524 14.508L15.976 18.18L15.652 17.724H19.432L19.156 18.18L17.572 14.508H17.524Z"
        fill="#D700C1" />
</svg>